<?xml version="1.0" encoding="UTF-8" standalone="no"?>
<!-- Generator: Adobe Illustrator 16.0.0, SVG Export Plug-In . SVG Version: 6.00 Build 0)  -->

<svg
   xmlns:dc="http://purl.org/dc/elements/1.1/"
   xmlns:cc="http://creativecommons.org/ns#"
   xmlns:rdf="http://www.w3.org/1999/02/22-rdf-syntax-ns#"
   xmlns:svg="http://www.w3.org/2000/svg"
   xmlns="http://www.w3.org/2000/svg"
   xmlns:sodipodi="http://sodipodi.sourceforge.net/DTD/sodipodi-0.dtd"
   xmlns:inkscape="http://www.inkscape.org/namespaces/inkscape"
   version="1.1"
   id="Layer_1"
   x="0px"
   y="0px"
   width="498.161px"
   height="175.44px"
   viewBox="0 0 498.161 175.44"
   enable-background="new 0 0 498.161 175.44"
   xml:space="preserve"
   sodipodi:docname="about_header_white.svg"
   inkscape:version="0.92.2 (30a58d1, 2017-08-07)"><metadata
     id="metadata881"><rdf:RDF><cc:Work
         rdf:about=""><dc:format>image/svg+xml</dc:format><dc:type
           rdf:resource="http://purl.org/dc/dcmitype/StillImage" /><dc:title></dc:title></cc:Work></rdf:RDF></metadata><defs
     id="defs879" /><sodipodi:namedview
     pagecolor="#ffffff"
     bordercolor="#666666"
     borderopacity="1"
     objecttolerance="10"
     gridtolerance="10"
     guidetolerance="10"
     inkscape:pageopacity="0"
     inkscape:pageshadow="2"
     inkscape:window-width="1920"
     inkscape:window-height="1056"
     id="namedview877"
     showgrid="false"
     inkscape:zoom="2.8384397"
     inkscape:cx="249.08051"
     inkscape:cy="87.720001"
     inkscape:window-x="1366"
     inkscape:window-y="24"
     inkscape:window-maximized="1"
     inkscape:current-layer="Layer_1" /><g
     id="g874"><path
       fill="#6E7171"
       d="M154.836,122.604c-4.354,2.856-10.949,7.277-19.788,13.26c0.408,0.408,0.816,0.612,1.224,0.612   c0.816,0,2.311-0.679,4.488-2.04c-0.408,0.545-0.478,0.953-0.204,1.224c0.679-0.271,1.632-0.679,2.856-1.224   c-1.361,1.09-2.856,2.04-4.488,2.856l-1.428,1.632c-2.177,0.953-5.374,2.652-9.588,5.1c-0.274,0.137-0.274,0.341,0,0.612   c7.478-3.535,13.598-6.866,18.36-9.996c-1.09,1.224-2.722,2.856-4.896,4.896c-1.361,0.682-3.538,1.836-6.528,3.468   c-2.177,1.906-5.374,4.488-9.588,7.752c-1.09,0.683-3.605,1.703-7.548,3.061c-0.545,0.816-3.538,2.447-8.976,4.896   c-3.264,1.632-5.1,2.378-5.508,2.244c-0.274,0-0.714-0.137-1.326-0.408c-0.612-0.273-1.055-0.407-1.326-0.407   c-1.906,0-4.762,0.372-8.568,1.121c-3.809,0.746-6.665,1.053-8.568,0.918c1.087,0,0.032-0.137-3.162-0.407   c-3.197-0.274-4.998-0.408-5.406-0.408c0.271,0.271,1.291,0.883,3.06,1.836c-3.401-0.137-5.374-0.341-5.916-0.612   c-2.314-1.09-6.257-3.876-11.832-8.363c-1.632-1.633-2.518-2.582-2.652-2.856l-4.284,0.408c-0.408,0.274-0.816,0.612-1.224,1.02   L51,151.98c-0.137,0.137-0.204,0.376-0.204,0.714c0,0.341-0.204,0.442-0.612,0.306h-1.428c-0.408-0.134-0.749-0.204-1.02-0.204   c0.816,0,2.174-0.372,4.08-1.122c1.903-0.746,3.398-1.121,4.488-1.121c0.408,0.137,0.612,0,0.612-0.408   c0-0.68-0.851-1.868-2.55-3.57c-1.702-1.699-2.891-2.617-3.57-2.754c-0.408,0-1.09,0.274-2.04,0.816   c-0.953,0.545-1.632,0.816-2.04,0.816c-3.401-0.134-8.297,0.137-14.688,0.816c0,0.137,0.134,0.376,0.408,0.714   c0.271,0.341,0.408,0.714,0.408,1.122c-1.224-1.495-2.448-2.244-3.672-2.244c-0.408,0-0.612,0.07-0.612,0.204   c0,0.137,0.134,0.341,0.408,0.612c-0.682-0.408-2.314-1.02-4.896-1.836c-0.137,0.137-0.341,0.239-0.612,0.306   c-0.274,0.07-0.478,0.172-0.612,0.306c2.582,2.177,4.692,3.334,6.324,3.468l4.692,0.204c0.134-0.134,0.204-0.271,0.204-0.408   c0-0.134-0.204-0.204-0.612-0.204c0.95,0,2.04,0.341,3.264,1.02c-0.816,0-2.008,0.138-3.57,0.407   c-1.565,0.275-2.754,0.408-3.57,0.408c-0.408,0-1.361-0.475-2.856-1.428c-1.498-0.95-2.381-1.428-2.652-1.428   c-0.408,0-0.58,0.07-0.51,0.204c0.067,0.137-0.102,0.204-0.51,0.204c-2.314-0.134-6.461-2.652-12.444-7.548   c-0.682-1.087-1.906-3.06-3.672-5.916c-3.539-5.575-5.646-11.832-6.324-18.768C0.204,111.725,0,108.869,0,107.1   c0-0.134,0.169-0.475,0.51-1.02c0.338-0.542,0.44-0.95,0.306-1.224c-0.137-5.304,1.734-11.797,5.61-19.482   c3.876-7.682,8.125-12.546,12.75-14.586c0.816-0.134,1.766-0.408,2.856-0.816c3.398-2.311,5.304-3.331,5.712-3.06   c-1.224,0.408-2.518,1.294-3.876,2.652c1.087,0.816,2.244,1.224,3.468,1.224c0.816,0,1.664-0.577,2.55-1.734   c0.883-1.154,1.256-2.142,1.122-2.958c0.542,0,0.883,0.137,1.02,0.408c0.408,0,0.679-0.408,0.816-1.224   c0,0.274,0.338,0.408,1.02,0.408c0.134,0,1.632-0.781,4.488-2.346c2.856-1.562,4.622-2.48,5.304-2.754   c1.632-0.679,5.575-1.428,11.832-2.244c3.943-0.542,5.712-0.816,5.304-0.816c0.408,0,1.02,0.274,1.836,0.816   c0.816,0.545,1.358,0.886,1.632,1.02c0.408,0,1.02-0.134,1.836-0.408c0.816-0.271,1.358-0.408,1.632-0.408   c0.271,0,0.714,0.102,1.326,0.306c0.612,0.204,1.052,0.306,1.326,0.306c0.408,0,0.848-0.134,1.326-0.408   c0.475-0.271,0.848-0.408,1.122-0.408c0.271,0,0.746,0.274,1.428,0.816c0.679,0.545,1.154,0.816,1.428,0.816   c2.174,0.545,3.739,0.816,4.692,0.816c0.271,0,0.577-0.134,0.918-0.408c0.338-0.271,0.644-0.408,0.918-0.408   c0.408,0,0.816,0.07,1.224,0.204l0.612,0.408c-0.682,0-1.157,0.204-1.428,0.612l-0.204,0.408c1.495,0.137,3.943,0.612,7.344,1.428   l-0.204,4.488L88.74,68.34c-0.408,0.408-0.612,0.816-0.612,1.224c0.134,0,0.408,0.204,0.816,0.612   c-0.408-0.134-0.886-0.408-1.428-0.816c-0.682,0.682-1.769,1.769-3.264,3.264l0.204,1.428c0.408-0.134,1.02-0.542,1.836-1.224   c-0.137,1.09,0.067,1.632,0.612,1.632c0.408,0.137,0.746,0.137,1.02,0h0.612c-0.274,0.408-0.886,1.973-1.836,4.692   c0,0.408-1.09,2.04-3.264,4.896v1.836c1.224-2.04,3.397-4.896,6.528-8.568c-2.314,5.712-4.284,10.133-5.916,13.26   c-0.137,0.137-0.07,0.341,0.204,0.612c0.271-0.134,0.612-0.408,1.02-0.816c1.903-4.488,5.371-11.016,10.404-19.584h0.816   c-0.137,0.408-0.408,1.09-0.816,2.04l0.408,0.816l1.428-1.224c-0.816,1.361-1.836,3.401-3.06,6.12   c0.134,0.274,0.338,0.408,0.612,0.408c0-0.816-0.137-1.224-0.408-1.224c-0.408,0-1.361,1.157-2.856,3.468L85.476,92.82   c0.134,0.274,0.134,0.682,0,1.224c-0.137,0.274-0.274,0.749-0.408,1.428l-0.816-0.816c-2.585,2.993-4.15,7.344-4.692,13.056   l-1.224,12.036c-0.274,0.816-0.408,1.498-0.408,2.04c0,0.816,0.134,1.498,0.408,2.04c0.542-0.408,0.816-1.087,0.816-2.04   c0.542-1.766,1.154-4.284,1.836-7.548c0.271-1.903,0.679-4.826,1.224-8.772c0.134-0.408,1.154-2.378,3.06-5.916   c0.408-0.816,1.291-2.923,2.652-6.324c0.95-2.311,2.244-4.214,3.876-5.712l0.612,1.836c-2.314,3.538-4.896,11.494-7.752,23.868   l0.816,0.816c1.087-6.391,3.535-11.966,7.344-16.728c-1.09,1.906-2.381,4.829-3.876,8.772c-1.498,5.578-2.244,10.066-2.244,13.464   c-0.137,0.545,0.067,0.816,0.612,0.816c-0.682,0,1.836-1.087,7.548-3.264v1.836c0.271,0.137,0.612,0.204,1.02,0.204   c1.358,0,5.167-1.699,11.424-5.1l-9.588,6.324c0.408,0.274,0.746,0.408,1.02,0.408c0.542,0,1.087-0.134,1.632-0.408   c-0.274,0.274-0.749,0.816-1.428,1.632l-1.428-1.428l-6.936,5.304c0.542,0.137,1.428,0.478,2.652,1.02   c-0.545,0-2.585,0.682-6.12,2.04c0,0.816-0.172,1.906-0.51,3.264c-0.341,1.361-0.51,2.448-0.51,3.264   c-0.137,1.361,0.612,2.62,2.244,3.774c1.632,1.157,3.194,1.804,4.692,1.938c0.408,0,0.985-0.067,1.734-0.204   c0.746-0.134,1.326-0.204,1.734-0.204l16.32-6.732c-0.274,0.274-1.702,0.953-4.284,2.04c-1.769,0.816-2.926,1.906-3.468,3.264   c0.134,0,0.306,0.07,0.51,0.204c0.204,0.137,0.373,0.204,0.51,0.204l17.136-8.976c0.95,0.274,2.448,0.478,4.488,0.612   c-0.682-0.134,0.612-0.679,3.876-1.632l0.612-0.204c1.358-0.271,3.602-1.02,6.732-2.244c6.254-3.943,9.655-6.05,10.2-6.324   c0.408,0,0.577,0.07,0.51,0.204c-0.07,0.137,0.032,0.204,0.306,0.204c0.679,0.137,1.358-0.067,2.04-0.612   c-0.953,0.816-1.632,1.836-2.04,3.06c-1.906,0.408-4.15,1.565-6.732,3.468c-0.137,0.137-0.07,0.341,0.204,0.612   C144.636,127.366,148.442,125.597,154.836,122.604z M4.896,125.256c-0.953-2.99-1.428-4.622-1.428-4.896   c0-1.224,0.542-1.766,1.632-1.632L4.896,125.256z M4.284,118.116H3.672v-3.06h0.612V118.116z M21.624,146.064   c-1.499-0.679-3.809-2.244-6.936-4.692l0.204-0.612l-0.816,0.612l-2.856-3.06C13.802,139.81,17.27,142.392,21.624,146.064z    M34.476,153.612c-0.545,1.766-1.769,2.582-3.672,2.448c-1.498,0-4.013-1.225-7.548-3.672c-2.585-1.767-4.488-3.127-5.712-4.081   c2.856,1.631,7.207,3.875,13.056,6.732c0.134-0.134,0.306-0.235,0.51-0.306c0.204-0.067,0.373-0.169,0.51-0.307   c-0.682-0.949-1.906-2.039-3.672-3.264c3.398,1.77,5.234,2.723,5.508,2.855C33.864,154.02,34.202,153.887,34.476,153.612z    M74.256,69.36h-3.468l0.816,1.02c-0.137,0.137-0.479,0.204-1.02,0.204c-0.545-0.542-0.953-0.883-1.224-1.02   c0.271,0.408,0.408,0.749,0.408,1.02c0,0.274-0.204,0.479-0.612,0.612c-2.448-0.542-3.468-0.816-3.06-0.816   c-1.361,0-2.993,0.612-4.896,1.836c-6.528,4.217-10.678,7.752-12.444,10.608c0.408,0,0.95,0.341,1.632,1.02   c1.087-1.766,3.264-3.535,6.528-5.304c3.264-1.766,5.983-2.582,8.16-2.448c0.542,0,0.883,0.07,1.02,0.204   c-4.762,1.224-9.588,3.672-14.484,7.344c-0.682,0.274-1.498,0.545-2.448,0.816c-1.77,2.585-4.284,6.12-7.548,10.608   c-0.137-0.95,1.02-3.468,3.468-7.548c-3.538,5.17-5.916,8.705-7.14,10.608c-2.314,3.809-3.468,6.802-3.468,8.976   c-2.04,5.304-3.13,9.384-3.264,12.24c0,1.632,0.475,3.742,1.428,6.324c1.358,3.672,3.194,5.508,5.508,5.508   c1.087,0.137,3.127-0.408,6.12-1.632c2.99-1.224,5.03-1.836,6.12-1.836c0.408,0,0.577,0.07,0.51,0.204   c-0.07,0.137,0.102,0.274,0.51,0.408c0.408,0,0.95-0.236,1.632-0.714c0.679-0.475,1.154-0.714,1.428-0.714   c0.542-1.087,0.883-3.194,1.02-6.324c1.087-16.862,4.692-30.326,10.812-40.392c-0.816,0-1.428,0.274-1.836,0.816v-1.632   c0,0.274-0.274,0.682-0.816,1.224l0.204-2.856c1.224,0,2.04-0.134,2.448-0.408c0.408-0.816,0.883-1.97,1.428-3.468h1.632   c0.134,0.274,0.204,0.612,0.204,1.02l-0.408,0.816L74.256,69.36z M40.596,152.184c-0.408,0.408-0.612,0.75-0.612,1.021   c0,0.138,0.067,0.274,0.204,0.408c-2.585-0.134-4.625-0.408-6.12-0.816c0.134,0,0.306-0.169,0.51-0.51   c0.204-0.338,0.373-0.51,0.51-0.51h1.836C37.332,151.913,38.556,152.051,40.596,152.184z M37.332,109.548l-0.408-0.408   l-1.224,1.632l0.612,0.408L37.332,109.548z M44.472,151.776c-0.408,0-1.836-0.408-4.284-1.224c0.95,0.137,2.174,0.407,3.672,0.815   C44.131,151.643,44.335,151.776,44.472,151.776z M49.572,147.9h-4.284v-0.612h4.284V147.9z M54.468,155.652   c-0.816,0.271-1.906,0.679-3.264,1.224c-0.274-0.137-0.749-0.545-1.428-1.224c0.134-1.633,1.699-2.378,4.692-2.244   c-0.408,0-1.224,0.341-2.448,1.02l0.816,1.021C53.786,155.448,54.331,155.515,54.468,155.652z M51.816,147.9l-0.204,0.612   l-1.428-0.612v-0.612L51.816,147.9z M55.896,108.528l-0.408,3.468h-0.816l0.408-3.468H55.896z M72.216,67.116l-0.204-0.612   l-1.02,0.612l-0.204,0.612L72.216,67.116z M80.172,64.872c-1.498-0.408-2.789-0.612-3.876-0.612   c-1.361-0.134-3.13,0.204-5.304,1.02c1.087,0.816,1.632,1.498,1.632,2.04c0.679,0,1.358,0.137,2.04,0.408   c1.224,0.816,1.903,1.224,2.04,1.224c0.408-0.816,0.918-1.699,1.53-2.652C78.846,65.35,79.49,64.872,80.172,64.872z M77.52,71.196   c0.271,0,0.408,0.07,0.408,0.204c-0.137,0.274-0.408,0.682-0.816,1.224l-1.632-1.02c0.134,0.137,0.475,0.102,1.02-0.102   C77.042,71.298,77.383,71.196,77.52,71.196z M76.704,139.128v-1.632h-0.816v1.632H76.704z M76.908,136.476v-1.632h-0.816v1.632   H76.908z M86.292,65.892c1.087,0.137,0.408,0.035-2.04-0.306c-2.448-0.338-3.809-0.51-4.08-0.51   c-0.408,1.361-1.224,2.789-2.448,4.284c0.679,0,1.087,0.137,1.224,0.408c-0.545,0.545-0.816,0.886-0.816,1.02   c0.134,0,0.338-0.067,0.612-0.204c0.271-0.134,0.542-0.204,0.816-0.204c0.408,0,0.612,0.172,0.612,0.51   c0,0.341,0.067,0.51,0.204,0.51c-0.274,0.274-0.408,0.816-0.408,1.632c0.542-0.271,2.107-0.746,4.692-1.428   c-0.274,0-0.478-0.134-0.612-0.408C84.727,70.109,85.476,68.34,86.292,65.892z M79.152,133.824L78.54,132.6l-0.612,0.204   l0.612,1.02H79.152z M84.252,46.512l-0.204,5.508c0,2.314-1.02,3.742-3.06,4.284c-1.224-1.358-1.836-3.535-1.836-6.528   c0.134-2.99,1.154-4.418,3.06-4.284C82.754,45.492,83.436,45.833,84.252,46.512z M82.212,67.728l-1.02,1.02l-0.408-0.612   l1.224-0.816L82.212,67.728z M85.476,115.26H84.66l-1.02,6.12h0.612L85.476,115.26z M89.556,73.236   c-0.682,0-1.428-0.338-2.244-1.02c0.134,0,0.408-0.102,0.816-0.306c0.408-0.204,0.746-0.306,1.02-0.306   c0,0.408,0.067,0.749,0.204,1.02L89.556,73.236z M92.412,93.84l-3.468,5.1l-0.612-0.408l3.468-5.1L92.412,93.84z M90.372,108.528   l-1.224,4.284l-0.816-0.204l1.428-4.08H90.372z M109.344,58.344c0,0.953-1.906,3.197-5.712,6.732   c-1.769-0.542-4.15-1.562-7.14-3.06c-0.274-0.542-0.749-1.428-1.428-2.652c0.271-0.408,0.475-1.224,0.612-2.448   c0.134-1.495-0.137-2.244-0.816-2.244c-0.274,0-0.58,0.07-0.918,0.204c-0.341,0.137-0.647,0.137-0.918,0   c-1.361,0-2.722-1.358-4.08-4.08c1.903-2.174,3.876-3.194,5.916-3.06c0.271,0,0.95,0.376,2.04,1.122   c1.087,0.75,1.836,1.122,2.244,1.122c0.542,0.137,1.291,0.137,2.244,0c0.95-0.134,1.699-0.204,2.244-0.204   c1.087,0.137,2.311,1.294,3.672,3.468C108.662,55.421,109.344,57.12,109.344,58.344z M91.188,72.624h-1.02v-0.612h1.02V72.624z    M97.308,81.396L94.86,84.66l-0.612-0.408l2.448-3.264L97.308,81.396z M96.9,78.54l-1.224,2.04l-0.612-0.204l1.224-2.04L96.9,78.54   z M99.144,78.132l-1.224,0.816l-0.408-0.408l1.224-1.02L99.144,78.132z M102.612,122.604c-0.274-0.271-0.478-0.612-0.612-1.02   c-0.274,0.137-0.953,0.816-2.04,2.04c0.271,0.274,0.679,0.749,1.224,1.428C101.184,124.51,101.659,123.694,102.612,122.604z    M105.468,123.42l-1.836,1.632l1.632,0.204C105.264,124.169,105.331,123.557,105.468,123.42z M148.308,94.86   c0,0.274-0.07,0.647-0.204,1.122c-0.137,0.479-0.204,0.784-0.204,0.918h-2.04c-0.274-0.408-0.816-1.224-1.632-2.448   c0,0.274-0.274,0.612-0.816,1.02c0.679-0.271,1.02-0.883,1.02-1.836c0-0.542-0.07-1.393-0.204-2.55   c-0.137-1.154-0.204-2.005-0.204-2.55c0-0.679,0.067-1.291,0.204-1.836l2.04,0.204c0.271,0.953,0.542,2.856,0.816,5.712   C147.9,93.432,148.308,94.181,148.308,94.86z"
       id="path864" /><path
       fill="#6E7171"
       d="M196.042,114.852c0,5.033-1.157,9.18-3.468,12.444c-0.816,1.224-1.906,3.13-3.264,5.712   c-0.816,1.09-4.15,4.013-9.996,8.772c0.134-0.408,0.475-1.02,1.02-1.836c0-0.134,0.067-0.204,0.204-0.204h-1.02   c1.087,0-0.341,0.612-4.284,1.836c0.95-0.542,2.311-1.495,4.08-2.856c0.134-0.271,0.067-0.542-0.204-0.816l-26.112,13.464   c-0.137-0.542-0.408-0.815-0.816-0.815c-1.906,0-7.344,1.973-16.32,5.915c-0.408,0.134-1.224,0.816-2.448,2.04   c0-0.953,0.134-1.428,0.408-1.428c-0.816,0.816-1.361,1.97-1.632,3.468c-0.274-0.137-0.816-0.545-1.632-1.224   c-4.488,1.766-6.598,4.963-6.324,9.588c-0.274,0-0.647-0.172-1.122-0.51c-0.478-0.341-0.851-0.51-1.122-0.51   c-0.274,0.407-1.09,2.243-2.448,5.508h-1.02c-0.137-1.361-0.137-2.993,0-4.896c-0.274-0.545-0.612-0.953-1.02-1.224   c-0.274,0.271-0.408,0.746-0.408,1.428c0-0.682-0.204-1.157-0.612-1.428c-0.274,0.271-1.02,1.291-2.244,3.06   c0.134-2.313,0.134-3.809,0-4.487c-0.408,0-0.682,0.203-0.816,0.611c-0.274,1.225-0.953,2.99-2.04,5.305   c-0.137-0.138-0.341-1.225-0.612-3.265c-0.408-1.498-0.204-2.789,0.612-3.876c-0.953-1.09-1.903-1.632-2.856-1.632   c-0.542,0-1.154,0.067-1.836,0.204c-0.679,0.134-1.224,0.204-1.632,0.204v-3.061c1.498-0.273,3.468-0.815,5.916-1.632   c0.679-1.906,2.311-6.253,4.896-13.056c1.495-3.943,3.264-8.976,5.304-15.096v-0.612c-0.545,0.408-1.02,1.09-1.428,2.04   c5.846-19.176,11.22-40.526,16.116-64.056c3.127-15.775,4.896-27.744,5.304-35.904c0-1.087,0-2.582,0-4.488   c0-1.903-0.07-3.331-0.204-4.284c0-0.95,0-1.087,0-0.408v-3.264c0.271,0.953,0.816,2.244,1.632,3.876   c0.816-1.358,1.224-2.856,1.224-4.488c0-1.224-0.204-2.448-0.612-3.672c0.134-0.679,0.816-2.174,2.04-4.488   c-0.408,4.217-0.612,7.14-0.612,8.772c0.408-0.816,1.224-2.311,2.448-4.488c0.679-0.816,1.766-1.903,3.264-3.264   c0.271,0.274,0.746,1.09,1.428,2.448c0.271-0.134,0.475-0.612,0.612-1.428v1.428c1.224,0,2.107,0.137,2.652,0.408   c0.271-0.271,0.51-0.714,0.714-1.326c0.204-0.612,0.373-0.985,0.51-1.122c-0.137,0.682-0.137,2.04,0,4.08   c0.95-0.408,1.699-1.154,2.244-2.244l-1.224-1.428c0.816,0.545,2.04,1.361,3.672,2.448c0.679-1.358,1.02-2.786,1.02-4.284   c0.134,0.816,0.408,1.973,0.816,3.468c0.134-0.816,0.475-1.632,1.02-2.448c0.271,1.498,0.883,3.742,1.836,6.732h0.204   c0.134-2.04,0.612-4.622,1.428-7.752c0.679-1.358,1.699-2.04,3.06-2.04c0.816,0,1.699,1.224,2.652,3.672   c-1.77,0-2.856,0.816-3.264,2.448c-0.408,1.224-0.408,2.722,0,4.488c0.679,4.354,1.02,8.638,1.02,12.852   c0,6.936-1.02,13.534-3.06,19.788c0-0.542-0.274-1.154-0.816-1.836c-0.408,2.04-1.157,5.1-2.244,9.18   c-0.274-0.271-0.545-0.408-0.816-0.408c-0.545,1.09-1.157,2.722-1.836,4.896c0.134,0.682,0.204,1.769,0.204,3.264   c-0.545,0.682-1.294,1.836-2.244,3.468v-2.04c-0.137-0.134-0.274,0-0.408,0.408c-0.682,2.448-2.11,7.21-4.284,14.28   c1.358-0.134,4.214-0.134,8.568,0c4.896,0.274,8.772,0.886,11.628,1.836c5.846,2.177,10.742,6.12,14.688,11.832   C194.069,102.612,196.042,108.598,196.042,114.852z M138.515,16.116c-0.274,0.408-0.545,1.565-0.816,3.468   c-0.408-0.816-0.953-2.174-1.632-4.08c0.542,0.545,0.883,0.816,1.02,0.816h1.02C138.24,16.186,138.377,16.116,138.515,16.116z    M137.699,136.272h-0.612l-1.02,2.448l0.612,0.204L137.699,136.272z M139.535,130.56c-0.816,0.682-1.428,2.177-1.836,4.488   c-0.274,0-0.479,0.07-0.612,0.204c0.134,0.274,0.338,0.612,0.612,1.02C138.922,133.416,139.535,131.513,139.535,130.56z    M169.931,120.156c0-1.087-0.408-2.652-1.224-4.692l-1.02,3.264c0-1.766-0.612-4.08-1.836-6.936c0,1.361-0.137,2.244-0.408,2.652   c0-0.679-0.816-1.766-2.448-3.264h1.632c-0.682-2.174-4.354-3.264-11.016-3.264c-2.585,0-4.15,0.545-4.692,1.632   c0.95,0,2.378,0.341,4.284,1.02l-4.488,1.02c-1.361,4.217-3.401,10.2-6.12,17.952c0-0.271,0.067-0.408,0.204-0.408   c0.134,0.274,0.204,0.682,0.204,1.224c0,0.682-0.306,1.769-0.918,3.264c-0.612,1.498-0.918,2.381-0.918,2.652   c0.679-0.816,1.358-1.903,2.04-3.264c0.271,0.274,0.338,0.478,0.204,0.612c0-0.408-0.274-0.134-0.816,0.816   c-0.682,1.224-1.294,2.04-1.836,2.448l-0.408,0.408c-0.137,1.498-0.408,2.722-0.816,3.672c0-0.679,0.408-1.02,1.224-1.02   c0.271,1.09-0.341,2.585-1.836,4.488h1.632c-0.682,0.953-1.499,2.244-2.448,3.876c2.04-0.679,4.214-2.04,6.528-4.08   c-1.498,1.09-2.585,1.498-3.264,1.224c0.816-0.679,1.632-1.291,2.448-1.836c-1.498,0.545-2.448,0.682-2.856,0.408   c4.351-2.582,10.675-6.187,18.972-10.812l-4.284,1.224c2.582-1.903,5.167-3.739,7.752-5.508c3.127-2.311,4.896-4.622,5.304-6.936   C169.522,120.089,169.931,119.477,169.931,120.156z M145.858,112.2c-0.408,0.137-0.886,0.408-1.428,0.816   c-1.224,3.672-2.856,9.113-4.896,16.32l1.02,0.612L145.858,112.2z M140.962,143.004l-0.816,1.02l-0.612-0.408l1.224-1.224   L140.962,143.004z M143.207,13.26h-0.612v-2.04h0.612V13.26z M146.063,126.888l-1.224,2.244l-0.816-0.204l1.428-2.244   L146.063,126.888z M147.287,108.732c-1.361,0.682-2.04,1.224-2.04,1.632h1.632C146.878,109.685,147.012,109.14,147.287,108.732z    M146.471,111.384v-0.816h-1.224v0.816H146.471z M148.714,12.852h-0.816l-0.408-1.836h0.612L148.714,12.852z M150.958,113.628   c-0.816,0-1.428,0.479-1.836,1.428c0.271-1.358,0.679-2.378,1.224-3.06C150.347,112.678,150.55,113.22,150.958,113.628z    M153.203,0.816l-0.408,0.612l-1.02-1.02L152.183,0L153.203,0.816z M152.794,84.048v-1.224h-0.816v1.224H152.794z M153.203,82.62   v-1.428h-0.816v1.428H153.203z M153.61,80.988v-2.04h-0.612v2.04H153.61z M154.426,82.62l-0.612-0.204l-0.612,1.428l0.612,0.204   L154.426,82.62z M159.119,75.48l-0.612,2.244h-0.612l0.408-2.244H159.119z M159.526,74.664h-0.816v-1.428h0.816V74.664z    M164.422,63.852h-0.612V62.22h0.612V63.852z M172.583,35.496h-1.02V32.64h1.02V35.496z M172.787,20.604h-0.612V19.38h0.612V20.604   z M172.787,31.416h-0.612V21.012h0.612V31.416z M177.683,142.596l-2.04,1.02v-0.612l1.836-1.02L177.683,142.596z M189.106,113.424   c0-2.448-1.09-5.438-3.264-8.976c0,0.682-0.137,1.157-0.408,1.428c-0.137-1.224-1.157-2.754-3.06-4.59   c-1.906-1.836-3.468-2.958-4.692-3.366c7.615,6.12,11.15,12.922,10.608,20.4C188.833,116.554,189.106,114.922,189.106,113.424z    M182.579,80.172l0.612,0.612h1.428c-0.545,0-0.341-0.271,0.612-0.816c1.224,0.408,1.495,1.157,0.816,2.244   c-0.682,1.499-0.749,2.722-0.204,3.672c0.679,0.408,1.495,1.157,2.448,2.244l3.06,0.612c1.358,0,1.766-0.679,1.224-2.04   c0.408-0.271,1.02-1.699,1.836-4.284c0.542,0.545,0.883,0.816,1.02,0.816c1.766,0,2.652-0.883,2.652-2.652   c0-2.448-1.157-3.672-3.468-3.672c-0.137,0-0.306,0.102-0.51,0.306c-0.204,0.204-0.376,0.306-0.51,0.306   c-0.137,0-0.545-0.236-1.224-0.714c-0.682-0.475-1.09-0.714-1.224-0.714c-0.682,0-1.836,0.478-3.468,1.428   c-0.274,0.274-0.886,0.749-1.836,1.428c-0.137,0-0.204-0.067-0.204-0.204c0-1.358-0.545-2.04-1.632-2.04   c-0.408,0-0.886,0.408-1.428,1.224V80.172z M187.475,131.172l-0.408-0.408l-3.876,4.08l0.204,0.408L187.475,131.172z    M186.046,83.028l0.612-0.204v0.204l-0.408,0.204L186.046,83.028z"
       id="path866" /><path
       fill="#6E7171"
       d="M292.533,93.024c0,2.448-1.021,6.053-3.061,10.812c-0.815,2.314-1.973,5.986-3.468,11.016   c-1.632,1.769-3.946,4.762-6.936,8.976l1.02-2.04c0.816-1.495,1.087-2.378,0.816-2.652c-1.09,1.498-2.585,3.946-4.488,7.344   c-0.815,0.682-2.04,1.973-3.672,3.876c-0.816,1.499-1.973,3.672-3.468,6.528c-3.538,5.033-7.481,9.113-11.832,12.24   c-7.481,5.578-12.444,8.364-14.893,8.364c-0.407,0-1.02-0.137-1.836-0.408c-0.815-0.274-1.36-0.408-1.632-0.408   c-1.09,0-2.62,0.236-4.59,0.714c-1.973,0.476-3.503,0.715-4.59,0.715c-4.08,0-8.434-2.178-13.056-6.528l-4.08-0.816   c-0.137,0.408-0.204,0.953-0.204,1.633c0,0.682,0.067,1.498,0.204,2.447c-1.361-1.766-3.197-4.08-5.508-6.936   c-0.137-0.679-0.478-1.903-1.02-3.672c-0.408-0.271-0.816-0.542-1.224-0.816c-0.274-1.766-0.682-4.488-1.224-8.16   c0.679-0.816,1.02-1.428,1.02-1.836c-1.361-3.127-2.244-5.779-2.652-7.956c0.408-0.408,0.408-4.08,0-11.016   c1.224-9.926,3.739-19.718,7.548-29.376c1.495-4.214,4.418-8.635,8.772-13.26c4.622-5.438,8.772-8.568,12.444-9.384   c0.542,0,3.127-1.087,7.752-3.264c-9.384,3.809-16.865,9.725-22.439,17.748c-0.137,0.137,0,0.408,0.408,0.816l1.02-0.816   c-1.769,1.906-3.197,4.217-4.284,6.936l0.816,0.408c4.214-5.846,11.083-12.036,20.604-18.564c-0.407,0-1.564,0.341-3.468,1.02   c8.702-5.167,15.434-7.682,20.196-7.548c-0.138,0-0.408,0.204-0.816,0.612c0.408,0.274,0.883,0.408,1.428,0.408   c0.68,0,1.699-0.134,3.061-0.408c1.357-0.271,2.378-0.408,3.06-0.408c0.408,0,1.326,0.478,2.754,1.428   c1.429,0.953,2.276,1.428,2.551,1.428c0.542,0,0.78-0.102,0.714-0.306c-0.07-0.204,0.031-0.306,0.306-0.306   c0.408,0.137,0.985,0.581,1.734,1.326c0.746,0.749,2.754,2.958,6.018,6.63c0.542,1.224,1.903,2.856,4.08,4.896l0.816-0.816   c-0.953-0.408-1.326-0.95-1.122-1.632c0.204-0.679,0.031-1.224-0.51-1.632c2.174,0,3.806,0.478,4.896,1.428   c0.816-0.95,1.224-1.562,1.224-1.836c0.542,1.498,1.633,3.06,3.265,4.692c0.949,1.09,2.378,4.558,4.284,10.404   c0,0.545,0.066,1.428,0.203,2.652c0.271,0.545,0.884,1.09,1.837,1.632C292.125,90.576,292.533,91.8,292.533,93.024z M223.173,71.4   l-2.652,2.856l-0.204-0.612l2.448-2.448L223.173,71.4z M226.437,69.36l-2.652,2.04l-0.204-0.816l2.448-1.836L226.437,69.36z    M258.873,88.944c-1.361-2.04-2.177-3.602-2.448-4.692c-1.769,1.224-4.625,3.538-8.567,6.936c0.134-0.816,0.679-1.836,1.632-3.06   c-6.257,7.752-10.813,16.39-13.668,25.908c-0.545-0.816-0.887-1.224-1.021-1.224c-0.953,0-1.871,1.632-2.754,4.896   c-0.886,3.264-1.326,5.578-1.326,6.936c0,2.722,0.612,6.257,1.836,10.608c5.438-1.495,10.676-5.508,15.708-12.036   c5.03-6.528,7.479-12.444,7.345-17.748c0.542,0.274,0.949-0.134,1.224-1.224l0.612-1.428c-1.091-0.408-2.244-0.883-3.468-1.428   c0.134-0.679,0.203-1.224,0.203-1.632c0-1.358-2.177-2.582-6.527-3.672l5.1-0.204c0.679,0.274,1.632,0.886,2.856,1.836   c0.134-0.408,0.338-0.883,0.611-1.428c-0.815,0-1.294-0.067-1.428-0.204c0.679-0.679,0.95-1.224,0.816-1.632   c-0.545-0.408-1.294-0.95-2.244-1.632c2.04-0.679,3.397-1.562,4.08-2.652c-0.408-0.542-0.953-1.154-1.632-1.836   c0.407,0,0.949,0.102,1.632,0.306C258.124,88.842,258.598,88.944,258.873,88.944z M240.716,59.16h-1.224v-0.816h1.224V59.16z    M249.489,59.364c-1.498,0.408-4.559,1.428-9.18,3.06h1.836C242.96,62.561,245.409,61.541,249.489,59.364z M243.369,58.14h-1.224   v-0.816h1.224V58.14z M252.344,102h-1.02v-0.816h1.02V102z M288.657,68.544h-0.816v-1.836h0.816V68.544z"
       id="path868" /><path
       fill="#6E7171"
       d="M376.579,165.444c-0.407-0.138-1.156-0.172-2.243-0.103c-1.091,0.067-1.837,0.103-2.244,0.103   c-0.274,0-1.056-1.09-2.347-3.265c-1.294-2.177-2.008-3.334-2.142-3.468c-0.953,0.542-1.498,1.087-1.632,1.632   c-0.138,0.68,0.408,1.836,1.632,3.469c-0.274,0.949-0.274,1.902,0,2.855c-0.274,1.495-1.09,2.244-2.448,2.244   c-0.408,0-0.714-0.07-0.918-0.204c-0.204-0.137-0.376-0.204-0.51-0.204c-0.274,0.271-0.479,0.612-0.612,1.021   c0,0.271,0.067,0.475,0.204,0.611l-1.02-1.02c-0.953,0-1.498,0.408-1.633,1.224l-0.203,1.836c-0.408,0-0.953-0.137-1.633-0.407   c-0.682-0.274-1.294-0.408-1.836-0.408c0.408,0.542,0.883,1.357,1.429,2.448l-0.204,1.632h-1.632   c-0.683-1.77-1.77-4.421-3.265-7.956c-2.313,0.679-3.809,1.087-4.487,1.224c-1.906,0-2.789-3.468-2.652-10.404   c0-0.952,0.066-4.487,0.204-10.607c-0.138,0.274-0.408,0.682-0.816,1.224c-1.361,0.545-3.13,1.361-5.304,2.448   c-5.712,2.04-9.929,3.13-12.648,3.265l-5.304,0.203c-1.224,0-3.264-0.679-6.12-2.04c-0.545-0.271-1.224-0.679-2.04-1.224   c-6.665-2.856-11.22-8.772-13.668-17.748c-1.906-7.478-2.177-15.638-0.815-24.48c0.134-0.816,0.306-2.107,0.51-3.876   c0.204-1.766,0.373-3.194,0.51-4.284c0.271-1.632,2.923-9.314,7.956-23.052c1.903-5.03,4.01-8.431,6.324-10.2   c0.134,1.09,0.408,2.518,0.815,4.284c0.134-0.134,1.225-1.495,3.265-4.08c1.632-2.311,2.923-3.468,3.876-3.468   c0.542,0,1.153,0.137,1.836,0.408c0.134,0.274,0.271,0.612,0.408,1.02l-0.204,1.428c0.134,0.545,0.407,1.428,0.815,2.652   c0.816,2.04,2.107,2.993,3.876,2.856c-1.09,0.137,0.338-0.475,4.284-1.836c0.134,0.545,0.134,1.498,0,2.856   c-0.274,1.498-0.749,3.264-1.428,5.304c-0.138,0.408-0.138,0.886,0,1.428c-0.683,3.264-1.77,7.685-3.264,13.26   c-0.408,1.361-0.546,2.585-0.408,3.672l0.204,0.612c-1.361,7.752-1.906,13.601-1.633,17.544c0.408,6.257,2.516,12.31,6.324,18.156   l-0.204,0.408c0.816,0.137,1.767,0.545,2.856,1.224c0.134,0.274,0.338,0.408,0.612,0.408c0.541,0,3.397-1.562,8.567-4.692   c0.408,0,0.746,0.204,1.021,0.612c-0.683,1.09-1.295,1.769-1.836,2.04c0.134,0.137,0.407,0.274,0.815,0.408   c0,0.816,0.746,1.632,2.244,2.448c0.542-1.766,1.087-4.418,1.632-7.956c-0.273-0.679-0.408-1.087-0.408-1.224l0.816-1.02   c0.95-9.247,4.351-22.099,10.2-38.556c1.766-4.896,4.555-11.762,8.364-20.604l1.02,1.02c-0.682,1.632-1.428,3.605-2.244,5.916   l-0.612,3.06c-0.137,0.274,0.067,0.408,0.612,0.408c1.087,0,2.276-1.224,3.57-3.672c1.291-2.448,2.005-3.672,2.142-3.672   c0.542,0,0.95,0.07,1.225,0.204l0.204,0.204l1.428-3.672c-0.138,0.953-0.138,2.04,0,3.264c0.815-0.408,1.632-1.766,2.448-4.08   l2.04-0.816c1.357,1.361,1.97,2.11,1.836,2.244c0.541,0,0.78-0.067,0.714-0.204c-0.07-0.134,0.031-0.204,0.306-0.204   c0.408,0,0.816,0.479,1.224,1.428c0.408,0.953,0.746,1.498,1.021,1.632c-0.137,0.408-0.683,1.294-1.632,2.652   c-0.408,0.816-0.408,1.702,0,2.652c-0.138,0.137-0.07,0.341,0.204,0.612c0.815-0.271,1.97-1.087,3.468-2.448l-0.204,0.612   c0.134,0.137,0.338,0.478,0.612,1.02c-0.408,1.09-0.749,2.314-1.021,3.672c-0.274,1.906-0.478,4.08-0.612,6.528l0.408,0.204   c0.134-0.542,0.476-1.02,1.021-1.428c-0.274,0.953-2.519,9.658-6.732,26.112c-1.906,7.752-3.06,14.621-3.468,20.604   c-0.137,1.498-0.683,4.625-1.632,9.384c-0.138,0.408,0,0.886,0.408,1.428l-0.204,1.428c-0.274,0.137-0.612,0.204-1.021,0.204   s-0.749-0.134-1.02-0.408l-1.429,0.204C370.185,156.127,371.546,163.404,376.579,165.444z M337.615,81.6l-2.04,5.712   c-1.498,4.762-2.381,7.685-2.651,8.772c-0.138,0.953-0.274,2.381-0.408,4.284c-0.545,2.177-1.361,3.742-2.448,4.692   c-0.682-4.08-0.815-7.411-0.408-9.996c0.271-1.224,0.816-3.127,1.632-5.712c0.816-2.582,1.291-4.351,1.429-5.304   c0.542-1.632,1.495-3.876,2.855-6.732c0.134,0.274,0.408,0.612,0.816,1.02c0.542-0.542,1.153-0.816,1.836-0.816L337.615,81.6z"
       id="path870" /><path
       fill="#6E7171"
       d="M396.772,131.988c-0.273,1.498-0.886,2.177-1.836,2.04c-0.273,0-1.294-0.95-3.06-2.856   c0.134-0.816-0.408-1.766-1.632-2.856c-0.138-0.816-0.204-1.291-0.204-1.428c0.408,0,0.816,0.274,1.224,0.816l1.632-1.224   c0.68-0.542,1.154-0.816,1.429-0.816C395.82,125.938,396.635,128.045,396.772,131.988z M394.121,30.396   c0,0.274-0.103,0.612-0.307,1.02c-0.203,0.408-0.306,0.682-0.306,0.816c-0.682-0.134-1.361-0.134-2.04,0   c-0.545-0.542-0.749-0.883-0.611-1.02c0-0.271,0.203-0.781,0.611-1.53c0.408-0.746,0.612-1.256,0.612-1.53   c0.542,0,1.357,0.137,2.448,0.408L394.121,30.396z M497.957,64.872l-3.876,1.836c-0.137,0.545,0.338,1.157,1.428,1.836   c0,0.274-0.274,0.682-0.815,1.224c-2.448,0.274-5.986,0.478-10.608,0.612c-0.816,0-1.565,0.274-2.244,0.816   c1.087,0.274,2.244,0.545,3.468,0.816c1.225,0.137,2.448,0.204,3.672,0.204c-1.498,0.274-3.741,0.612-6.731,1.02   c-1.361,0.545-3.334,1.09-5.916,1.632c0.134,0.274,0.338,0.341,0.612,0.204c2.311-0.271,3.602-0.408,3.876-0.408   c0.949,0,4.214-0.134,9.792-0.408l0.815,0.408L490,75.684l-25.704,2.856c-9.384,0.953-17.885,1.565-25.5,1.836l-0.408,0.408   c-0.137,0.137-1.564,4.15-4.284,12.036c-1.769,5.17-2.992,9.725-3.672,13.668c-2.04,13.33-1.157,24.005,2.652,32.028   c7.07-4.214,10.404-6.324,9.996-6.324c0.542,0,1.428,0.714,2.652,2.142c1.224,1.428,2.106,2.212,2.651,2.346   c0.271,0,0.408-0.067,0.408-0.204c0-0.134,0.134-0.134,0.408,0c0.271,0.137,0.679,0.545,1.224,1.224   c0.816-0.679,5.167-2.99,13.056-6.936c-7.889,8.705-17.136,15.029-27.743,18.972c-0.546,0.273-0.816,0.545-0.816,0.816l0.408,0.611   c2.719-0.134,9.518-3.398,20.399-9.792l-10.607,7.956c-6.803,4.896-11.29,7.14-13.464,6.732c-0.408,0-1.53-0.816-3.366-2.448   s-2.824-2.652-2.958-3.06c-1.361,0.407-2.11,1.156-2.244,2.243l-2.448-0.407c-1.36-0.271-4.487-4.147-9.384-11.628   c-1.906-2.99-2.855-8.906-2.855-17.748c0.134-6.391,0.679-12.648,1.632-18.768c0.271-1.766,2.04-9.247,5.304-22.44   c-3.401,0.545-5.916,0.682-7.548,0.408c-0.953-0.134-2.519-0.679-4.692-1.632c-2.177-0.95-3.876-1.495-5.1-1.632l-5.508-0.816   c-0.953,0-1.225,0-0.816,0c0-0.408,0.204-0.883,0.612-1.428c1.224-0.408,2.311-0.542,3.264-0.408   c0.542,0.137,1.428,0.341,2.652,0.612c1.224,0.274,2.106,0.478,2.651,0.612l0.612-0.408c-0.274-0.408-1.157-1.02-2.652-1.836   c0.68,0,1.837-0.067,3.469-0.204c-3.946-3.943-6.258-5.983-6.937-6.12c-0.408,0-1.702,0.137-3.876,0.408   c0.134-0.408,0.476-0.542,1.021-0.408c0.134-0.134,0-0.408-0.408-0.816c1.087-1.087,2.174-2.174,3.264-3.264   c2.856,0,4.352-0.475,4.488-1.428c0.271-1.224,0.066-1.836-0.612-1.836c-1.09-0.134-1.973-0.612-2.651-1.428   c1.224-0.134,3.06-0.475,5.508-1.02l-0.612-0.816c0.816-0.408,2.107-1.087,3.876-2.04c0.271-0.408,0.204-0.612-0.204-0.612   c0.816,0.137,1.291,0.408,1.428,0.816c0.95-0.271,1.563-1.087,1.837-2.448c0.949-0.408,2.311-0.746,4.079-1.02   c2.582-0.271,6.458-0.746,11.629-1.428c0.541-1.087,2.174-5.846,4.896-14.28l0.408-2.856c0.134-0.542,0.746-1.903,1.836-4.08   l0.204-2.04c0.408-1.087,1.153-2.786,2.244-5.1c0.134-0.542,0.407-1.358,0.815-2.448c1.087-1.224,1.836-2.378,2.244-3.468   c1.632,1.09,3.468,2.381,5.508,3.876c0.816-0.679,1.97-1.632,3.469-2.856c0,0.545,0.541,2.11,1.632,4.692   c0.542-1.224,1.428-3.264,2.651-6.12l1.021,0.408c0,1.09,0.475,2.789,1.428,5.1c0.271,1.906,0.408,3.946,0.408,6.12   c0,3.401,0.134,4.966,0.408,4.692l-0.408,1.836h-0.612c-0.815,3.401-2.177,8.501-4.08,15.3c0.134,0.274,0.338,0.612,0.612,1.02   c0.271,0,0.612-0.204,1.02-0.612c-0.137,0.545,0.067,0.886,0.612,1.02c0.95,0.137,2.515,0,4.692-0.408   c1.902,0.137,4.963,0.204,9.18,0.204c5.304,0,8.364-0.067,9.18-0.204c-0.815,1.498-1.836,2.177-3.06,2.04l-3.061-0.408   l-0.611,0.204c0.408,0.545,1.02,0.886,1.836,1.02c0.542,0,1.428-0.134,2.652-0.408c1.224-0.271,2.106-0.338,2.651-0.204   c0.271,0,0.338,0.137,0.204,0.408c-0.137,0.274,0,0.408,0.408,0.408c-0.953-0.134,1.699-0.542,7.956-1.224c0.949,0,4.146,0,9.588,0   c-0.408,0-1.326,0.306-2.754,0.918s-2.346,0.851-2.754,0.714c-2.993-0.408-5.646-0.204-7.956,0.612   c0.408,0.545,0.815,0.816,1.224,0.816c6.391,1.09,8.977,1.361,7.752,0.816c0.408,0.545,1.495,1.973,3.265,4.284   c0,0.408,0.066,0.816,0.203,1.224c1.087,0.545,1.429,0.75,1.021,0.612c0.95,0.137,2.855,0.137,5.712,0l0.408,0.408L497.957,64.872z    M394.733,74.868l-2.856-0.408c0.408-0.134,0.816-0.338,1.224-0.612C393.642,74.53,394.187,74.868,394.733,74.868z M432.472,16.932   c-0.815,0.545-1.294,0.816-1.428,0.816l-2.448-0.408c-0.137-0.134-0.306-0.408-0.51-0.816c-0.204-0.408-0.376-0.679-0.51-0.816   c-0.816,0.137-1.498,0.647-2.04,1.53c-0.545,0.886-0.683,1.6-0.408,2.142c0.95,3.13,0.746,5.304-0.612,6.528   c-1.224,0.816-2.993,1.973-5.304,3.468c-4.217,0.274-6.19,0.479-5.916,0.612c-0.816-0.134-1.428-0.644-1.836-1.53   c-0.408-0.883-0.408-1.734,0-2.55c-0.408-0.542-0.953-1.428-1.632-2.652c-0.138-1.358-0.341-3.264-0.612-5.712   c-0.953,0.816-1.702,1.157-2.244,1.02c-3.4-0.542-4.829-2.311-4.284-5.304c0.271-1.495,1.225-2.923,2.856-4.284   c1.632-1.358,3.194-1.903,4.692-1.632c0.271,0,0.611,0.137,1.02,0.408c0.408,0.274,0.746,0.479,1.021,0.612   c0.271,0,1.153-0.306,2.651-0.918c1.495-0.612,2.378-0.848,2.652-0.714c1.087,0.137,3.06,1.294,5.916,3.468   c0.542,0.816,1.562,2.04,3.06,3.672c0.408-0.816,1.087-1.766,2.04-2.856c0.816-0.679,1.495-0.95,2.04-0.816   c0.95,0.137,1.766,1.02,2.448,2.652L432.472,16.932z M413.296,35.496l-3.672-1.428l0.204-0.408l3.468,1.224V35.496z    M416.357,44.676c-0.274,1.361-1.021,1.906-2.244,1.632c-2.178-0.271-3.605-1.358-4.284-3.264c0.679-1.495,1.495-2.174,2.448-2.04   C415.266,41.412,416.627,42.636,416.357,44.676z M424.72,21.216l-0.408-0.612l-0.407,0.204l0.407,0.612L424.72,21.216z    M431.453,25.5l-7.548,22.236l6.12-24.48C430.295,23.393,430.77,24.142,431.453,25.5z M435.737,120.156   c-0.683,0-1.157-0.338-1.429-1.02c-0.407-1.495-0.478-3.06-0.204-4.692c-0.137,1.09,1.087-3.672,3.673-14.28   c-0.408,1.906-0.715,5.135-0.918,9.69C436.655,114.412,436.279,117.845,435.737,120.156z M451.241,46.104l-0.816,3.264h-0.815   l1.02-3.468L451.241,46.104z M453.485,21.216h-0.612l0.204-0.816h0.611L453.485,21.216z M465.928,22.032   c-0.137,1.361-1.224,2.518-3.264,3.468c-0.408-0.542-0.612-0.95-0.612-1.224c0.134-0.542,0.645-1.291,1.53-2.244   c0.883-0.95,1.597-1.495,2.142-1.632C465.996,20.808,466.062,21.353,465.928,22.032z M491.428,22.236   c-1.224,0.816-2.177,1.157-2.855,1.02l-0.408-0.408l0.204-1.224c0.271-0.271,1.224-0.746,2.855-1.428l0.612,0.408L491.428,22.236z"
       id="path872" /></g><path
     style="opacity:1;fill:#dedbe3;fill-opacity:1;stroke-width:0.35230622"
     d="m 118.65674,170.72022 c 0,-2.62861 -0.7076,-4.26859 -1.39714,-3.23809 -0.23732,0.35468 -0.35538,0.38364 -0.359,0.0881 -0.01,-0.79091 -0.57978,-0.46525 -1.5345,0.87658 l -0.93704,1.31696 v -2.05093 c 0,-2.8014 -0.60504,-2.47816 -1.9299,1.03106 l -1.05325,2.78977 -0.41333,-2.28999 c -0.32981,-1.82721 -0.31975,-2.56203 0.0498,-3.63614 0.45648,-1.32692 0.44721,-1.35617 -0.64931,-2.04801 -0.90095,-0.56845 -1.49746,-0.66518 -3.13816,-0.50886 l -2.02576,0.19301 v -1.33812 -1.33812 l 2.8317,-0.81823 c 1.87269,-0.54112 2.95619,-1.05085 3.1993,-1.50511 0.20218,-0.37778 0.30915,-0.74532 0.23771,-0.81676 -0.0714,-0.0714 -1.847,0.67044 -3.94569,1.64863 -2.91087,1.35674 -4.03566,1.72041 -4.74287,1.53346 -2.24018,-0.59221 -4.751627,-0.54321 -8.885859,0.17338 -6.542239,1.13397 -9.253789,1.37153 -12.054644,1.05611 -5.032579,-0.56675 -6.937981,-0.68269 -6.937981,-0.42217 0,0.14591 0.435979,0.55091 0.968842,0.9 l 0.968842,0.63469 -2.447334,-0.194 c -2.24227,-0.17775 -2.699828,-0.36159 -5.460746,-2.19406 -3.862365,-2.56353 -8.261247,-6.00589 -10.059538,-7.87211 l -1.409224,-1.46247 -2.378068,0.23554 c -1.307936,0.12955 -2.378067,0.14816 -2.378067,0.0414 0,-0.1068 0.951227,-0.38132 2.113838,-0.61005 1.201061,-0.23629 2.113837,-0.60145 2.113837,-0.84564 0,-1.03442 -3.727192,-5.15033 -5.544814,-6.12309 -0.515889,-0.2761 -1.112421,-0.15846 -2.532296,0.49938 -1.465474,0.67896 -2.434158,0.86056 -4.590451,0.86056 -3.966317,0 -12.135734,0.73168 -12.373532,1.10822 -0.114435,0.1812 -0.65412,0.0872 -1.233072,-0.21467 -1.139491,-0.59423 -2.26264,-0.70972 -2.26264,-0.23267 0,0.16972 -1.012638,-0.059 -2.250308,-0.50823 -1.865754,-0.67723 -2.354775,-0.74043 -2.861621,-0.36982 -0.558736,0.40856 -0.499631,0.53906 0.687207,1.51736 l 1.298521,1.07035 -1.871885,-0.0709 c -2.218777,-0.084 -4.203854,-1.02228 -8.213397,-3.88217 -4.010829,-2.8608 -4.514549,-3.40795 -7.3004103,-7.92977 C 5.1131303,131.16273 3.8728964,128.55265 2.5838523,124.4721 0.09427606,116.5912 -0.13982729,105.57165 2.0039493,97.175305 4.0787394,89.049154 9.7043843,78.677001 14.389848,74.33909 c 2.34593,-2.171919 3.349055,-2.777642 6.256701,-3.778019 1.061526,-0.365219 2.150431,-0.846934 2.419789,-1.070483 0.378264,-0.313929 0.587477,-0.277867 0.919113,0.158425 0.509647,0.670481 2.081961,1.301212 3.243725,1.301212 1.14664,0 2.743942,-1.433894 3.523796,-3.163302 0.401079,-0.889435 0.8287,-1.378141 1.111066,-1.269789 0.252472,0.09688 0.582135,-0.03061 0.732586,-0.283303 0.150451,-0.252699 0.749161,-0.553833 1.330466,-0.669192 0.581305,-0.115356 2.973419,-1.246315 5.315811,-2.51324 4.948543,-2.676513 6.16723,-3.030418 15.133614,-4.394805 l 6.678155,-1.016192 1.570031,0.899332 c 1.454454,0.83313 1.705832,0.870848 3.41482,0.512383 1.284917,-0.269514 2.241718,-0.277353 3.152679,-0.02582 0.916018,0.252925 1.560375,0.246083 2.15058,-0.02283 1.203791,-0.548488 1.797974,-0.480701 2.944864,0.335959 0.556066,0.395954 2.158063,0.93847 3.559995,1.205599 2.222467,0.423472 2.679373,0.418244 3.567058,-0.04079 1.169132,-0.604583 2.669593,-0.346409 1.571036,0.270314 -1.122448,0.630135 -0.648934,0.906078 2.642296,1.539832 1.792358,0.345133 3.417371,0.686891 3.611139,0.759459 0.201815,0.07559 0.299612,1.067354 0.228947,2.32179 -0.09465,1.680204 -0.320124,2.423683 -0.968843,3.194639 -0.465016,0.552638 -0.845482,0.879691 -0.845482,0.726783 0,-0.152912 -0.792689,0.502751 -1.761531,1.457026 -1.094841,1.078377 -1.761531,2.040067 -1.761531,2.540976 0,0.949681 0.570792,1.036246 1.469561,0.222869 0.605058,-0.547568 0.644276,-0.537256 0.644276,0.169442 0,0.511274 0.285798,0.824235 0.891529,0.976262 1.00081,0.251187 0.99276,0.332063 -0.371257,3.729196 -0.442081,1.101014 -1.374142,2.748824 -2.07125,3.661801 -0.849351,1.112358 -1.261377,2.020962 -1.248993,2.754288 l 0.01846,1.094333 0.598057,-0.86539 c 1.545501,-2.236352 4.390817,-5.676168 4.557381,-5.509601 0.211292,0.211292 -1.868344,5.18823 -3.663604,8.767648 -1.189119,2.370883 -1.290991,3.541787 -0.231663,2.662621 0.291382,-0.241823 1.565776,-2.508688 2.831982,-5.037468 2.206624,-4.406911 3.840082,-7.412147 6.870324,-12.640015 1.382185,-2.384592 2.025898,-2.944713 1.354392,-1.178514 -0.266072,0.699818 -0.223641,1.042985 0.178697,1.445322 0.468613,0.468613 0.427069,0.726026 -0.37149,2.301906 -0.494507,0.975863 -1.032,1.774295 -1.194427,1.774295 -0.925819,0 -8.568317,13.555849 -9.004282,15.971303 -0.177019,0.98076 -0.383837,1.296846 -0.755281,1.154313 -0.682579,-0.261932 -2.382161,2.113785 -3.338295,4.666349 -1.149797,3.069596 -1.681935,5.980976 -2.456293,13.438666 -0.392335,3.77848 -0.795818,7.58339 -0.896623,8.45535 -0.176276,1.52471 0.253816,2.88164 0.754622,2.38083 0.484383,-0.48438 2.307536,-8.67535 2.984601,-13.40905 0.650167,-4.54564 0.819451,-5.1087 2.595018,-8.6315 1.044714,-2.072763 2.495941,-5.195493 3.224954,-6.939409 1.30372,-3.118717 2.765079,-5.615715 3.779101,-6.457276 0.980905,-0.814081 0.986292,0.955292 0.0088,2.884317 -0.85949,1.696122 -2.578318,5.991055 -2.578318,6.442589 0,0.116187 0.237807,0.01388 0.528459,-0.227333 0.290653,-0.241221 0.523418,-0.300267 0.517256,-0.131213 -0.01821,0.499436 -0.921499,1.54722 -1.142945,1.325774 -0.239871,-0.239871 -0.471371,0.532201 -2.586093,8.624931 -1.143332,4.37535 -1.491023,6.22854 -1.219519,6.50005 0.567287,0.56729 0.86469,0.0193 1.591297,-2.9319 0.70098,-2.84715 2.428243,-7.17053 3.659564,-9.15996 1.054353,-1.703517 0.956472,-0.97213 -0.260214,1.94435 -1.764906,4.23062 -3.74876,14.79395 -3.097247,16.49176 0.167824,0.43735 0.737415,0.29881 3.308,-0.80459 4.616822,-1.98172 4.690648,-1.99622 4.690648,-0.92072 0,0.78756 0.148049,0.90328 1.144995,0.89498 0.629747,-0.005 2.244113,-0.4783 3.587474,-1.05123 1.343368,-0.57293 2.499928,-0.98424 2.570138,-0.91403 0.0702,0.0702 -0.55329,0.52762 -1.38556,1.01647 -2.152891,1.26454 -9.838025,7.19942 -9.766169,7.54197 0.03305,0.15747 0.446481,0.44486 0.918772,0.63863 0.785073,0.32209 0.62081,0.43671 -1.915482,1.33655 l -2.774193,0.98424 -0.593815,3.09767 c -0.890472,4.64518 -0.855382,4.85198 1.151421,6.78629 2.232226,2.15158 4.566082,2.91794 7.414725,2.43475 1.065726,-0.18077 4.054985,-1.21018 6.642801,-2.28757 2.58784,-1.07739 4.78183,-1.9589 4.87556,-1.9589 0.0937,0 -0.24002,0.48778 -0.74167,1.08395 -0.50165,0.59617 -0.91208,1.21183 -0.91208,1.36813 0,0.97346 1.98266,0.22698 8.46494,-3.18705 6.28742,-3.31142 7.27209,-3.9441 7.6758,-4.93202 0.35473,-0.86807 0.36508,-1.19389 0.0442,-1.39219 -0.30619,-0.18924 0.15722,-2.2839 1.72242,-7.78558 6.35264,-22.329569 12.55973,-49.114277 15.72313,-67.848196 1.94986,-11.547179 2.38691,-15.631411 2.61191,-24.408142 0.19879,-7.754739 0.27034,-8.515198 0.7044,-7.486508 0.58797,1.393475 0.85921,1.430186 1.42309,0.192604 0.65163,-1.430181 0.84167,-3.960415 0.43122,-5.741427 -0.32226,-1.398344 -0.26477,-1.793194 0.48731,-3.346909 l 0.85268,-1.761531 -0.15321,1.585378 c -0.5039,5.214156 -0.55607,6.341211 -0.29343,6.33854 0.16075,-0.0016 0.83647,-1.027532 1.5016,-2.279771 0.66513,-1.25224 1.8784,-2.933456 2.69617,-3.736037 l 1.48686,-1.459237 0.63218,1.008635 c 0.3477,0.554749 0.66012,1.054656 0.69428,1.110904 0.0341,0.05625 0.86207,0.228726 1.8398,0.383285 1.60245,0.253313 1.81287,0.208502 2.13452,-0.454575 0.30226,-0.623115 0.36047,-0.506646 0.38067,0.76171 0.0131,0.823516 0.18958,1.497302 0.39216,1.497302 0.45622,0 1.9356,-1.451019 2.15721,-2.115852 0.12866,-0.385986 0.39519,-0.325447 1.25143,0.284247 0.59837,0.426077 1.15728,0.774686 1.24202,0.774686 0.0847,0 0.36001,-0.673786 0.61169,-1.497301 0.25168,-0.823516 0.52715,-1.259495 0.61214,-0.968843 0.44919,1.536135 0.5137,1.571976 0.9513,0.52846 0.39505,-0.942041 0.46606,-0.980334 0.6533,-0.352306 0.11553,0.387536 0.55833,1.893646 0.98398,3.346909 0.90279,3.082287 1.00878,2.960954 1.91193,-2.188688 0.47552,-2.711342 0.78572,-3.607368 1.4941,-4.3157512 1.55181,-1.55181 2.8022,-1.1004601 4.11138,1.4840752 0.57321,1.131598 0.5703,1.144995 -0.24841,1.144995 -1.22806,0 -2.41441,1.470263 -2.61184,3.236897 -0.0934,0.83558 0.0835,3.586622 0.39311,6.113427 1.10086,8.984974 0.63933,18.579537 -1.26796,26.358805 -0.67165,2.739481 -0.82133,3.043954 -1.22504,2.491862 -0.25293,-0.345915 -0.51308,-0.561245 -0.5781,-0.478506 -0.065,0.08274 -0.56998,2.035344 -1.12215,4.339124 -0.73175,3.053029 -1.16316,4.230324 -1.59117,4.342248 -0.82605,0.21602 -2.11592,4.108778 -2.1116,6.372691 0.003,1.41631 -0.20952,2.181879 -0.8772,3.164464 -0.57137,0.840839 -0.88077,1.081792 -0.88077,0.685919 0,-1.517499 -0.76138,-0.345253 -1.60586,2.47244 -0.50815,1.695473 -1.46447,4.838006 -2.12516,6.98341 -0.6607,2.145401 -1.20126,4.063694 -1.20126,4.26287 0,0.2266 2.34053,0.43971 6.25343,0.569384 7.06923,0.234273 11.35837,0.886194 14.74171,2.240635 6.78188,2.714974 13.08297,9.03669 16.67808,16.732674 2.23097,4.77579 2.65371,6.79594 2.64357,12.63277 -0.0109,6.2555 -0.4026,7.55495 -4.25163,14.10291 -2.44396,4.15768 -2.93131,4.75505 -6.06183,7.43036 -1.87232,1.60006 -3.78631,3.23591 -4.25332,3.63522 -0.72683,0.62148 -0.8172,0.63724 -0.62759,0.10949 0.27242,-0.75823 -0.009,-0.76946 -1.68911,-0.0674 -1.73787,0.72612 -1.90447,0.46035 -0.36756,-0.58635 1.30321,-0.88754 1.47399,-1.18786 0.88315,-1.55302 -0.19812,-0.12245 -6.03705,2.71041 -12.97538,6.29523 -11.68354,6.03653 -12.72086,6.50369 -14.0465,6.32589 -0.97665,-0.131 -2.1988,0.0617 -3.84724,0.60661 -3.98363,1.31683 -12.55541,4.97564 -13.72074,5.85661 -0.59838,0.45237 -1.19082,0.71963 -1.31653,0.59392 -0.12571,-0.12571 -0.47209,0.35429 -0.76974,1.06667 -0.46556,1.11426 -0.63526,1.24487 -1.21453,0.93486 -1.03877,-0.55593 -1.52449,-0.44735 -3.32061,0.74236 -1.99822,1.32356 -3.56124,3.86653 -3.8873,6.32445 -0.23508,1.77218 -0.46613,2.03593 -1.16836,1.3337 -0.72345,-0.72345 -1.3791,-0.0508 -2.41684,2.47947 -1.32572,3.23245 -1.90498,3.2631 -1.90498,0.10078 z m 21.22762,-23.01277 c 1.78294,-0.90959 4.45806,-2.84155 4.47699,-3.23328 0.008,-0.15631 -0.33861,-0.0374 -0.76926,0.26423 -1.26167,0.88371 -1.81271,0.62945 -0.73394,-0.33865 l 0.98848,-0.88708 -1.05691,0.22049 c -0.99864,0.20834 -1.01807,0.19184 -0.35231,-0.29917 0.38754,-0.28581 3.47902,-2.10138 6.86997,-4.03459 3.39095,-1.93322 7.19586,-4.10365 8.45535,-4.82318 l 2.28999,-1.30825 -1.58538,0.23414 -1.58538,0.23415 4.05153,-2.86743 c 4.05109,-2.86712 6.15449,-4.81039 6.92996,-6.4024 2.18637,-4.48852 2.27507,-4.86725 1.65632,-7.07246 -0.62208,-2.21708 -0.78056,-2.27607 -1.42528,-0.53057 -0.33931,0.91863 -0.41839,0.97868 -0.44038,0.33442 -0.0433,-1.26815 -1.50184,-5.38099 -1.83522,-5.17495 -0.16798,0.10383 -0.30621,0.53612 -0.30717,0.96067 -0.002,0.71605 -0.0633,0.69543 -0.8527,-0.28503 -0.64872,-0.80573 -0.73203,-1.08399 -0.35056,-1.17082 0.27522,-0.0627 0.50039,-0.23921 0.50039,-0.39235 0,-0.58982 -1.79023,-2.02874 -3.0667,-2.4649 -1.93705,-0.66187 -10.61122,-0.88671 -11.70234,-0.30333 -1.33925,0.71605 -1.25945,1.24535 0.2256,1.49625 2.25197,0.38046 2.52922,0.80683 0.70274,1.08073 -0.89595,0.13436 -1.8553,0.42553 -2.13189,0.64705 -0.50173,0.40182 -4.57909,12.20502 -4.21617,12.20502 0.10521,0 1.11377,-0.56038 2.24124,-1.24528 1.48188,-0.90019 2.2887,-1.18536 2.91149,-1.02905 0.77559,0.19467 0.8252,0.31252 0.49721,1.18147 -0.26278,0.69616 -0.81601,1.12623 -1.98464,1.54279 -2.20876,0.78733 -4.96722,2.58745 -4.96722,3.24153 0,0.66747 0.18208,0.66921 1.35487,0.0129 1.54886,-0.86672 6.49497,-3.01812 6.62947,-2.88362 0.069,0.069 -1.76839,1.37629 -4.08301,2.90517 l -4.20841,2.77978 -0.75924,2.29596 c -0.41758,1.26278 -0.81918,2.59511 -0.89244,2.96075 -0.0733,0.36563 -0.37593,0.93299 -0.6726,1.26081 -0.55095,0.60879 -0.72594,1.42131 -0.30612,1.42131 0.12831,0 0.93344,-0.41032 1.7892,-0.91183 0.85575,-0.5015 1.62517,-0.84256 1.70983,-0.7579 0.0847,0.0847 -0.64121,0.89768 -1.61303,1.80671 -1.04674,0.9791 -1.76697,1.95752 -1.76697,2.4004 0,0.41119 -0.39654,1.42428 -0.88122,2.25131 -0.8477,1.44651 -0.85486,1.50798 -0.18823,1.61633 0.65155,0.10591 0.63051,0.21266 -0.35185,1.78506 -1.4791,2.36751 -1.44335,2.42415 0.80594,1.27666 z m -63.152063,-9.49609 c 0,-1.34792 -0.829871,-1.22697 -0.992242,0.1446 -0.079,0.66736 0.04928,0.94167 0.440383,0.94167 0.381621,0 0.551859,-0.33509 0.551859,-1.08627 z m 0.352306,-2.61294 c 0,-0.54804 -0.199641,-0.88077 -0.528459,-0.88077 -0.328818,0 -0.528459,0.33273 -0.528459,0.88077 0,0.54803 0.199641,0.88076 0.528459,0.88076 0.328818,0 0.528459,-0.33273 0.528459,-0.88076 z m 61.450067,-0.91509 c 0.72164,-1.80357 0.70123,-1.96801 -0.14878,-1.19875 -0.38754,0.35072 -0.70461,0.8509 -0.70461,1.11152 0,0.26062 -0.14869,0.47386 -0.33042,0.47386 -0.18172,0 -0.30783,0.29966 -0.28024,0.6659 0.0781,1.03645 0.85036,0.48124 1.46405,-1.05253 z m 48.79413,-3.79155 c -0.51873,-0.17291 -4.20002,3.46977 -4.20002,4.15597 0,0.29364 1.02541,-0.48599 2.29767,-1.74694 1.26373,-1.25249 2.11978,-2.33655 1.90235,-2.40903 z m -108.268819,2.56399 c -0.117618,-0.3065 -0.213846,-0.62358 -0.213846,-0.70462 0,-0.081 -0.237807,-0.14733 -0.52846,-0.14733 -0.637036,0 -0.681082,0.41106 -0.105692,0.98645 0.602032,0.60203 1.100306,0.523 0.847998,-0.1345 z m -34.498644,-3.87308 c 3.622075,-1.29315 4.809622,-1.57335 6.005152,-1.41694 1.766537,0.23112 3.832471,-0.78988 4.349403,-2.14951 0.17726,-0.46623 0.567361,-3.65345 0.866896,-7.08271 1.311375,-15.01344 3.825122,-25.264225 8.470199,-34.540554 2.045909,-4.085723 2.126901,-4.339024 1.33925,-4.188452 -0.578262,0.110539 -0.838352,-0.0018 -0.838352,-0.362485 0,-0.446622 -0.08656,-0.452333 -0.594421,-0.03922 -0.523263,0.425635 -0.565438,0.406265 -0.352307,-0.161832 0.133165,-0.354942 0.242116,-0.857595 0.242116,-1.117001 0,-0.25941 0.46466,-0.57371 1.032574,-0.698444 1.220005,-0.267957 1.539829,-0.620179 2.164207,-2.383415 0.351182,-0.991735 0.663685,-1.321148 1.253319,-1.321148 0.510058,0 0.824963,0.244592 0.898067,0.697552 0.08684,0.538046 0.656361,0.01649 2.490646,-2.280933 1.307937,-1.638167 2.378068,-3.06183 2.378068,-3.163696 0,-0.101865 -0.80965,-0.185211 -1.799225,-0.185211 -1.454567,0 -1.760379,0.101232 -1.596433,0.52846 0.241213,0.628599 0.06688,0.657227 -0.888517,0.145914 -0.632002,-0.338235 -0.687775,-0.297431 -0.481556,0.352307 0.275848,0.869125 -0.05089,0.911786 -2.555461,0.333662 -1.594066,-0.367956 -1.905085,-0.324717 -3.754443,0.521945 -3.174864,1.453503 -8.557152,5.372205 -11.795121,8.587722 l -2.965456,2.944892 0.80931,0.566861 c 0.798689,0.559423 0.800257,0.574273 0.119422,1.131364 -0.379438,0.310477 -2.104318,2.576677 -3.83306,5.036003 -1.728746,2.45933 -3.196443,4.320881 -3.261549,4.136783 -0.06511,-0.184097 0.547304,-1.562122 1.360913,-3.062281 2.018764,-3.722263 1.061421,-2.637149 -3.033004,3.437805 -3.612601,5.360064 -5.555563,9.088472 -5.966843,11.449952 -0.134988,0.77508 -0.801039,3.06059 -1.480114,5.07892 -1.646235,4.8929 -2.24295,8.4233 -1.841075,10.89252 0.636605,3.91145 2.104101,7.12585 4.022005,8.80979 1.841585,1.61693 3.571324,1.52354 9.23539,-0.49862 z m 97.252863,-4.09384 c 0.56964,-0.69676 4.13006,-12.92398 3.84602,-13.20802 -0.65893,-0.65894 -1.73116,1.62761 -3.4174,7.28765 -1.01023,3.39095 -1.91901,6.38198 -2.01951,6.64673 -0.14383,0.37888 -0.0339,0.40173 0.5162,0.10731 0.38441,-0.20573 0.86802,-0.58088 1.07469,-0.83367 z m -56.81534,-6.91722 c 0.666479,-3.16834 0.671626,-3.58313 0.04446,-3.58313 -0.344213,0 -0.621507,0.78388 -0.903542,2.55422 -0.223802,1.40482 -0.476448,2.7667 -0.561435,3.0264 -0.206874,0.63216 0.203157,1.25104 0.579509,0.87469 0.164949,-0.16495 0.5434,-1.45743 0.841004,-2.87218 z m 103.94297,-4.74574 c 0,-3.35042 -0.081,-3.76633 -1.19726,-6.14798 -1.20603,-2.57318 -2.14834,-3.82669 -2.15097,-2.86135 -7e-4,0.26594 -0.33358,-0.0714 -0.73969,-0.74955 -0.97302,-1.62491 -2.58236,-3.3021 -4.59078,-4.784343 -2.70668,-1.997559 -2.51791,-1.37051 0.51936,1.725243 4.62175,4.71076 6.8808,9.1836 7.19686,14.24947 0.26568,4.25856 0.96248,3.22221 0.96248,-1.43149 z m -42.4529,-2.85955 c 0,-0.2745 0.17408,-0.55713 0.38684,-0.62805 0.21277,-0.0709 0.33167,-0.4963 0.26423,-0.94529 l -0.12261,-0.81635 -0.96884,0.76535 c -1.15254,0.91047 -1.30348,2.12344 -0.26423,2.12344 0.38754,0 0.70461,-0.22459 0.70461,-0.4991 z m 6.53608,-28.213857 c 0.13076,-0.871958 0.38832,-1.585378 0.57237,-1.585378 0.4929,0 0.1896,-2.210855 -0.32655,-2.380293 -0.29597,-0.09716 -0.44039,0.259815 -0.44039,1.088503 0,0.678189 -0.15109,1.285917 -0.33575,1.350509 -0.18467,0.06459 -0.44274,0.79122 -0.57349,1.614736 -0.19457,1.225497 -0.13755,1.497301 0.31417,1.497301 0.38401,0 0.62422,-0.482272 0.78964,-1.585378 z m 1.31665,0.528812 c 0.22193,-0.848688 -0.40809,-1.344873 -0.8406,-0.662026 -0.46008,0.726389 -0.3809,1.366286 0.16906,1.366286 0.26805,0 0.57025,-0.316917 0.67154,-0.70426 z M 82.640022,72.341337 c 1.020909,-0.258927 1.801021,-0.636324 1.733575,-0.838657 -0.06745,-0.202333 0.325933,-1.357155 0.874171,-2.56627 0.548238,-1.209114 0.996797,-2.413082 0.996797,-2.675483 0,-0.547386 -5.683358,-1.676932 -9.653219,-1.918537 -2.274622,-0.138435 -5.495949,0.416194 -5.495949,0.946259 0,0.129832 0.18965,0.42571 0.421447,0.657506 0.32706,0.32706 0.268006,0.533649 -0.263673,0.922422 -0.818394,0.598424 -0.476938,1.124516 0.408312,0.629106 0.681635,-0.381463 2.609282,0.15919 4.13734,1.160413 0.868097,0.568798 0.887671,0.55807 1.789497,-0.980779 0.501491,-0.855727 1.248528,-1.856597 1.660088,-2.224158 0.744131,-0.66458 0.746763,-0.6634 0.473845,0.212472 -0.150945,0.484421 -0.647627,1.472133 -1.10374,2.194914 -0.989515,1.568037 -1.004929,1.680455 -0.230377,1.680455 0.465827,0 0.504972,0.09395 0.176154,0.422767 -0.683492,0.683492 -0.487835,1.016213 0.457998,0.778822 0.925025,-0.232166 1.025119,-0.05422 0.888012,1.57866 -0.04827,0.574918 0.07923,0.786707 0.401386,0.666718 0.259675,-0.09672 1.307423,-0.387699 2.328336,-0.64663 z"
     id="path883"
     inkscape:connector-curvature="0" /><path
     style="opacity:1;fill:#dedbe3;fill-opacity:1;stroke-width:0.35230622"
     d="m 51.013942,83.308354 c 0,-0.742482 3.582461,-3.3254 6.869972,-4.953181 2.434039,-1.205192 4.122025,-1.803711 5.460746,-1.936251 l 1.937685,-0.191839 -1.819878,0.67692 c -2.832402,1.053538 -7.469883,3.477822 -9.911184,5.181157 -2.359388,1.646185 -2.537341,1.731972 -2.537341,1.223194 z"
     id="path885"
     inkscape:connector-curvature="0" /><path
     style="opacity:1;fill:#dedbe3;fill-opacity:1;stroke-width:0.35230622"
     d="m 80.185882,54.495608 c -0.980064,-2.212145 -1.07639,-6.247833 -0.181719,-7.613274 0.811422,-1.238386 2.114617,-1.543275 3.293851,-0.770611 0.921657,0.603893 0.923144,0.612571 0.677789,3.95507 -0.29976,4.083663 -0.565144,4.837365 -1.956642,5.556937 l -1.08492,0.561033 z"
     id="path887"
     inkscape:connector-curvature="0" /><path
     style="opacity:1;fill:#dedbe3;fill-opacity:1;stroke-width:0.35230622"
     d="m 100.03237,63.487217 c -4.200692,-1.858865 -4.715595,-2.567241 -4.392552,-6.043051 0.245839,-2.645134 -0.05865,-3.198515 -1.553512,-2.823329 -0.437589,0.109827 -1.193419,0.09984 -1.679624,-0.02219 -0.97429,-0.244531 -2.991361,-2.772843 -2.991361,-3.749542 0,-0.34602 0.725126,-1.098856 1.645779,-1.708672 2.183078,-1.44601 3.731508,-1.441404 6.079333,0.01808 1.685134,1.047536 1.918932,1.096782 4.270917,0.8996 2.47246,-0.207281 2.49694,-0.200702 3.87054,1.040266 1.47205,1.329913 3.86258,5.67019 3.86258,7.012963 0,0.44352 -0.42407,1.333812 -0.94238,1.978426 -1.24922,1.55364 -4.4446,4.873081 -4.68248,4.864278 -0.10351,-0.0038 -1.67276,-0.663907 -3.48724,-1.466838 z"
     id="path889"
     inkscape:connector-curvature="0" /><path
     style="opacity:1;fill:#dedbe3;fill-opacity:1;stroke-width:0.35230622"
     d="m 189.52339,88.221908 c -2.37687,-0.576706 -4.99286,-4.202328 -3.45727,-4.79159 0.39582,-0.15189 0.51651,-1.500103 0.27017,-3.018209 -0.0881,-0.543213 -1.24743,-0.624291 -1.79829,-0.125769 -0.949,0.858836 -1.76153,0.305181 -1.76153,-1.200304 0,-2.20004 1.75683,-3.013048 2.54503,-1.177763 0.22885,0.532863 0.44106,1.012697 0.47157,1.066297 0.0305,0.0536 0.88862,-0.463208 1.9069,-1.148462 2.509,-1.688432 3.26148,-1.831795 4.60252,-0.876887 0.92328,0.657432 1.2252,0.716465 1.87787,0.367169 1.67555,-0.896728 3.74528,0.855026 3.74528,3.16989 0,1.9496 -1.91258,3.207302 -3.08874,2.031139 -0.31342,-0.31342 -0.46823,-0.25058 -0.65094,0.264229 -0.13184,0.371496 -0.47482,1.23033 -0.76218,1.90852 -0.28735,0.678189 -0.62253,1.787954 -0.74484,2.466143 -0.24667,1.367707 -0.94228,1.602608 -3.15555,1.065597 z"
     id="path891"
     inkscape:connector-curvature="0" /><path
     style="opacity:1;fill:#dedbe3;fill-opacity:1;stroke-width:0.35230622"
     d=""
     id="path893"
     inkscape:connector-curvature="0" /><path
     style="opacity:1;fill:#dedbe3;fill-opacity:1;stroke-width:0.35230622"
     d=""
     id="path895"
     inkscape:connector-curvature="0" /><path
     style="opacity:1;fill:#dedbe3;fill-opacity:1;stroke-width:0.35230622"
     d="m 28.466343,155.29674 c -1.523405,-0.6569 -6.765852,-4.0661 -6.5636,-4.26835 0.08112,-0.0811 2.05972,0.81109 4.396898,1.98269 3.774182,1.89194 5.337459,2.31739 5.337459,1.45263 0,-0.143 -0.318048,-0.54784 -0.706773,-0.89963 -1.06737,-0.96596 -0.647318,-0.98408 1.350926,-0.0583 l 1.803479,0.83557 -0.80614,0.75733 c -0.964407,0.90601 -2.978215,0.98889 -4.812249,0.19804 z"
     id="path897"
     inkscape:connector-curvature="0" /><path
     style="opacity:1;fill:#dedbe3;fill-opacity:1;stroke-width:0.35230622"
     d="m 27.992715,149.47347 c -1.538655,-0.81172 -1.548767,-1.23166 -0.01562,-0.64847 0.562219,0.21385 2.465029,0.33846 4.251509,0.27842 1.778593,-0.0598 3.326441,-0.0161 3.439661,0.0971 0.177935,0.17794 -4.995708,1.04769 -5.968855,1.00344 -0.193768,-0.009 -0.961783,-0.33756 -1.7067,-0.73054 z"
     id="path899"
     inkscape:connector-curvature="0" /><path
     style="opacity:1;fill:#dedbe3;fill-opacity:1;stroke-width:0.35230622"
     d="m 36.74554,153.15914 c -0.387537,-0.082 -1.067807,-0.22674 -1.51171,-0.32176 -1.211603,-0.25935 -0.569427,-0.85727 0.915966,-0.85284 2.360634,0.007 3.904526,0.39015 3.701746,0.91859 -0.180175,0.46953 -1.558911,0.58317 -3.106002,0.25601 z"
     id="path901"
     inkscape:connector-curvature="0" /><path
     style="opacity:1;fill:#dedbe3;fill-opacity:1;stroke-width:0.35230622"
     d=""
     id="path903"
     inkscape:connector-curvature="0" /><path
     style="opacity:1;fill:#dedbe3;fill-opacity:1;stroke-width:0.35230622"
     d="m 50.379791,156.13787 c -0.232522,-0.23252 -0.422767,-0.61988 -0.422767,-0.86079 0,-0.59541 1.402501,-1.53613 2.280304,-1.5295 0.504052,0.004 0.581164,0.0899 0.261983,0.2924 -0.656806,0.41675 -0.130137,1.45884 0.754238,1.49235 0.641593,0.0243 0.596243,0.10131 -0.301922,0.51257 -1.325665,0.60701 -2.032251,0.63256 -2.571836,0.093 z"
     id="path905"
     inkscape:connector-curvature="0" /><path
     style="opacity:1;fill:#dedbe3;fill-opacity:1;stroke-width:0.35230622"
     d="m 100.45734,123.95439 c -0.26447,-0.6892 1.30551,-2.46261 1.66507,-1.88083 0.26083,0.42203 -0.71206,2.4212 -1.18012,2.42498 -0.1514,10e-4 -0.36963,-0.24364 -0.48495,-0.54415 z"
     id="path907"
     inkscape:connector-curvature="0" /><path
     style="opacity:1;fill:#dedbe3;fill-opacity:1;stroke-width:0.35230622"
     d="m 227.69552,157.73714 c -2.73087,-0.58519 -6.31221,-2.51999 -9.36281,-5.05821 -1.44,-1.19814 -3.34897,-1.87369 -5.43405,-1.92301 -0.19377,-0.005 -0.43158,0.70509 -0.52846,1.57704 l -0.17616,1.58538 -2.39076,-3.06149 c -1.57242,-2.01356 -2.57769,-3.69093 -2.93685,-4.90037 -0.30035,-1.01138 -0.83453,-2.09105 -1.18707,-2.39926 -0.46568,-0.40712 -0.78796,-1.60964 -1.17845,-4.39714 -0.48087,-3.43265 -0.48109,-3.92281 -0.002,-4.65373 0.49535,-0.756 0.44861,-1.03494 -0.62626,-3.73782 -1.13352,-2.85036 -1.16624,-3.08239 -1.35575,-9.61467 -0.16997,-5.85896 -0.0952,-7.30897 0.5992,-11.6261 1.47845,-9.19111 4.88137,-20.702991 8.01893,-27.127583 3.73356,-7.64496 14.02605,-18.337811 18.6745,-19.4009 0.8185,-0.187187 0.46926,0.175896 -1.54812,1.609495 -5.12595,3.642624 -12.84314,11.862069 -12.04274,12.8265 0.24165,0.291161 0.0398,0.886776 -0.65749,1.940016 -1.66014,2.507658 -2.3215,4.211265 -1.8269,4.705873 0.33119,0.331184 0.62648,0.154301 1.34285,-0.804374 2.17221,-2.906961 10.09092,-10.289731 14.81935,-13.816383 3.41424,-2.54647 4.82245,-3.786514 4.40383,-3.877927 -0.38612,-0.08432 0.48141,-0.692994 2.32848,-1.633711 2.40737,-1.226075 3.33838,-1.511938 5.10844,-1.568527 1.74349,-0.05574 2.76018,-0.35972 5.22643,-1.56266 1.68403,-0.821403 3.17267,-1.49346 3.30807,-1.49346 0.13541,0 0.44232,0.268225 0.68204,0.596055 0.39262,0.53694 0.71094,0.55418 3.2096,0.173825 3.79146,-0.57715 4.71654,-0.529406 5.9445,0.306798 2.38429,1.623625 3.72505,2.158916 4.27152,1.705381 0.43134,-0.357979 0.95994,0.03871 3.14105,2.35721 1.44233,1.533192 3.21824,3.560859 3.94644,4.505928 0.72821,0.945069 2.14769,2.609716 3.1544,3.699216 1.44701,1.56599 1.92123,1.89041 2.26406,1.54885 0.34325,-0.341987 0.31831,-0.562324 -0.11962,-1.056919 -0.3043,-0.343673 -0.55025,-1.060839 -0.54655,-1.593702 0.008,-1.188474 0.81608,-1.265704 2.977,-0.284601 1.46332,0.664375 1.47616,0.66401 1.95392,-0.05554 0.47382,-0.713601 0.49069,-0.709279 1.14136,0.292338 0.36323,0.559156 1.25294,1.730069 1.97712,2.602027 0.72418,0.871958 1.58403,2.219529 1.91078,2.994603 1.63935,3.888634 2.99378,8.106183 2.99378,9.322276 0,1.082777 0.21838,1.544178 1.06999,2.260763 2.87854,2.422134 2.76987,5.403102 -0.51871,14.228323 -0.8474,2.27407 -2.05418,5.87043 -2.68173,7.99192 -0.99106,3.35034 -1.37767,4.13745 -2.94177,5.98921 -0.99041,1.17257 -2.15923,2.60756 -2.59737,3.18886 l -0.79662,1.05692 0.21978,-0.96884 c 0.40419,-1.78178 -0.39035,-0.99712 -2.31881,2.28999 -1.05153,1.79236 -2.83124,4.2738 -3.9549,5.51431 -1.17834,1.30087 -2.82485,3.7393 -3.89025,5.76134 -2.05903,3.90788 -6.01226,8.92423 -9.47055,12.01743 -5.61885,5.02567 -15.91243,11.49716 -18.28741,11.49716 -0.56681,0 -1.74577,-0.19129 -2.61991,-0.42508 -1.36385,-0.36478 -2.15526,-0.31479 -5.5782,0.35231 -3.81056,0.74264 -5.5613,0.87673 -7.11097,0.54466 z m 8.54234,-23.7802 c 8.56116,-4.02914 18.30453,-17.06835 19.34048,-25.88269 0.14488,-1.23266 0.5668,-2.51238 1.07548,-3.26195 1.10209,-1.62403 0.9393,-2.15505 -0.86188,-2.81141 -1.25925,-0.45889 -1.4973,-0.69751 -1.4973,-1.50093 0,-1.631464 -0.39141,-2.118263 -2.50804,-3.119271 -1.12729,-0.53312 -1.94895,-1.069979 -1.82591,-1.193018 0.56054,-0.560537 2.90182,-0.172521 4.17585,0.692056 1.29219,0.876908 1.36953,0.888295 1.82282,0.268377 0.40182,-0.549521 0.39074,-0.707819 -0.0733,-1.047153 -0.33018,-0.241436 -0.45438,-0.640377 -0.31359,-1.007283 0.16067,-0.418687 -0.0742,-0.852595 -0.75574,-1.396009 l -0.98886,-0.788495 1.52253,-0.850666 c 2.04035,-1.139979 2.44931,-1.835031 1.61933,-2.752151 -0.63441,-0.70101 -0.62672,-0.70714 0.63134,-0.502985 0.70047,0.11367 1.27358,0.112167 1.27358,-0.0033 0,-0.115508 -0.47561,-0.959979 -1.05692,-1.876602 -0.58131,-0.916623 -1.05692,-1.873356 -1.05692,-2.126073 0,-1.070621 -1.37754,-0.211242 -5.86719,3.660244 -2.38035,2.052604 -2.8277,2.272501 -2.19057,1.076789 1.02115,-1.916405 -0.89385,0.363378 -3.19149,3.79942 -3.98077,5.953116 -7.60998,13.3445 -9.20707,18.75144 -0.39192,1.32684 -0.50803,1.44432 -1.00302,1.01481 -0.30789,-0.26716 -0.76221,-0.41254 -1.0096,-0.32306 -1.33595,0.48318 -3.60172,8.08891 -3.60172,12.09028 0,2.3042 0.57641,6.05292 1.40231,9.12012 0.4557,1.69233 0.48532,1.69211 4.14543,-0.0304 z"
     id="path4600"
     inkscape:connector-curvature="0" /><path
     style="opacity:1;fill:#dedbe3;fill-opacity:1;stroke-width:0.35230622"
     d="m 355.08874,171.35344 c -0.85298,-2.12922 -1.69236,-3.87131 -1.86528,-3.87131 -0.17293,0 -1.36124,0.26295 -2.64068,0.58434 -2.23568,0.56158 -2.3451,0.55858 -2.80999,-0.0772 -1.1452,-1.56616 -1.35041,-3.45415 -1.29009,-11.86902 0.033,-4.602 -0.0209,-8.36728 -0.11968,-8.36728 -0.0988,0 -0.44289,0.29029 -0.7646,0.64508 -0.88457,0.97551 -5.71702,3.04206 -10.42583,4.45849 -3.21965,0.96849 -5.26547,1.34536 -8.73733,1.60958 -4.32082,0.32882 -4.6447,0.30626 -6.90926,-0.48128 -3.9537,-1.37496 -9.4412,-4.67296 -11.83568,-7.11328 -3.70068,-3.77152 -6.15507,-8.81078 -7.64881,-15.70427 -0.67725,-3.12549 -0.79751,-4.7467 -0.80814,-10.8942 -0.0165,-9.56597 0.97321,-17.23375 3.04686,-23.604521 2.206,-6.777395 6.90645,-19.657227 8.04712,-22.05015 1.10023,-2.308083 3.41932,-5.660404 4.10257,-5.930392 0.26959,-0.10653 0.5681,0.5507 0.83579,1.840146 l 0.41641,2.005864 1.27805,-1.572565 c 4.35162,-5.354411 4.8257,-5.822716 6.0114,-5.93805 1.51191,-0.147065 1.84682,0.229998 1.98051,2.229808 0.14058,2.10284 1.46684,4.777175 2.7062,5.456902 0.89206,0.489246 1.16404,0.457408 3.61114,-0.422715 l 2.64643,-0.951811 v 1.160174 c 0,0.638095 -0.33528,2.414201 -0.74506,3.946902 -0.40979,1.532701 -0.80637,3.387985 -0.8813,4.122854 -0.0749,0.734869 -0.92028,4.460857 -1.87856,8.279975 -1.15452,4.601189 -1.7377,7.656736 -1.72861,9.056908 0.008,1.162183 -0.24246,3.619171 -0.55557,5.459971 -0.9121,5.36229 -1.08811,11.9424 -0.42127,15.74993 0.89739,5.12402 1.95519,7.90338 5.60406,14.72456 0.34655,0.64785 3.21915,2.28999 4.00588,2.28999 0.18584,0 2.14387,-1.0305 4.35116,-2.28999 2.2073,-1.2595 4.14078,-2.28999 4.29663,-2.28999 0.53369,0 0.28347,0.83523 -0.5001,1.6693 -0.49468,0.52657 -0.64753,0.92451 -0.41469,1.07963 0.20283,0.13512 0.46759,0.51387 0.58837,0.84168 0.12078,0.3278 0.63799,0.87015 1.14937,1.20521 0.7418,0.48605 0.98699,0.51662 1.21282,0.15121 0.46883,-0.75857 1.47416,-6.335 1.36678,-7.58133 -0.0551,-0.63923 0.0656,-1.37815 0.26813,-1.64204 0.20255,-0.26389 0.63853,-2.34228 0.96884,-4.61863 1.43211,-9.86934 7.77215,-30.659541 13.72531,-45.007887 4.36845,-10.528858 4.11958,-9.999735 4.51665,-9.602667 0.23797,0.237972 -0.0475,1.557044 -0.86785,4.009807 -0.67236,2.010347 -1.31444,4.170424 -1.42684,4.800171 -0.18693,1.047333 -0.12728,1.144995 0.69938,1.144995 1.13188,0 2.28615,-1.283688 4.19148,-4.661396 1.19139,-2.112059 1.58127,-2.541351 2.22457,-2.449442 0.59625,0.08519 0.89955,-0.163798 1.28749,-1.056919 0.50745,-1.168286 0.50748,-1.168298 0.52127,-0.199516 0.008,0.532863 0.14776,0.968842 0.31149,0.968842 0.49434,0 1.40383,-1.179566 1.98859,-2.579103 0.31018,-0.742354 0.95065,-1.502048 1.46322,-1.735591 0.82747,-0.377018 1.00654,-0.309071 1.9406,0.736327 0.74066,0.828931 1.22124,1.090663 1.71495,0.933966 0.55148,-0.175031 0.83532,0.08977 1.44803,1.350923 l 0.7621,1.568629 -0.70985,1.00742 c -0.97155,1.378821 -1.24901,2.417863 -0.97671,3.657633 0.28272,1.287208 0.64852,1.308452 2.19672,0.127577 1.762,-1.343943 2.12029,-0.775516 1.40705,2.232281 -0.3115,1.313598 -0.67836,3.721973 -0.81525,5.351946 -0.22373,2.663861 -0.19035,2.941118 0.33003,2.74143 0.31841,-0.122185 0.57731,-0.187497 0.57534,-0.145136 -0.002,0.04236 -1.43284,5.625843 -3.1797,12.407738 -4.7998,18.634462 -5.52425,22.078822 -6.50269,30.916862 -0.29509,2.66541 -0.83049,6.39105 -1.18979,8.2792 -0.3593,1.88814 -0.57882,4.02482 -0.48781,4.74816 l 0.16547,1.31518 -1.60607,-0.0699 c -0.88334,-0.0384 -1.69332,0.0174 -1.79996,0.12399 -0.55803,0.55803 -1.29827,7.83667 -1.14226,11.23166 0.20648,4.49354 0.93974,6.99559 2.58327,8.81479 l 1.24167,1.37437 -0.87341,0.21921 c -1.88755,0.47374 -2.44326,0.0961 -4.30079,-2.92235 -2.33709,-3.79777 -2.44093,-3.89413 -3.32978,-3.08973 -0.90317,0.81736 -0.90637,2.1746 -0.008,3.5306 0.70854,1.06987 0.97857,4.15353 0.43498,4.96762 -0.47773,0.71547 -1.82219,1.21669 -2.68365,1.00047 -0.59903,-0.15034 -0.95469,-0.0342 -1.19155,0.38903 -0.22865,0.40856 -0.41696,0.47499 -0.58334,0.20579 -0.13515,-0.21866 -0.3949,-0.39755 -0.57723,-0.39755 -0.66788,0 -1.74074,1.43461 -1.74074,2.32768 0,0.73273 -0.12467,0.86915 -0.61653,0.67464 -0.3391,-0.1341 -1.1432,-0.33219 -1.78689,-0.44021 l -1.17035,-0.19639 0.72865,1.19521 c 0.99524,1.63248 0.96982,2.7818 -0.0614,2.77652 -0.67885,-0.004 -1.01543,-0.56006 -2.34355,-3.87537 z"
     id="path4602"
     inkscape:connector-curvature="0" /><path
     style="opacity:1;fill:#dedbe3;fill-opacity:1;stroke-width:0.35230622"
     d="m 329.91816,103.18046 c -0.51181,-3.734082 -0.25977,-7.741163 0.68964,-10.964374 0.5058,-1.71715 1.34846,-4.6282 1.87257,-6.469 1.27648,-4.483263 2.80438,-7.841596 3.45416,-7.592252 0.27418,0.105212 0.81767,0.02048 1.20777,-0.188292 0.39009,-0.208773 0.76093,-0.327108 0.82408,-0.262966 0.30931,0.314154 -0.77295,4.513358 -2.48451,9.639945 -2.12481,6.364374 -2.96232,9.597117 -2.97004,11.464213 -0.006,1.524086 -0.84868,4.073346 -1.72309,5.214586 l -0.6406,0.83608 z"
     id="path4604"
     inkscape:connector-curvature="0" /><path
     style="opacity:1;fill:#dedbe3;fill-opacity:1;stroke-width:0.35230622"
     d="m 393.56678,132.51574 c -0.79462,-0.82352 -1.54509,-1.8331 -1.66773,-2.24353 -0.12263,-0.41042 -0.536,-1.02951 -0.91859,-1.37575 -0.86281,-0.78084 -0.93873,-1.74591 -0.11239,-1.42882 0.35005,0.13433 1.12096,-0.14884 1.92819,-0.70825 0.73973,-0.51264 1.57876,-0.84235 1.8645,-0.7327 1.47171,0.56475 2.50412,5.5266 1.47631,7.09525 -0.32113,0.4901 -0.70575,0.8911 -0.85471,0.8911 -0.14896,0 -0.92097,-0.67379 -1.71558,-1.4973 z"
     id="path4606"
     inkscape:connector-curvature="0" /><path
     style="opacity:1;fill:#dedbe3;fill-opacity:1;stroke-width:0.35230622"
     d="m 429.84348,154.73352 c -0.73338,-0.61738 -2.08075,-1.83446 -2.99418,-2.70463 -1.49678,-1.42591 -1.74596,-1.5433 -2.52366,-1.18896 -0.47459,0.21624 -0.96478,0.71417 -1.0893,1.1065 -0.18552,0.58452 -0.42964,0.67608 -1.35171,0.50701 -1.5879,-0.29115 -2.39329,-0.8671 -4.20204,-3.00491 -2.2642,-2.67611 -6.14858,-8.40163 -6.98918,-10.30196 -2.35758,-5.3297 -2.71044,-19.09513 -0.83363,-32.52123 0.27732,-1.98387 1.6145,-8.217368 2.97151,-13.852221 1.35701,-5.634853 2.4673,-10.445866 2.4673,-10.691138 0,-0.346095 -0.49305,-0.374716 -2.20192,-0.127827 -3.3439,0.483114 -5.7056,0.133584 -9.89324,-1.464195 -2.48179,-0.946918 -5.18219,-1.668826 -7.72365,-2.064783 -3.71697,-0.579103 -3.8777,-0.638819 -3.29308,-1.223436 0.90942,-0.909418 2.52424,-0.917359 6.31537,-0.03107 2.80189,0.655036 3.67189,0.303892 2.17138,-0.876404 l -0.93544,-0.735817 0.99839,-0.2211 c 0.54912,-0.121602 1.13412,-0.252473 1.30001,-0.290818 0.16589,-0.03835 -1.16506,-1.465453 -2.95767,-3.171348 -3.18879,-3.034547 -3.29235,-3.098995 -4.78879,-2.979979 -2.14828,0.170862 -2.27023,-0.526796 -0.42136,-2.410655 1.13464,-1.156097 1.76225,-1.523527 2.60239,-1.523527 1.79884,0 3.30766,-0.684514 3.53881,-1.605463 0.30672,-1.222105 0.0658,-1.614933 -1.25877,-2.052568 -1.35789,-0.448637 -1.8517,-1.274257 -0.76214,-1.274257 1.69583,0 4.23026,-0.761946 4.05485,-1.219043 -0.22001,-0.573343 3.56367,-2.702868 4.3002,-2.420234 0.62708,0.240632 1.52965,-0.472633 1.92977,-1.525018 0.39757,-1.04569 1.58623,-1.335068 9.49103,-2.310575 l 6.51766,-0.804326 2.5265,-7.750737 c 1.38957,-4.262905 2.67895,-8.384888 2.86529,-9.159962 0.18633,-0.775074 0.65873,-2.201914 1.04977,-3.170756 0.39105,-0.968842 0.86714,-2.395683 1.05799,-3.170756 0.79354,-3.222641 3.24832,-8.347381 5.03432,-10.509921 0.1331,-0.161172 1.37109,0.512613 2.75108,1.497301 1.37999,0.984688 2.60071,1.790342 2.71273,1.790342 0.11202,0 0.90159,-0.571895 1.7546,-1.270878 l 1.55094,-1.270878 0.3095,0.830495 c 0.17022,0.456772 0.52168,1.425012 0.78104,2.151644 0.25935,0.726631 0.56935,1.321148 0.68889,1.321148 0.11953,0 0.74098,-1.268302 1.38099,-2.81845 0.64002,-1.550147 1.34269,-2.816966 1.5615,-2.815152 0.21881,0.0018 0.77844,1.230482 1.24363,2.730373 1.04452,3.367754 1.73929,14.088572 0.95301,14.705488 -0.24696,0.193768 -0.55987,0.82792 -0.69536,1.409225 -0.13548,0.581305 -1.05157,4.031359 -2.03575,7.666787 -1.47811,5.459936 -1.7114,6.703878 -1.34096,7.150235 0.24666,0.297201 0.66087,0.458857 0.92048,0.359236 0.25961,-0.09962 0.47202,-0.05552 0.47202,0.09801 0,0.153523 5.27138,0.213032 11.71418,0.132241 l 11.71418,-0.146892 -0.86724,0.927608 c -0.82417,0.881541 -0.986,0.915902 -3.25883,0.691944 -1.70481,-0.167987 -2.3916,-0.119249 -2.3916,0.16972 0,0.892342 1.68869,1.230102 4.01086,0.802226 2.83669,-0.522678 3.40874,-0.517749 3.2995,0.02843 -0.0484,0.242211 0.14899,0.387784 0.43873,0.323498 2.42038,-0.537017 8.69056,-1.1007 12.15622,-1.092829 l 4.22767,0.0096 -1.76153,0.706698 c -1.36017,0.545676 -2.2174,0.658989 -3.76229,0.497312 -1.10042,-0.115159 -3.04329,-0.02783 -4.3175,0.194061 -4.13752,0.720519 -3.33497,1.40432 2.70847,2.307718 l 4.09307,0.611847 1.43181,1.950434 c 0.7875,1.072758 1.43182,2.145876 1.43182,2.384726 0,1.005295 1.53935,1.531144 4.48222,1.531144 1.60391,0 2.91378,0.118903 2.91082,0.264229 -0.0121,0.594147 -0.61597,1.099446 -2.37268,1.985493 -1.01728,0.513098 -1.84961,1.038919 -1.84961,1.16849 0,0.129575 0.34669,0.604618 0.77041,1.055651 0.5703,0.607055 0.66755,0.922926 0.37439,1.216083 -0.22708,0.227076 -2.95305,0.563246 -6.39,0.788021 -6.45044,0.421859 -8.05053,0.910377 -5.28072,1.612252 0.84816,0.214928 1.85919,0.532814 2.24673,0.706416 0.61486,0.275433 0.57148,0.318675 -0.3406,0.339483 -1.40134,0.03195 -8.37529,1.794679 -8.81936,2.22915 -0.23,0.225029 0.50384,0.271886 2.11383,0.13498 1.35638,-0.115346 4.76495,-0.310802 7.57459,-0.434352 4.67842,-0.205725 5.06324,-0.177122 4.57152,0.339821 -0.8293,0.871817 -29.76979,4.02506 -45.07586,4.911286 l -7.2114,0.417543 -0.66683,1.761531 c -0.36676,0.968842 -1.68394,4.740241 -2.92706,8.38089 -4.5796,13.411975 -5.58441,19.197155 -5.30595,30.548945 0.13866,5.65262 0.33274,7.83746 0.89301,10.05286 0.75407,2.98167 2.08072,6.83783 2.51789,7.31874 0.22553,0.24809 6.92584,-3.55655 9.58313,-5.4416 l 0.94519,-0.6705 2.09746,2.17691 c 1.1536,1.19731 2.42672,2.20118 2.82915,2.23082 0.40244,0.0297 1.01497,0.30268 1.36118,0.60673 0.58205,0.51116 1.06755,0.31742 6.44254,-2.57095 3.19718,-1.71808 5.97159,-3.11939 6.16536,-3.11401 0.45056,0.0125 -4.14268,4.36931 -7.37998,7.00011 -4.99629,4.06024 -11.01836,7.66433 -16.57685,9.92089 -3.24653,1.31799 -3.79693,1.70831 -3.37385,2.39261 0.52395,0.84746 3.54245,-0.17925 9.81738,-3.33928 3.21429,-1.61871 5.90114,-2.88614 5.97077,-2.81652 0.17324,0.17324 -6.87618,5.35205 -10.12431,7.43777 -3.48427,2.23735 -6.74075,3.69374 -8.2592,3.69374 -0.86713,0 -1.62081,-0.33022 -2.56195,-1.12251 z"
     id="path4608"
     inkscape:connector-curvature="0" /><path
     style="opacity:1;fill:#dedbe3;fill-opacity:1;stroke-width:0.35230622"
     d="m 434.75154,119.48041 c -0.9598,-1.1661 -0.79976,-3.56902 0.59247,-8.89573 l 1.38123,-5.2846 0.0202,2.46615 c 0.0212,2.59324 -0.47283,8.85697 -0.86227,10.93285 -0.24279,1.29421 -0.54034,1.49966 -1.13158,0.78133 z"
     id="path4610"
     inkscape:connector-curvature="0" /><path
     style="opacity:1;fill:#dedbe3;fill-opacity:1;stroke-width:0.35230622"
     d="m 412.94973,45.902205 c -1.06636,-0.308727 -2.93574,-2.109004 -2.93574,-2.827217 0,-0.187709 0.393,-0.734288 0.87333,-1.21462 0.67712,-0.677115 1.09268,-0.82238 1.84961,-0.646556 2.79338,0.648856 4.20067,2.54874 3.11511,4.2055 -0.60318,0.920577 -1.10318,1.003768 -2.90231,0.482893 z"
     id="path4612"
     inkscape:connector-curvature="0" /><path
     style="opacity:1;fill:#dedbe3;fill-opacity:1;stroke-width:0.35230622"
     d="m 411.97907,28.957983 c -0.30572,-0.436476 -0.55585,-1.407629 -0.55585,-2.158119 0,-0.787573 -0.29013,-1.771963 -0.68616,-2.328141 -0.5272,-0.740386 -1.42768,-5.129214 -1.42768,-6.95834 0,-0.04451 -0.43598,0.167623 -0.96884,0.471414 -1.25194,0.713742 -3.45383,0.179231 -4.69101,-1.138741 -1.21606,-1.295482 -1.12206,-3.881448 0.21101,-5.805066 2.02153,-2.9170706 5.22668,-4.1854206 7.54592,-2.986093 0.92685,0.4792925 1.20345,0.446591 3.54982,-0.4196892 l 2.54465,-0.9394833 1.98151,1.0161945 c 1.1845,0.6074593 3.02106,2.0830593 4.56604,3.668627 2.38281,2.445394 2.61446,2.598205 2.9678,1.957714 0.69232,-1.254956 2.64242,-2.984707 3.36492,-2.984707 0.38969,0 1.13032,0.501265 1.64583,1.113921 0.84304,1.001898 0.91298,1.294198 0.69537,2.906527 -0.36328,2.69173 -0.63598,3.025676 -2.47075,3.025676 -1.34402,0 -1.64059,-0.1318 -1.98184,-0.880765 -0.22071,-0.484421 -0.54481,-0.880766 -0.72022,-0.880766 -0.73023,0 -1.71036,0.794799 -2.23772,1.814602 -0.46134,0.892124 -0.49386,1.364485 -0.1798,2.611708 0.52944,2.102601 0.47954,4.087303 -0.12445,4.949619 -0.27932,0.398779 -1.74579,1.526214 -3.25883,2.50541 -2.66215,1.722865 -2.85534,1.78765 -5.98243,2.006224 -3.07983,0.215271 -3.25751,0.188636 -3.78729,-0.567726 z m 12.51605,-8.139597 c -0.45218,-0.45218 -0.91073,-0.102698 -0.57597,0.438968 0.12968,0.20982 0.39718,0.281743 0.59444,0.159828 0.24062,-0.148715 0.23455,-0.345776 -0.0185,-0.598796 z"
     id="path4614"
     inkscape:connector-curvature="0" /><path
     style="opacity:1;fill:#dedbe3;fill-opacity:1;stroke-width:0.35230622"
     d="m 391.18944,31.603137 c -0.14181,-0.369546 0.51824,-2.321504 1.09431,-3.2362 0.0452,-0.07171 0.48584,-0.02906 0.97929,0.09479 0.98575,0.247407 1.11742,0.884018 0.53087,2.566606 -0.29364,0.842321 -0.57019,1.050773 -1.39406,1.050773 -0.56527,0 -1.10996,-0.214185 -1.21041,-0.475967 z"
     id="path4616"
     inkscape:connector-curvature="0" /><path
     style="opacity:1;fill:#dedbe3;fill-opacity:1;stroke-width:0.35230622"
     d="m 426.23937,39.668836 c -0.0106,-0.250027 0.7022,-3.341514 1.58403,-6.869972 2.51354,-10.057412 2.23988,-9.2326 2.81248,-8.476779 0.27174,0.358697 0.49602,0.889983 0.49839,1.180636 0.005,0.671497 -4.86891,14.778296 -4.8949,14.166115 z"
     id="path4618"
     inkscape:connector-curvature="0" /><path
     style="opacity:1;fill:#dedbe3;fill-opacity:1;stroke-width:0.35230622"
     d="m 462.3275,24.791683 c -0.31545,-0.510407 1.0983,-2.665253 2.3188,-3.534323 l 1.03208,-0.734906 v 1.220565 c 0,0.956131 -0.2698,1.457454 -1.24533,2.313981 -1.32377,1.162281 -1.74948,1.310823 -2.10555,0.734683 z"
     id="path4620"
     inkscape:connector-curvature="0" /><path
     style="opacity:1;fill:#dedbe3;fill-opacity:1;stroke-width:0.35230622"
     d="m 488.36444,22.479304 c 0.11761,-0.306501 0.21384,-0.619505 0.21384,-0.695566 0,-0.243026 2.05998,-1.213304 2.57595,-1.213304 0.82036,0 0.27858,1.631991 -0.68799,2.07239 -1.30206,0.59326 -2.36061,0.510906 -2.1018,-0.16352 z"
     id="path4622"
     inkscape:connector-curvature="0" /></svg>