<?xml version="1.0" encoding="UTF-8" standalone="no"?>
<!-- Generator: Adobe Illustrator 16.0.0, SVG Export Plug-In . SVG Version: 6.00 Build 0)  -->

<svg
   xmlns:dc="http://purl.org/dc/elements/1.1/"
   xmlns:cc="http://creativecommons.org/ns#"
   xmlns:rdf="http://www.w3.org/1999/02/22-rdf-syntax-ns#"
   xmlns:svg="http://www.w3.org/2000/svg"
   xmlns="http://www.w3.org/2000/svg"
   xmlns:sodipodi="http://sodipodi.sourceforge.net/DTD/sodipodi-0.dtd"
   xmlns:inkscape="http://www.inkscape.org/namespaces/inkscape"
   version="1.1"
   id="Layer_1"
   x="0px"
   y="0px"
   width="505.101px"
   height="165.036px"
   viewBox="0 0 505.101 165.036"
   enable-background="new 0 0 505.101 165.036"
   xml:space="preserve"
   sodipodi:docname="works_header.svg"
   inkscape:version="0.92.2 (30a58d1, 2017-08-07)"><metadata
     id="metadata1015"><rdf:RDF><cc:Work
         rdf:about=""><dc:format>image/svg+xml</dc:format><dc:type
           rdf:resource="http://purl.org/dc/dcmitype/StillImage" /></cc:Work></rdf:RDF></metadata><defs
     id="defs1013" /><sodipodi:namedview
     pagecolor="#ffffff"
     bordercolor="#666666"
     borderopacity="1"
     objecttolerance="10"
     gridtolerance="10"
     guidetolerance="10"
     inkscape:pageopacity="0"
     inkscape:pageshadow="2"
     inkscape:window-width="1920"
     inkscape:window-height="1056"
     id="namedview1011"
     showgrid="false"
     inkscape:zoom="4.8782321"
     inkscape:cx="409.67566"
     inkscape:cy="107.19773"
     inkscape:window-x="1366"
     inkscape:window-y="24"
     inkscape:window-maximized="1"
     inkscape:current-layer="Layer_1" /><g
     id="g1008"><path
       fill="#6E7171"
       d="M12.852,32.64c-0.137,1.09-1.906,3.742-5.304,7.956c-0.408,0.816-1.02,1.157-1.836,1.02   c-1.09,0-2.11-0.408-3.06-1.224c-0.408-0.408-1.224-1.699-2.448-3.876C0.067,34.342,0,32.981,0,32.436   c0.408-3.943,2.244-5.712,5.508-5.304c0.816,0.137,1.836,1.294,3.06,3.468c0.134,0.137,0.306,0.102,0.51-0.102   c0.204-0.204,0.44-0.306,0.714-0.306c0.408,0,1.02,0.306,1.836,0.918C12.444,31.722,12.852,32.232,12.852,32.64z M150.552,26.112   c-1.361,0.816-2.11,1.769-2.244,2.856c0,0.545,0.134,1.09,0.408,1.632c-0.682,0.274-1.565,0.886-2.652,1.836   c0-0.134-0.07-0.338-0.204-0.612c-2.722,1.632-4.08,3.946-4.08,6.936c1.087-0.95,2.652-2.515,4.692-4.692l-0.204,1.02l1.224,0.204   c0.408-0.134,0.679-0.204,0.816-0.204c-1.498,0-2.926,1.565-4.284,4.692c0,0.274,0.067,0.612,0.204,1.02   c-2.856,4.896-4.284,7.889-4.284,8.976c0.408,0.137,0.816,0,1.224-0.408c0.408-1.087,2.244-3.535,5.508-7.344   c-1.498,2.448-3.06,5.17-4.692,8.16c-3.13,6.12-4.762,9.929-4.896,11.424c0,0.274-0.239,0.851-0.714,1.734   c-0.479,0.886-0.784,1.6-0.918,2.142c0,0.545,0.134,1.294,0.408,2.244l-0.612-0.408c0.271,0.274,0.408,0.612,0.408,1.02   c0,0.274-0.204,0.612-0.612,1.02v0.408c-0.137,0.137-0.07,0.274,0.204,0.408l0.816-1.428c0.679,1.09,0.95,1.836,0.816,2.244   c0,0.816-1.361,3.468-4.08,7.956c-0.137,0-0.204,0.408-0.204,1.224l-0.816-0.612v0.204c0,0.137,0.067,0.274,0.204,0.408   c0.134,0.137,0.204,0.408,0.204,0.816c-0.137,0.408-1.02,2.652-2.652,6.732c-0.682-0.134-1.224-0.134-1.632,0   c-0.137,0.545,0,0.816,0.408,0.816c0.271,0.137,0.612,0,1.02-0.408c-0.274,0.545-0.816,1.361-1.632,2.448   c0.542,0.545,1.087,1.294,1.632,2.244l-11.628,26.112c-5.986,13.738-11.832,23.256-17.544,28.561c0,0.679-0.749,1.969-2.244,3.875   c-0.682,0.271-1.632,0.883-2.856,1.836c-0.274,0-0.647-0.238-1.122-0.714c-0.478-0.478-0.851-0.714-1.122-0.714   c-0.274,0-0.545,0.134-0.816,0.408c-0.274,0.271-0.545,0.408-0.816,0.408c-0.816,0-1.836-1.157-3.06-3.469   c-0.682,0.271-1.02,0.746-1.02,1.429c0.134,0.679,0.134,1.224,0,1.632c-0.137-0.408-1.09-0.545-2.856-0.408   c0.271,0.816,0.883,2.107,1.836,3.876c-6.936-2.993-10.2-4.488-9.792-4.488c-0.274,0-0.408,0.135-0.408,0.408   c0,0.271-0.204,0.408-0.612,0.408c0.134,0,0.067-0.204-0.204-0.612c-3.946-1.224-6.802-1.836-8.568-1.836   c-1.224-0.545-2.11-1.766-2.652-3.672c-0.137-0.271-0.545-0.541-1.224-0.816c-2.448-4.621-4.217-7.002-5.304-7.14   c0-0.134,0.134-0.338,0.408-0.612l0.408-0.612c0.271-1.632-0.204-2.515-1.428-2.652c-0.953-0.134-2.04,1.09-3.264,3.672   c0.134,0.274,0.204,0.682,0.204,1.224c-0.274,0-2.177,2.04-5.712,6.12c-3.538,4.08-5.849,6.051-6.936,5.917   c0.408,0.134-0.478-0.408-2.652-1.633c-0.545,0-1.294-0.137-2.244-0.407c-0.953-0.274-1.702-0.408-2.244-0.408   c-0.816,0.815-1.361,1.97-1.632,3.468c-0.408,0.679-1.361,0.883-2.856,0.612c-3.809-0.274-6.257-2.381-7.344-6.324l-3.672-4.08   c-1.498-2.719-3.06-5.371-4.692-7.956c-1.769-3.535-2.926-6.391-3.468-8.568c-2.585-10.471-4.421-21.487-5.508-33.048l0.204-2.448   c0-0.95-0.479-1.699-1.428-2.244c-0.408,8.705,0.338,16.661,2.244,23.868c-1.09-0.134-1.702-0.542-1.836-1.224   c-0.545-1.766-1.02-3.943-1.428-6.528C0.95,95.609,0.746,86.362,1.836,76.296c0.271-2.99,1.291-5.642,3.06-7.956   c-0.137,0.274-0.137-0.067,0-1.02c0.271,0.408,0.542,0.612,0.816,0.612l0.816-0.408c-0.408-0.271-0.816-0.95-1.224-2.04   c0.542,0,0.95-0.134,1.224-0.408c0.271,0.816,0.679,1.906,1.224,3.264l0.816,0.204c0.271,0.274,0.475-0.271,0.612-1.632   c-1.224-1.224-1.769-2.311-1.632-3.264c0.134,0,0.306-0.134,0.51-0.408c0.204-0.271,0.44-0.338,0.714-0.204   c0.542,0,1.224,0.953,2.04,2.856c0.134-0.134,0.204-0.408,0.204-0.816c0.271-2.04-0.274-3.943-1.632-5.712   c-0.137,0-0.306,0.035-0.51,0.102c-0.204,0.07-0.443,0.102-0.714,0.102c-0.408,0-1.02-0.848-1.836-2.55   c-0.816-1.699-1.157-2.821-1.02-3.366c0-0.271,0.102-0.51,0.306-0.714s0.306-0.373,0.306-0.51H7.14   c0.95,0.545,1.632,1.498,2.04,2.856c0.134,0.682,0,1.702-0.408,3.06c0.134,0.408,0.475,0.816,1.02,1.224   c0.271-0.679,0.746-0.95,1.428-0.816c0.408,0.137,1.087,0.749,2.04,1.836c0.134-0.679,0.475-1.699,1.02-3.06   c1.087,1.09,1.836,1.973,2.244,2.652c0.679,0.137,1.154,0.137,1.428,0c-2.722-4.759-4.013-7.819-3.876-9.18   c0.134-0.95,0.883-2.244,2.244-3.876c1.358-1.632,2.515-2.378,3.468-2.244c0.679,0,1.562,0.612,2.652,1.836   c1.087,1.224,1.562,2.177,1.428,2.856c0,0.545-0.306,1.428-0.918,2.652c-0.612,1.224-0.918,2.11-0.918,2.652   c0.134,0.274,0.542,1.157,1.224,2.652c3.264-0.679,4.896-1.428,4.896-2.244c0,1.09-0.274-0.067-0.816-3.468   c0.134,0,0.373-0.067,0.714-0.204c0.338-0.134,0.644-0.134,0.918,0c1.358,0.137,2.244,2.789,2.652,7.956   c-0.545,13.056,0.542,27.406,3.264,43.044c0.271,0.408,0.679,1.157,1.224,2.244c0.271,0,0.475-0.134,0.612-0.408   c0-0.134-0.137-0.338-0.408-0.612c1.224-1.495,1.699-2.515,1.428-3.06l0.816,1.02c0.542-0.679,0.883-1.224,1.02-1.632   c-0.137-0.271-0.274-0.408-0.408-0.408c0.408-0.408,0.612-0.883,0.612-1.428c0.542-0.816,1.632-2.652,3.264-5.508   c-0.137,0.274-0.545-0.067-1.224-1.02c0.542,0.137,0.883,0.274,1.02,0.408c0.271-0.271,0.679-0.746,1.224-1.428   c0-0.134-0.07-0.338-0.204-0.612c0.816-1.087,1.358-2.311,1.632-3.672c1.358-1.495,2.174-2.786,2.448-3.876   c0,0.137,0.134,0.274,0.408,0.408c0.816-0.542,1.358-1.495,1.632-2.856c0-0.542,0.067-1.428,0.204-2.652   c0.816-0.271,1.326-1.052,1.53-2.346c0.204-1.291,0.985-2.346,2.346-3.162c1.358-0.816,2.244-1.428,2.652-1.836   c0.134-4.351,1.02-8.906,2.652-13.668c0.408-1.224,1.428-2.582,3.06-4.08c1.632-1.495,2.99-2.174,4.08-2.04   c1.224,0.137,2.378,1.294,3.468,3.468c0.408-0.271,1.087-0.338,2.04-0.204c-0.274-0.134,0.067-0.408,1.02-0.816l2.04-2.856   l3.06,1.428c0.408,0,1.087-0.134,2.04-0.408c1.224,2.722,1.766,6.461,1.632,11.22L81.6,73.44c-0.137-0.408-0.274,0-0.408,1.224   c0.134,0.274,0.271,0.408,0.408,0.408c0.408-0.408,0.679-0.95,0.816-1.632c0-0.408-0.137-1.087-0.408-2.04   c0.271-0.271,0.679-0.338,1.224-0.204c0-0.679,0.134-1.632,0.408-2.856c0.271-1.224,0.475-2.174,0.612-2.856   c0,0.545,0.204,1.294,0.612,2.244c0.134-0.408,0.612-1.632,1.428-3.672c0,0.137,0.067,0.204,0.204,0.204   c0.271,0.137,0.542,0.137,0.816,0l-2.856,25.296c0-0.816-0.137-2.107-0.408-3.876c-0.408,0.545-0.682,1.361-0.816,2.448   c-0.137,1.361,0,2.993,0.408,4.896c0.679-1.632,1.02-2.652,1.02-3.06l-0.612,16.932c-0.137,2.177-0.274,5.441-0.408,9.792   c4.896-5.712,9.859-14.347,14.892-25.908c7.07-16.046,11.22-25.226,12.444-27.54c0.679-1.358,1.02-2.515,1.02-3.468   c0.679-0.134,1.087-0.408,1.224-0.816c0-0.134-0.07-0.408-0.204-0.816c1.632-2.448,3.672-6.12,6.12-11.016   c0,0.408,0.338,0.953,1.02,1.632c0.271,0,0.475,0,0.612,0c0.816-1.224,1.97-2.856,3.468-4.896c-0.953,3.264-2.652,6.732-5.1,10.404   l0.408,1.02c-1.09,0.274-1.973,1.224-2.652,2.856c-0.274,0.682-0.408,1.294-0.408,1.836c-0.137,0.545,0,1.02,0.408,1.428   c-0.137,0-0.408-0.271-0.816-0.816c-0.137,0.545-0.682,1.294-1.632,2.244v1.632c1.632-0.679,2.378-1.087,2.244-1.224   c-0.545-0.408-0.816-0.746-0.816-1.02l0.816,0.204c-0.274,0,0.271-0.204,1.632-0.612c-0.408-0.542-0.478-0.816-0.204-0.816   l0.204-0.204l0.204-0.816c0.134-0.271,1.699-2.856,4.692-7.752c0.408-0.95,0.338-1.495-0.204-1.632   c0.408-0.134,0.883-0.612,1.428-1.428c0.408-1.495,1.291-3.672,2.652-6.528c1.632-1.495,3.194-3.264,4.692-5.304   c0.408-0.408,1.766-2.107,4.08-5.1l2.04-2.448c-0.137,0.682-0.137,1.09,0,1.224c0.542-0.542,1.428-1.358,2.652-2.448l1.224-2.448   c-0.137,0.137-0.07,0.341,0.204,0.612c0.408-0.542,0.816-1.154,1.224-1.836c0,1.632-0.545,3.197-1.632,4.692   c0.134,0.137,0.338,0.204,0.612,0.204c0.408-0.408,1.495-1.495,3.264-3.264c-5.849,7.752-11.086,15.233-15.708,22.44   c-0.408,0.816-0.545,1.632-0.408,2.448l13.056-17.544c0.542-0.816,1.154-1.699,1.836-2.652c-0.274,0-0.204,0.274,0.204,0.816   c1.766-2.582,2.582-4.284,2.448-5.1c0.134,0,0.408,0.274,0.816,0.816c0.408-0.271,0.95-0.612,1.632-1.02   c0.134-0.542,0.542-1.154,1.224-1.836V26.112z M29.376,18.768c-0.137,1.906-3.197,4.354-9.18,7.344   c-1.498-1.358-2.856-2.107-4.08-2.244h-0.612c0,0.137-0.137,0.204-0.408,0.204c-3.809-0.408-5.374-3.806-4.692-10.2   c0.408-3.535,1.766-5.167,4.08-4.896c0.816,0.137,1.428,0.341,1.836,0.612c2.99-4.351,5.234-6.458,6.732-6.324   c1.903,0.274,3.331,1.498,4.284,3.672l1.836,5.916l-0.204,3.264c0,0.137,0.067,0.545,0.204,1.224   C29.306,18.022,29.376,18.497,29.376,18.768z M17.544,39.984c-0.137,1.224-1.157,1.769-3.06,1.632   c-1.09-0.134-2.04-1.087-2.856-2.856c0.679-0.816,1.495-1.154,2.448-1.02C16.524,37.877,17.678,38.626,17.544,39.984z M13.26,67.32   h-0.612l-0.612,0.816l0.612,0.408L13.26,67.32z M13.464,85.272c0-1.766,0.067-4.147,0.204-7.14   c-0.274-0.408-0.682-1.02-1.224-1.836l-0.204,1.836c0,0.953,0.271,1.973,0.816,3.06C12.374,82.961,12.511,84.322,13.464,85.272z    M13.668,62.628h-0.612l-0.408,1.02l0.612,0.204L13.668,62.628z M13.464,65.076V64.26h-0.408l-0.204,0.816H13.464z M18.36,80.784   l-0.408-0.204l-0.408,0.816l0.408,0.408L18.36,80.784z M24.48,146.064l-1.02-0.204v-0.611l1.02,0.203V146.064z M27.744,74.052   l0.204-2.856c-0.274-0.134-0.545-0.338-0.816-0.612c0,0.408-0.137,1.565-0.408,3.468l-0.408,0.204c0,0.274,0,0.612,0,1.02   C26.45,75.005,26.928,74.597,27.744,74.052z M32.028,39.168c-2.993,1.361-4.217,2.04-3.672,2.04   c-1.499-0.134-2.11-1.428-1.836-3.876c0.134-1.766,0.816-2.582,2.04-2.448c0.95,0.137,2.174,0.816,3.672,2.04L32.028,39.168z    M28.764,59.16v-0.816l-0.612-0.204v0.816L28.764,59.16z M51.408,22.032c-0.545,0.545-0.886,0.816-1.02,0.816   c0.408,0-0.749-0.612-3.468-1.836c0-0.542,0.134-1.632,0.408-3.264c1.087,0.408,2.515,1.02,4.284,1.836L51.408,22.032z    M55.08,72.42l-0.408-0.204l-0.408,1.02l0.408,0.204L55.08,72.42z M66.096,56.712c0.271-2.174,0.271-3.398,0-3.672   c-1.09,0.953-1.702,1.769-1.836,2.448c0,0.408,0.067,0.75,0.204,1.02v0.408c0.134,0,0.408-0.032,0.816-0.102   C65.688,56.747,65.958,56.712,66.096,56.712z M78.744,121.584l1.632-26.52c0,0.408-0.102,1.122-0.306,2.142   s-0.376,1.734-0.51,2.142L78.744,121.584z M80.988,93.228h-0.612l-0.408,1.02l0.612,0.204L80.988,93.228z M81.192,92.004H80.58   l-0.408,1.02l0.408,0.204L81.192,92.004z M81.6,87.924c-0.274-1.358-0.341-2.311-0.204-2.856c-0.408,3.13-0.545,4.966-0.408,5.508   C80.988,90.168,81.192,89.285,81.6,87.924z M82.008,82.212l0.408-4.08c-0.816,1.361-1.224,2.244-1.224,2.652   C81.326,81.058,81.6,81.533,82.008,82.212z M82.824,76.704L82.212,76.5l-0.408,0.612l0.612,0.408L82.824,76.704z M83.028,111.18   l0.408-3.06h-0.612l-0.408,3.06H83.028z M83.232,113.424l0.204-1.224h-0.612l-0.204,1.224H83.232z M83.436,117.096l-0.408,1.428   l-0.408-0.204l0.408-1.224H83.436z M83.436,106.488l0.204-2.856h-0.612l-0.204,2.856H83.436z M83.64,100.164l0.204-1.224h-0.612   l-0.204,1.224H83.64z M84.252,84.66l0.204-2.652h-0.612l-0.204,2.448L84.252,84.66z M103.836,91.188   c-0.408,0-0.682-0.204-0.816-0.612c0.679-1.632,1.087-3.264,1.224-4.896c-0.816,1.361-1.836,3.264-3.06,5.712   c0.271,0.816,0.338,1.428,0.204,1.836c0,0.545-0.341,1.09-1.02,1.632l-0.204,2.244c0.816-0.408,1.597-1.46,2.346-3.162   C103.256,92.243,103.699,91.325,103.836,91.188z M103.02,147.493c-0.408,0.545-1.02,0.745-1.836,0.611   c0.134,0.134,0.204,0.408,0.204,0.816C102.475,148.646,103.02,148.171,103.02,147.493z M104.448,146.268l-1.02,1.02l-0.204-0.408   l0.816-1.02L104.448,146.268z M110.772,77.112c0-0.271-0.07-0.542-0.204-0.816c-0.137-0.271-0.204-0.475-0.204-0.612   c-0.274,0-0.478,0.137-0.612,0.408c0.134,0.816-0.274,1.428-1.224,1.836c-0.408,1.906-1.361,4.15-2.856,6.732   c0-1.087-0.07-1.903-0.204-2.448c0,0.408-0.172,0.918-0.51,1.53c-0.341,0.612-0.51,1.122-0.51,1.53l1.02-0.408   c0.271,0.274,0.408,0.612,0.408,1.02C109.003,80.446,110.635,77.52,110.772,77.112z M106.692,81.192l0.204-1.02l-0.408,0.204   c-0.274,0.137-0.408,0.274-0.408,0.408C106.08,81.058,106.284,81.192,106.692,81.192z M112.2,69.36l-0.408-0.204l-0.612,1.836   h0.612L112.2,69.36z M114.24,70.176c0-0.134-0.035-0.373-0.102-0.714c-0.07-0.338-0.102-0.577-0.102-0.714   c-0.274,0.408-0.682,0.953-1.224,1.632C113.22,70.109,113.695,70.042,114.24,70.176z M114.852,65.892h-0.612l-0.612,1.632   l0.612,0.204L114.852,65.892z M126.684,57.12h-0.408l-0.408,1.02l0.204,0.408L126.684,57.12z M128.928,42.432l-0.204-0.612   l-1.428,1.224l0.408,0.204L128.928,42.432z M128.316,89.556l-0.408-0.408l-0.408,0.204l0.408,0.612L128.316,89.556z M130.56,83.64   c-0.682,0.953-1.157,1.632-1.428,2.04h0.612C130.152,84.73,130.423,84.048,130.56,83.64z M133.824,68.952l-0.612-0.204   l-0.612,2.244h0.408L133.824,68.952z M134.028,21.42l-0.816,0.816l-0.408-0.204l0.612-1.02L134.028,21.42z M135.048,68.136v-1.428   h-0.612v1.428H135.048z M137.7,73.644l-1.02,1.428l-0.408-0.204l1.02-1.224H137.7z M137.496,65.688l-1.02,0.204v-0.408l0.816-0.408   L137.496,65.688z M140.556,18.564c-0.682,1.498-1.294,2.652-1.836,3.468c-0.137-0.271-0.204-0.612-0.204-1.02   C138.516,20.604,139.195,19.788,140.556,18.564z M141.372,23.256h-0.612v-1.02h0.612V23.256z M143.412,16.116l-1.836,2.04   l-0.408-0.408l1.836-2.04L143.412,16.116z M142.392,24.276l-1.224,1.02c0-0.542,0.338-1.291,1.02-2.244   C142.188,23.597,142.255,24.005,142.392,24.276z"
       id="path998" /><path
       fill="#6E7171"
       d="M233.783,85.884c0,2.448-1.021,6.053-3.06,10.812c-0.816,2.314-1.973,5.986-3.468,11.016   c-1.632,1.769-3.946,4.762-6.936,8.976l1.02-2.04c0.816-1.495,1.087-2.378,0.816-2.652c-1.09,1.498-2.585,3.946-4.488,7.344   c-0.816,0.682-2.04,1.973-3.672,3.876c-0.816,1.499-1.973,3.672-3.468,6.528c-3.539,5.033-7.481,9.113-11.832,12.24   c-7.481,5.578-12.444,8.364-14.892,8.364c-0.408,0-1.02-0.137-1.836-0.408c-0.816-0.274-1.361-0.408-1.632-0.408   c-1.09,0-2.62,0.236-4.59,0.714c-1.973,0.476-3.503,0.715-4.59,0.715c-4.08,0-8.434-2.178-13.056-6.528l-4.08-0.816   c-0.137,0.408-0.204,0.953-0.204,1.633c0,0.682,0.067,1.498,0.204,2.447c-1.361-1.766-3.197-4.08-5.508-6.936   c-0.137-0.679-0.478-1.903-1.02-3.672c-0.408-0.271-0.816-0.542-1.224-0.816c-0.274-1.766-0.682-4.488-1.224-8.16   c0.679-0.816,1.02-1.428,1.02-1.836c-1.361-3.127-2.244-5.779-2.652-7.956c0.408-0.408,0.408-4.08,0-11.016   c1.224-9.926,3.739-19.718,7.548-29.376c1.495-4.214,4.418-8.635,8.772-13.26c4.622-5.438,8.772-8.568,12.444-9.384   c0.542,0,3.127-1.087,7.752-3.264c-9.384,3.809-16.865,9.725-22.44,17.748c-0.137,0.137,0,0.408,0.408,0.816l1.02-0.816   c-1.769,1.906-3.197,4.217-4.284,6.936l0.816,0.408c4.214-5.846,11.083-12.036,20.604-18.564c-0.408,0-1.565,0.341-3.468,1.02   c8.702-5.167,15.434-7.682,20.196-7.548c-0.137,0-0.408,0.204-0.816,0.612c0.408,0.274,0.883,0.408,1.428,0.408   c0.679,0,1.699-0.134,3.06-0.408c1.358-0.271,2.378-0.408,3.06-0.408c0.408,0,1.326,0.478,2.754,1.428   c1.428,0.953,2.276,1.428,2.55,1.428c0.542,0,0.781-0.102,0.714-0.306c-0.07-0.204,0.032-0.306,0.306-0.306   c0.408,0.137,0.985,0.581,1.734,1.326c0.746,0.749,2.754,2.958,6.018,6.63c0.542,1.224,1.903,2.856,4.08,4.896l0.816-0.816   c-0.953-0.408-1.326-0.95-1.122-1.632c0.204-0.679,0.032-1.224-0.51-1.632c2.174,0,3.806,0.478,4.896,1.428   c0.816-0.95,1.224-1.562,1.224-1.836c0.542,1.498,1.632,3.06,3.264,4.692c0.95,1.09,2.378,4.558,4.284,10.404   c0,0.545,0.067,1.428,0.204,2.652c0.271,0.545,0.883,1.09,1.836,1.632C233.375,83.436,233.783,84.66,233.783,85.884z    M164.423,64.26l-2.652,2.856l-0.204-0.612l2.448-2.448L164.423,64.26z M167.687,62.22l-2.652,2.04l-0.204-0.816l2.448-1.836   L167.687,62.22z M200.123,81.804c-1.361-2.04-2.177-3.602-2.448-4.692c-1.769,1.224-4.625,3.538-8.568,6.936   c0.134-0.816,0.679-1.836,1.632-3.06c-6.257,7.752-10.812,16.39-13.668,25.908c-0.545-0.816-0.886-1.224-1.02-1.224   c-0.953,0-1.871,1.632-2.754,4.896c-0.886,3.264-1.326,5.578-1.326,6.936c0,2.722,0.612,6.257,1.836,10.608   c5.438-1.495,10.675-5.508,15.708-12.036c5.03-6.528,7.478-12.444,7.344-17.748c0.542,0.274,0.95-0.134,1.224-1.224l0.612-1.428   c-1.09-0.408-2.244-0.883-3.468-1.428c0.134-0.679,0.204-1.224,0.204-1.632c0-1.358-2.177-2.582-6.528-3.672l5.1-0.204   c0.679,0.274,1.632,0.886,2.856,1.836c0.134-0.408,0.338-0.883,0.612-1.428c-0.816,0-1.294-0.067-1.428-0.204   c0.679-0.679,0.95-1.224,0.816-1.632c-0.545-0.408-1.294-0.95-2.244-1.632c2.04-0.679,3.398-1.562,4.08-2.652   c-0.408-0.542-0.953-1.154-1.632-1.836c0.408,0,0.95,0.102,1.632,0.306C199.374,81.702,199.849,81.804,200.123,81.804z    M181.967,52.02h-1.224v-0.816h1.224V52.02z M190.739,52.224c-1.498,0.408-4.558,1.428-9.18,3.06h1.836   C184.211,55.421,186.659,54.401,190.739,52.224z M184.619,51h-1.224v-0.816h1.224V51z M193.595,94.86h-1.02v-0.816h1.02V94.86z    M229.907,61.404h-0.816v-1.836h0.816V61.404z"
       id="path1000" /><path
       fill="#6E7171"
       d="M230.109,38.76c1.903-0.816,3.398-1.428,4.488-1.836c0.134,1.632,0.204,2.722,0.204,3.264   c-2.722,1.09-3.876,1.632-3.468,1.632c-0.137,0-0.478-0.204-1.02-0.612L230.109,38.76z M235.413,88.536l0.204-0.816l-0.204-2.04   c1.495-3.535,2.856-5.371,4.08-5.508c0.95,0,1.836,0.612,2.652,1.836c0.271,0.816,0.678,1.565,1.223,2.244   c0.271-0.134,0.68-0.204,1.225-0.204c1.357,0,2.107,1.02,2.244,3.06c0.135,3.946-0.953,5.916-3.264,5.916   c-0.137,0-0.205-0.067-0.205-0.204l-0.406,0.204c-0.683,0-1.566,0.408-2.653,1.224c-3.538-2.582-5.304-4.147-5.304-4.692   C235.006,89.285,235.14,88.944,235.413,88.536z M239.697,132.396l-2.244,7.548l0.408,0.204l2.448-7.752H239.697z M317.625,66.504   c-0.406-1.632-0.406-2.582,0-2.856c-1.09-3.943-1.904-6.936-2.447-8.976c-1.906-1.495-3.131-2.311-3.672-2.448   c-0.408,0.953-0.611,1.702-0.611,2.244h-0.408c-1.09-1.766-1.973-2.582-2.652-2.448l-2.447,1.428   c-0.275-0.408-0.479-0.679-0.613-0.816c-2.721-1.632-4.488-2.378-5.303-2.244c-0.816,0-3.266,1.973-7.346,5.916   c-0.682,0-1.223-0.271-1.631-0.816c0,0.682-0.137,1.157-0.408,1.428l-1.225,0.204c-0.273,0-0.375-0.102-0.305-0.306   c0.066-0.204-0.035-0.306-0.307-0.306c-0.682,0-1.361,0.749-2.039,2.244v1.836c0,0.682-0.139,1.224-0.408,1.632   c1.223-1.766,2.105-3.06,2.65-3.876l0.205,0.408c-5.033,8.842-9.113,15.574-12.24,20.196c-0.137-1.766-0.137-4.214,0-7.344   c-0.137-0.134-0.203-0.271-0.203-0.408c0.406-3.672,0.406-6.732,0-9.18c-0.139,0-0.24,0.07-0.307,0.204   c-0.07,0.137-0.24,0.204-0.51,0.204c-0.545,0-0.75-0.816-0.613-2.448l0.408-2.448c-2.992-3.264-5.236-4.488-6.73-3.672   c2.719,1.361,4.01,2.448,3.875,3.264c1.088,0.274,1.699,1.157,1.836,2.652c0,0.545-0.07,0.953-0.203,1.224   c-1.361-2.719-2.789-4.284-4.285-4.692c0,0.137,0.066,0.341,0.205,0.612c0.133,0.274,0.203,0.478,0.203,0.612l0.611-0.204   c0.68,0,1.43,0.682,2.244,2.04l-1.631,0.816c-2.855-3.127-4.559-4.759-5.1-4.896c0.27-0.408,0.406-0.883,0.406-1.428   c-2.313,1.498-4.486,2.448-6.527,2.856c-1.498,0.682-2.584,1.157-3.264,1.428c-0.137,0.545-0.203,1.02-0.203,1.428   c-0.547,1.09-1.295,1.906-2.244,2.448c-1.225-0.408-2.178-0.679-2.857-0.816c0-0.134-0.203-0.067-0.611,0.204   c0.271,0,0.408,0.137,0.408,0.408c-0.682,1.906-1.09,2.993-1.225,3.264c0.135-0.134,0.439-0.271,0.918-0.408   c0.475-0.134,0.781-0.271,0.918-0.408c0.135,0.137,0.135,0.274,0,0.408c-1.498,1.906-2.244,3.06-2.244,3.468   c-1.09,0.545-1.906,1.09-2.447,1.632l0.816-0.612c0.408,0.408,0.678,0.75,0.816,1.02c-0.139,0.274-0.139,0.612,0,1.02   c0.541-1.495,0.949-2.377,1.223-2.652c0.271,0.545,0.205,1.02-0.203,1.428c0.678-0.134,0.949,0.478,0.816,1.836   c0.949,4.217,1.494,6.598,1.631,7.14c0.135,0.816-0.137,2.722-0.816,5.712c0.135-0.134,0.408,0.137,0.816,0.816   c-1.09,5.986-1.836,9.996-2.244,12.036c-1.77,9.521-3.061,15.504-3.875,17.952c-1.498,4.217-2.244,7.548-2.244,9.996   c0,0.137-0.102,0.478-0.307,1.02c-0.203,0.545-0.307,0.953-0.307,1.224c0,0.545,0.135,0.816,0.408,0.816l5.713-17.748   l-5.508,21.216c0.949-3.264,1.699-5.575,2.244-6.936c0,0.274-0.75,3.197-2.244,8.772c0-0.271,0.27-0.475,0.816-0.612l-2.449,6.12   c-0.137-0.816,0.032-1.903,0.509-3.264c0.475-1.358,0.645-2.174,0.51-2.448c-0.953,3.401-1.498,5.374-1.631,5.916   c0-0.134,0.067-0.271,0.204-0.408c0.134,0.816-0.682,4.15-2.448,9.996l-0.407-0.611c0.134,2.174-0.07,3.602-0.612,4.284   c0.679-1.091,1.224-1.906,1.632-2.448c0.134,0.408,0.204,0.679,0.204,0.815c-0.137-1.09,0.271-2.518,1.224-4.284l0.408,0.613   c0-0.135,0.067-0.338,0.204-0.613c0.134,0.816,0.032,1.767-0.306,2.856c-0.342,1.087-0.511,1.836-0.511,2.244   c0.542-1.498,0.95-2.519,1.225-3.06c0.408,0.407,0.611,0.679,0.611,0.815c-0.682,1.766-1.02,3.061-1.02,3.876   c1.631-3.264,2.514-5.033,2.653-5.304c8.293-21.895,12.443-32.911,12.443-33.048c2.582-8.293,4.758-16.045,6.527-23.256   c0.951,0.953,1.428,1.294,1.428,1.02c-4.762,17.952-7.209,27.132-7.344,27.54c-3.264,12.24-6.801,22.032-10.607,29.376   c0.408-0.274,0.611-0.204,0.611,0.204v1.224c0.543-1.769,1.291-3.264,2.244-4.488c0.271,0.138,0.338,0.275,0.205,0.408   c-0.953,2.856-1.77,4.622-2.449,5.305c-1.906,3.806-3.129,6.799-3.672,8.976c0.816-1.632,1.428-2.789,1.836-3.468   c0.135,0,0.135,0.134,0,0.408c0,0.134,0.135,0.204,0.408,0.204c0.271-0.138,1.496-2.586,3.672-7.345   c3.398-7.344,5.168-11.149,5.305-11.424c0.133,0.137,0.203,0.408,0.203,0.816c0.135,0.954-1.428,4.966-4.691,12.037   c0.816-1.091,1.563-2.04,2.244-2.856c0.133-0.408,0.271-0.545,0.408-0.408c0.408-0.273,0.746-0.273,1.02,0   c-1.225,3.127-2.039,5.575-2.447,7.345c1.494-2.586,3.127-6.054,4.895-10.404l-0.611,0.612c0-0.408,0.408-1.496,1.225-3.265   c0.271,0.274,0.408,0.479,0.408,0.612c0.27-2.174,0.611-3.739,1.02-4.692c0.408,0.408,0.475,0.749,0.203,1.02   c3.127-5.983,4.693-10.471,4.693-13.464c1.357-2.174,2.039-3.806,2.039-4.896c0-0.408-0.203-0.746-0.611-1.02   c0.541-0.408,0.883-0.679,1.02-0.816c0.135-1.224,0.408-1.97,0.816-2.244l-0.205-1.428c-0.273-0.542-0.203-1.154,0.205-1.836   l0.611,0.408c0.543-1.495,0.951-2.582,1.225-3.264c-0.545,0.682-1.02,1.09-1.428,1.224c0-1.632,0.408-2.652,1.223-3.06   c0.271,0.408,0.408,0.816,0.408,1.224c2.582-9.384,4.555-14.551,5.916-15.504l0.613,0.612c0.27-0.271,0.746-0.408,1.428-0.408   c0.133-1.087,0.475-2.174,1.02-3.264c0.271,0.137,0.338,0.274,0.203,0.408c-0.273,1.632-0.682,3.06-1.223,4.284   c-0.275-0.271-0.342-0.408-0.205-0.408c0.408,0.408,0.613,0.816,0.613,1.224c0,0.408-0.24,1.192-0.715,2.346   c-0.479,1.157-0.58,2.008-0.307,2.55c1.359-2.719,2.174-4.214,2.449-4.488l0.408,0.408c-0.137,1.632-0.205,2.856-0.205,3.672   c1.225-2.582,2.174-4.214,2.857-4.896l0.406,0.408c-0.273,0.816-0.34,1.769-0.203,2.856c0.949-1.224,1.633-2.244,2.039-3.06   c0.68,0.953,1.359,1.428,2.041,1.428c0.541-0.95,0.883-1.699,1.02-2.244c0.271,0.274,0.338,1.157,0.205,2.652   c2.039-3.943,3.264-6.254,3.672-6.936c0.133,0.137,0.27,0.478,0.408,1.02c1.766-3.127,2.785-4.963,3.059-5.508   c0.135,0.274,0.205,1.02,0.205,2.244l0.611-0.612c0.271,0.274,0.543,0.408,0.816,0.408c0.271,0,1.563-1.903,3.875-5.712   c2.313-3.806,3.604-5.712,3.877-5.712h0.816h0.408l0.408-1.632c0-1.087,0.338-1.632,1.02-1.632c0.408,0,1.223,0.239,2.447,0.714   c1.225,0.478,2.041,0.714,2.449,0.714c0.27,0,0.611-0.271,1.02-0.816c-0.137-0.816-0.07-1.291,0.203-1.428   c0.816,1.09,1.225,1.973,1.225,2.652c0.133-1.632,0.338-2.856,0.611-3.672c0.408,0.953,0.68,1.702,0.816,2.244l-0.611,0.816h1.631   c-0.137-2.856-0.07-4.622,0.205-5.304c0.814-1.495,1.291-2.378,1.428-2.652C317.83,67.728,317.625,66.778,317.625,66.504z    M239.086,155.448l-0.408,1.225l0.408,0.204l0.407-1.429H239.086z M241.125,152.184l-0.407,1.02h0.407l0.408-0.815L241.125,152.184   z M243.369,148.512l-0.406-0.204l2.242-7.548h0.408L243.369,148.512z M244.185,163.2l-0.816,1.632l0.613,0.204l0.611-1.632   L244.185,163.2z M244.593,57.12c1.496-1.224,2.719-1.836,3.672-1.836c1.225-0.134,1.902,0.682,2.041,2.448   c0.133,2.448-0.545,3.742-2.041,3.876c0.543,0-0.682-0.746-3.672-2.244V57.12z M246.021,161.772l-1.428,3.264h0.816l1.225-3.264   H246.021z M245.818,139.944v-0.816h0.611v0.816H245.818z M246.837,125.052h-0.611l0.408-2.04h0.611L246.837,125.052z    M247.449,123.012h-0.408l0.816-5.1h0.613L247.449,123.012z M248.265,157.284l-0.816,0.816l0.408,0.408l0.816-0.816   L248.265,157.284z M248.47,66.096h-0.613v1.02h0.613V66.096z M249.693,61.2c-0.545,0.545-1.02,1.361-1.428,2.448   c0.271-0.95,0.746-1.562,1.428-1.836l0.816,0.408C250.101,61.678,249.828,61.337,249.693,61.2z M250.509,73.644l-0.816,1.224   l0.613,0.408l0.611-1.428L250.509,73.644z M250.714,89.76h-0.613v1.02h0.613V89.76z M250.509,68.952v-1.02h0.611v1.02H250.509z    M251.529,85.884h-0.611l0.203,1.02h0.613L251.529,85.884z M252.345,66.3l-0.408-0.204l0.408-0.816l0.408,0.204L252.345,66.3z    M252.142,64.26c0.408-1.224,0.949-1.97,1.631-2.244l0.205,1.836C253.57,63.581,252.957,63.718,252.142,64.26z M252.55,68.34   l-0.408-0.204l0.408-0.816h0.203L252.55,68.34z M252.957,117.708l-0.406-0.204l0.406-1.02l0.613,0.204L252.957,117.708z    M256.63,127.704l-0.408-0.204l0.408-2.04h0.611L256.63,127.704z M259.078,60.996c-0.137-1.358,1.02-2.107,3.469-2.244   c0.949,0,1.766,0.478,2.447,1.428L259.078,60.996z M259.689,138.312v-0.816l0.613-0.204v0.816L259.689,138.312z M260.71,136.884   l-0.408-0.204l1.02-3.06h0.408L260.71,136.884z M262.341,130.764v-0.816h0.611v0.816H262.341z M262.75,129.744l-0.203-0.816h0.611   l0.203,0.816H262.75z M263.158,128.112v-1.224l0.611-0.204v1.224L263.158,128.112z M263.769,126.276l-0.203-1.224h0.611   l0.205,1.224H263.769z M264.177,53.856c0-0.408,0.439-0.883,1.326-1.428c0.883-0.542,1.529-0.816,1.938-0.816   c0.271,0,0.51,0.102,0.715,0.306c0.203,0.204,0.373,0.306,0.51,0.306c0.541-0.95,1.563-1.428,3.061-1.428   c3.264-0.134,4.963,1.09,5.1,3.672c0.133,0.545,0,1.906-0.408,4.08L264.177,53.856z M264.789,89.964h-0.611l0.205-2.652h0.611   L264.789,89.964z M264.382,124.032v-1.02h0.406v1.02H264.382z M265.402,90.168h-0.613l0.408-2.856h0.613L265.402,90.168z    M269.074,110.16l-0.408-0.204l0.203-0.816l0.613,0.204L269.074,110.16z M269.482,108.732h-0.408l0.408-1.836h0.611   L269.482,108.732z M270.093,105.06l-0.408-0.204l0.613-1.428h0.611L270.093,105.06z M271.113,103.224l-0.408,0.204v-1.836   l0.613-0.204L271.113,103.224z M271.521,74.256l-0.611-0.204l0.408-1.02h0.611L271.521,74.256z M271.521,77.52v-1.224h0.613v1.224   H271.521z M272.337,75.48h-0.408v-2.244h0.611L272.337,75.48z M274.582,97.308l-0.408,1.836l0.408,0.204l0.611-1.836   L274.582,97.308z M277.642,70.176h-0.613l0.205,0.816h0.611L277.642,70.176z M284.986,63.036l-0.408,1.02l0.408,0.204l0.408-1.224   H284.986z M295.593,90.984l-1.225,1.02l0.408,0.408l1.225-1.224L295.593,90.984z M298.654,86.904l-0.408-0.204l0.408-0.816h0.408   L298.654,86.904z M300.285,47.736c-0.406,0.545-0.885,0.816-1.428,0.816c1.766-0.134,2.652,0.341,2.652,1.428   C301.509,48.756,301.101,48.01,300.285,47.736z M311.302,79.968c0-0.408-0.139-0.679-0.408-0.816c0,1.09-0.137,1.702-0.408,1.836   h0.611C311.232,80.58,311.302,80.242,311.302,79.968z M312.525,69.564l-0.408-2.04h0.613l0.408,1.836L312.525,69.564z    M314.566,70.584c0.541,2.04,0.883,3.197,1.02,3.468c-1.225-2.04-1.906-3.194-2.039-3.468c0-0.271,0.066-0.612,0.203-1.02   c0.135-0.408,0.203-0.679,0.203-0.816c0.543,0.408,0.951,0.612,1.225,0.612C315.177,69.497,314.974,69.905,314.566,70.584z    M318.033,75.276h-0.408V76.5h0.408V75.276z"
       id="path1002" /><path
       fill="#6E7171"
       d="M455.324,100.368c-2.041-0.271-3.809,0.204-5.305,1.428c-0.273,0.545-0.748,1.157-1.428,1.836   c-1.225,1.09-2.518,2.11-3.877,3.06c-1.631,1.498-2.381,2.856-2.242,4.08c-1.77,1.769-5.713,5.17-11.832,10.2   c-0.139,0.137-0.07,0.341,0.203,0.612c1.902-0.816,3.33-1.699,4.283-2.652l1.43,1.428c0,0.545-0.07,0.749-0.205,0.612l0.816,0.204   c1.494,0,3.602-1.224,6.324-3.672l-3.672,3.06c0.133,0.137,0.611,0.274,1.428,0.408c1.225,0,3.467-0.883,6.732-2.652l-0.205,1.428   c-0.682,0.953-1.701,2.11-3.061,3.468c-1.498,0.408-3.264,1.632-5.303,3.672c0.541,0.274,1.428,0.137,2.652-0.408   c-0.408,0.408-1.057,0.918-1.939,1.53c-0.885,0.612-1.529,1.122-1.938,1.53l1.02,1.224c-1.906-0.271-2.855,0.204-2.855,1.428v1.428   c-0.273,0-1.225,0.408-2.855,1.224c0,0.408,0.475,0.612,1.428,0.612c-2.992,1.906-6.189,3.876-9.588,5.916l-1.225,1.225   c0,0.273,0.135,0.816,0.408,1.632c0.135,0.545,0.066,1.091-0.203,1.632l-5.713,4.08c-2.447,1.903-4.42,2.856-5.916,2.856   c-3.4-0.138-5.1,0.541-5.1,2.04l-5.508-0.204c-0.408,0.134-0.682,0.031-0.816-0.307c-0.137-0.341-0.342-0.58-0.611-0.714   c-0.545,0-3.131,0.679-7.752,2.04c-2.857,0.816-5.916,1.154-9.18,1.021c-7.891-0.408-15.371-2.856-22.441-7.345   c-0.137-0.273-0.408-0.682-0.816-1.224c-2.584-1.357-3.672-2.04-3.264-2.04c-0.545,0-0.885,0.07-1.02,0.204l0.408-0.408v-0.204   h-0.611l-1.021-1.02c-0.682-0.816-1.361-1.154-2.039-1.021c0.271,0.545,0.816,1.428,1.631,2.652c-1.09-1.087-2.518-2.786-4.283-5.1   c0-0.679-0.137-1.632-0.408-2.856c-1.09-2.311-2.518-5.983-4.283-11.016c-0.684,0.137-1.021,0.478-1.021,1.02   c0,0.816,0.068,1.157,0.205,1.02c0-0.542-0.273-1.087-0.816-1.632l-0.611,0.612c-0.816,4.762-2.855,12.24-6.121,22.44   c0.271,0.407-0.34,0.611-1.836,0.611c-0.273,0-0.748-0.273-1.428-0.815c-0.682-0.545-1.293-0.816-1.836-0.816   c0-0.408,0.271-0.886,0.816-1.428c-0.137-0.271-0.887-0.746-2.244-1.429c-1.361,1.767-3.605,4.692-6.732,8.772l-1.428-1.632   c0.949-1.224,1.428-1.973,1.428-2.244c0-0.545-0.479-1.428-1.428-2.652c-0.545,0.271-1.701,1.699-3.469,4.284   c-0.814-1.224-1.768-2.722-2.855-4.487c-0.137,0.134-1.631,1.224-4.488,3.264c-1.223-2.448-1.836-4.146-1.836-5.1   c0.135-0.95,0.613-1.766,1.428-2.448c-0.137-0.271-0.406-0.612-0.814-1.021h-1.021c-0.406,0-0.611,0.204-0.611,0.612v-1.429   c0.816-0.541,1.633-1.494,2.447-2.855c1.225-3.535,2.244-9.247,3.061-17.136c0.271-0.408,0.543-1.224,0.816-2.448   c0.135-0.271,0.203-1.562,0.203-3.876c0-2.174-0.137-3.739-0.406-4.692l1.836-1.428l5.303-46.716   c2.311-20.263,4.623-35.7,6.936-46.308c0.543-2.174,2.174-7.07,4.896-14.688c0.271-3.127,0.338-0.883,0.205,6.732l-0.613,12.648   c0.543,0,1.021-0.338,1.428-1.02c0.816-5.03,2.652-12.036,5.51-21.012c0.949,0.408,2.105,1.361,3.467,2.856   c0.543-0.408,1.633-0.542,3.264-0.408c0.135,0,0.408,0.07,0.816,0.204c0.408,0.137,0.746,0.204,1.02,0.204   c0.408,0,0.613-0.134,0.613-0.408c0-0.271,0.203-0.338,0.611-0.204c0.271,0,0.541,0.137,0.816,0.408   c0.271,0.274,0.611,0.408,1.02,0.408c1.357,0.137,2.174-0.612,2.447-2.244l2.244,4.896c-0.137,3.401-0.07,5.304,0.205,5.712   c0.133,1.361,0,3.672-0.408,6.936c0.271,0.953,0.541,2.11,0.816,3.468l-8.16,64.668c-0.275,2.585,0.816,5.17,3.264,7.752   c0.271,0.682,1.291,2.314,3.061,4.896c9.518-7.615,19.176-20.059,28.967-37.332c0.543,0.545,1.496,1.294,2.857,2.244   c-0.545,2.04-1.158,3.672-1.836,4.896l-0.205,1.428c0.816,0.137,1.633-0.338,2.447-1.428l1.633-2.652   c0.271,0.274,0.541,0.408,0.816,0.408c-0.137,2.177-0.275,3.468-0.408,3.876c1.086-0.816,1.902-1.766,2.447-2.856l-7.547,15.096   c-2.586,5.304-5.646,9.929-9.18,13.872c-0.408,0.408-1.734,1.804-3.979,4.182c-2.244,2.381-3.367,3.707-3.367,3.978   c0-0.408,0.613,0.682,1.836,3.264c-0.545-0.542-1.293-1.358-2.242-2.448c-0.684,0.274-1.43,1.224-2.244,2.856l0.814,0.408   c0.408,0.137-0.273,0.204-2.039,0.204c-0.682,0.274-0.887,0.545-0.611,0.816c-0.816,0.274-1.906,1.294-3.266,3.06   c1.768,1.906,4.488,3.334,8.16,4.284c8.16,2.177,11.967,3.264,11.424,3.264c0.68,0,2.721,0,6.121,0l5.916-0.204l0.611,0.816   c4.488,0.274,14.893-4.759,31.213-15.096c-2.178,1.632-6.461,4.488-12.852,8.568c0,0.953,0.475,1.428,1.428,1.428l14.482-7.956   c9.385-5.304,15.027-7.886,16.934-7.752c0.27,0,0.408,0.07,0.408,0.204c0,0.137,0.203,0.204,0.611,0.204   c0.541,0.137,1.664-0.102,3.365-0.714c1.699-0.612,2.889-0.918,3.57-0.918C452.126,99.281,453.283,99.689,455.324,100.368z    M333.943,10.608h-0.816l-1.02,5.712h0.613L333.943,10.608z M345.572,130.968h-0.816v-1.02h0.816V130.968z M347.611,131.172   l-0.408-2.04l-0.814-0.204l0.406,2.04L347.611,131.172z M352.71,87.924l-2.039,1.632l-0.408-0.408l2.041-1.632L352.71,87.924z    M361.279,108.528l-0.408-0.408l-2.855,2.448l0.408,0.612L361.279,108.528z M359.035,11.016h-0.814v-1.02h0.814V11.016z    M359.648,91.8l-0.613-0.204l-0.408-1.428l0.613-0.204L359.648,91.8z M366.175,103.224l-0.408-0.204l-4.08,4.08l0.408,0.408   L366.175,103.224z M363.931,145.86l-2.039-1.02l-0.205,0.611l2.041,1.021L363.931,145.86z M368.214,109.752h-1.223v-0.816h1.223   V109.752z M372.091,63.24l-3.264,4.692l-0.613-0.408l3.266-4.896L372.091,63.24z M370.458,109.956l-0.203,0.612l-1.428-0.612   v-0.612L370.458,109.956z M387.392,153.408c-4.896-0.682-8.027-1.157-9.385-1.428c-3.539-0.816-6.324-1.973-8.363-3.468h1.428   c1.766,0.134,4.283,0.815,7.547,2.04c3.264,1.224,5.779,1.902,7.549,2.04C386.984,152.592,387.392,152.863,387.392,153.408z    M372.5,110.976l-0.205,0.612l-1.428-0.612v-0.612L372.5,110.976z M377.191,64.668l-1.225,1.632l-0.406-0.612l1.02-1.428   L377.191,64.668z M378.21,61.2l-0.814,1.632l-0.613-0.204l0.816-1.428H378.21z M378.21,89.556l-0.406-0.408l-1.021,1.428   l0.408,0.408L378.21,89.556z M395.755,68.748c-1.633,3.13-4.217,7.752-7.752,13.872c-2.314,2.856-5.645,7.14-9.996,12.852   L395.755,68.748z M386.167,77.928h-0.611l-1.836,3.876l0.406,0.408L386.167,77.928z M439.207,108.936l-0.203-0.612l-2.652,1.224   v0.612L439.207,108.936z M456.955,100.368l-1.223-0.204v-0.612l1.223,0.204V100.368z"
       id="path1004" /><path
       fill="#6E7171"
       d="M472.666,48.96c-1.498,0.682-3.061,1.769-4.693,3.264c-0.137-0.271-0.408-0.408-0.814-0.408   c-1.633,0-2.789,1.565-3.469,4.692c2.855-1.495,4.826-2.856,5.916-4.08c-0.682,0.545-1.02,1.09-1.02,1.632   c0,0.408,0.27,0.816,0.814,1.224c-0.406,0.137-2.789,1.294-7.139,3.468l0.203,0.408l-1.02-0.204l-0.611,0.612   c1.494,0.408,2.719,0.612,3.672,0.612c-0.275,0.137-0.887,0.612-1.836,1.428c-0.684-0.271-1.703,0.035-3.061,0.918   c-1.361,0.886-1.973,1.667-1.836,2.346c-0.137,0.137-1.156,0.953-3.061,2.448c-0.137,0.274-0.07,0.408,0.205,0.408   c-0.137,0-0.408,0.07-0.816,0.204c-0.408,0.137-0.682,0.204-0.816,0.204c0.135,0,0.408-0.134,0.816-0.408   c-1.361-0.271-2.652,0-3.877,0.816l-1.836,1.224h-1.223c-0.139,0.137-0.205,0.274-0.205,0.408c0,0.274,0.135,0.545,0.408,0.816   c-0.137-0.134-0.342-0.067-0.611,0.204c-0.275,0.274-0.545,0.408-0.816,0.408c-0.273,0-0.273-0.134,0-0.408   c0.135-0.271,0-0.408-0.408-0.408c-0.816,0-2.855,0.816-6.119,2.448l-4.896,2.448l-3.264,1.02c-1.361,0.682-2.178,1.02-2.449,1.02   l-0.814,0.612c-2.314,0.545-3.469,1.361-3.469,2.448c0,1.09,0.816,2.448,2.447,4.08c0.135,0.953,0.543,2.381,1.225,4.284   c2.174,0.274,3.398,0.408,3.672,0.408c0.271,0,0.408-0.067,0.408-0.204c0-0.134,0.133-0.204,0.408-0.204   c0.271,0,0.576,0.172,0.918,0.51c0.338,0.341,0.645,0.51,0.918,0.51c1.086,0,2.617,0.204,4.59,0.612   c1.971,0.408,3.434,0.612,4.387,0.612c1.902,0.137,3.533,0.478,4.895,1.02l0.816-0.816c2.174,0.545,5.576,2.244,10.201,5.1   l-0.408,0.204c0.27,0.816,1.02,1.906,2.244,3.264h1.02c0.408,0,0.541-0.067,0.408-0.204l2.447,2.652   c-0.137,0.137-0.238,0.376-0.307,0.714c-0.068,0.341-0.172,0.58-0.305,0.714c4.488,2.993,6.732,4.829,6.732,5.508   c0,0.545-0.104,1.396-0.307,2.55c-0.205,1.157-0.307,2.008-0.307,2.55c0,0.816,0.066,1.769,0.205,2.856   c-0.408-0.271-0.75-0.408-1.021-0.408c0.271-0.679,0.408-1.428,0.408-2.244s-0.137-1.766-0.408-2.856   c-0.953,5.578-1.768,9.658-2.447,12.24c-1.361,4.896-3.334,8.976-5.916,12.24c-0.137,0.274-0.479,0.816-1.02,1.632l0.408-0.612   l-0.613-0.612c-0.408,0.545-1.02,1.224-1.836,2.04c0.135,0.137,0.338,0.274,0.613,0.408l1.02-0.612   c-0.137,0.682-0.545,1.498-1.225,2.448c-1.09,0.545-2.652,1.499-4.691,2.856c-0.545-1.225-1.158-1.836-1.836-1.836   c-0.137,0.137-1.158,0.479-3.061,1.02c-0.273,0.408-0.137,0.612,0.408,0.612c-0.682,1.361-1.564,2.04-2.652,2.04   c-0.273,0-0.408-0.066-0.408-0.204c0-0.134-0.137-0.204-0.408-0.204c-0.273,0-0.646,0.172-1.121,0.51   c-0.479,0.342-0.852,0.511-1.123,0.511c-0.137-0.271-0.406-0.612-0.814-1.021c-0.137,0.137-0.342,0.307-0.613,0.51   c-0.273,0.205-0.477,0.377-0.611,0.511c0.68,0,1.154,0.137,1.428,0.407c-0.408,0-1.055-0.066-1.938-0.203   c-0.887-0.135-1.529-0.204-1.938-0.204c0.408,0,0.746-0.134,1.02-0.408c-0.408-0.408-0.682-0.612-0.816-0.612   c-0.545,0-1.02,0.204-1.428,0.612l1.02,1.224c-0.273-0.271-0.545-0.408-0.816-0.408l-0.408,0.613   c0.408,0.407,0.746,0.611,1.021,0.611c-4.08,1.357-5.646,2.04-4.693,2.04l-1.223-0.408c-0.275,0-0.918,0.373-1.939,1.122   c-1.02,0.746-1.666,1.122-1.938,1.122c-0.682,0-1.701,0.067-3.059,0.204c-1.361,0.134-2.383,0.204-3.061,0.204   c-0.275,0-0.816-0.408-1.633-1.225c-0.137,0.271-0.07,0.612,0.205,1.021c-1.225,0.408-2.928,0.883-5.102,1.428   c-9.791,1.225-16.727,1.836-20.807,1.836h-2.041c-0.816,0-2.447-0.478-4.895-1.428c-0.139,0-0.342-0.07-0.613-0.204h-1.02   c-0.408,0-0.545,0.103-0.408,0.306c0.135,0.204,0.066,0.307-0.203,0.307c-0.275,0-0.613-0.138-1.021-0.408   c-0.408-0.137-0.885-0.137-1.428,0c0.68,0.679,1.291,1.02,1.836,1.02h-0.816c-0.682,0.135-1.156,0.204-1.428,0.204   c-0.273,0-0.646-0.238-1.121-0.714c-0.479-0.478-0.918-0.714-1.326-0.714c-0.682,0-1.02,0.338-1.02,1.021l-1.428-0.612   c-0.953-0.408-1.43-0.749-1.43-1.021c0-0.137,0.068-0.273,0.205-0.407c-0.137-0.274-0.545-0.408-1.225-0.408h-0.816   c-0.133,0.134-0.338,0.204-0.611,0.204c0.408,0-2.039-0.749-7.344-2.244c-1.633-0.545-8.568-1.77-20.809-3.672   c0.408,0,0.613-0.271,0.613-0.816c3.809,1.361,6.664,2.04,8.566,2.04c0.684,0,1.158-0.134,1.43-0.407   c-2.582-1.088-4.352-1.633-5.305-1.633c-0.271,0-0.439,0.07-0.51,0.204c-0.068,0.138-0.236,0.204-0.51,0.204   c-0.135-0.271-0.613-0.612-1.428-1.02c-2.041-1.088-3.943-1.633-5.713-1.633c0-0.271,0.07-0.541,0.203-0.816   c-1.357-1.086-3.193-2.718-5.508-4.896c-0.133-0.408,0-1.428,0.408-3.06c-0.271-0.134-0.611-0.612-1.02-1.428h1.225   c-0.135,0,0,0.204,0.408,0.612l0.611-0.612c-0.408-0.134-1.563-0.816-3.469-2.04c-0.133-0.408-0.541-1.02-1.223-1.836   c0.406-0.95,1.156-1.699,2.244-2.244c0-0.408-0.477-0.612-1.43-0.612c0.408-0.816,1.361-1.358,2.857-1.632   c-0.135-1.358,0-2.174,0.408-2.448c1.631,0.408,4.217,0.886,7.752,1.428l0.611,0.612c0.408,0,1.09,0.274,2.039,0.816   c0.275-0.271,0.408-0.679,0.408-1.224c2.314,1.224,4.014,1.836,5.102,1.836c0.682,0,1.02-0.475,1.02-1.428   c0.137,0.274,0.408,0.408,0.816,0.408c0.545,0,0.814-0.271,0.814-0.816c0.684,0.408,1.566,0.886,2.652,1.428   c4.08,0.816,7.006,1.224,8.771,1.224c0.275,0,0.479-0.134,0.613-0.408c0.137-0.271,0.34-0.408,0.611-0.408   c0.273,0,0.51,0.239,0.715,0.714c0.203,0.478,0.443,0.714,0.713,0.714c0.816,0,2.008,0.172,3.57,0.51   c1.563,0.341,2.754,0.51,3.57,0.51c5.438,0,11.15-0.204,17.137-0.612c-0.139-0.134-0.479-0.204-1.021-0.204   c2.582-0.271,6.051-0.746,10.404-1.428c8.977-0.271,18.902-1.766,29.785-4.488c0.541-0.408,0.814-0.679,0.814-0.816   c1.359-0.134,2.787-0.746,4.285-1.836c0-0.816-0.275-1.224-0.816-1.224h-0.816l1.225-0.612c-0.273-0.271-0.75-0.408-1.428-0.408   c0.816-0.134,2.855-1.154,6.119-3.06l-7.955-1.836c1.631,0.545,2.922,0.816,3.875,0.816h5.1v-1.428   c-4.486-0.542-9.588-1.495-15.299-2.856l-1.225,0.204c0.68,0.682,1.02,1.09,1.02,1.224c-1.359-0.542-2.518-0.816-3.467-0.816   c0.133,0,0.338-0.134,0.611-0.408c-0.273-0.408-0.816-0.612-1.631-0.612c-0.684,0-1.225,0.137-1.633,0.408   c-0.273,0.137-0.137,0.682,0.408,1.632c-0.682-0.134-2.789-1.428-6.324-3.876c-0.408,0.408-0.479,0.749-0.205,1.02   c-0.682-0.408-1.359-0.612-2.039-0.612c-1.361,0-2.244,1.294-2.652,3.876c-0.816-0.408-1.631-0.612-2.447-0.612   c-0.275,0-0.715,0.07-1.326,0.204c-0.611,0.137-1.055,0.204-1.326,0.204c-0.273,0.274-0.203,0.816,0.203,1.632   c-1.631-0.134-2.926,0.137-3.875,0.816c0.271-0.816,0.066-1.766-0.611-2.856c-0.816,0.137-1.703,1.428-2.652,3.876   c0.133-0.95,0.066-1.632-0.205-2.04h-1.02c-0.137,0.408-0.203,0.816-0.203,1.224c0,0.408,0.066,0.816,0.203,1.224   c-0.545-0.134-1.156,0-1.836,0.408c-0.137-0.679-0.408-1.562-0.816-2.652c-0.545,0.682-1.428,1.294-2.652,1.836   c0.271-0.542,0.816-1.087,1.633-1.632c0.135-1.087,0.408-2.244,0.816-3.468l-0.205-1.632c-0.273,0.274-0.408,0.545-0.408,0.816   c0,0.137,0.068,0.274,0.205,0.408c-0.273,0.137-0.611,0.408-1.02,0.816c-0.684-0.542-0.953-1.224-0.816-2.04   c0.133-1.087,0.133-1.97,0-2.652c-1.906,0.816-2.723,2.652-2.449,5.508c0-0.134-0.102-0.271-0.305-0.408   c-0.205-0.134-0.307-0.338-0.307-0.612c0-0.816,0.949-2.856,2.855-6.12l-0.203-1.632c-0.408,0-0.816,0.545-1.225,1.632   c-0.137-0.271-0.545-0.746-1.223-1.428c-0.953,0.408-1.43,1.09-1.43,2.04c-0.406-0.408-0.748-0.612-1.02-0.612h-0.611   c-0.137,0.137-0.273,0.204-0.408,0.204c1.766-2.174,2.652-3.672,2.652-4.488c0-0.408-0.102-0.679-0.307-0.816   c-0.203-0.134-0.307-0.338-0.307-0.612h-0.814c-1.09,0-1.975,0.682-2.652,2.04c-0.137,0-0.443-0.134-0.918-0.408   c-0.479-0.271-0.852-0.408-1.123-0.408c0.408-3.806,4.215-12.444,11.424-25.908c2.721-2.856,5.916-7.003,9.59-12.444v1.428   c1.494-1.495,3.672-3.468,6.527-5.916c2.174-1.357,3.602-2.311,4.283-2.856c1.904-1.495,2.924-2.719,3.061-3.672   c2.039,0,5.846-1.562,11.424-4.692l7.957-4.488c3.941-1.357,6.186-2.719,6.73-4.08c0.135,0.137,0.408,0.204,0.816,0.204   c0.68,0,2.174-0.746,4.488-2.244c-0.408-0.408-0.75-0.612-1.02-0.612l0.816-1.02c0.133,0,0.234,0.239,0.305,0.714   c0.066,0.478,0.307,0.714,0.715,0.714s0.816-0.204,1.223-0.612c-0.273,0,0.068,0.478,1.021,1.428   c0.678-0.271,1.699-0.746,3.059-1.428v2.448c-0.545-0.134-0.953-0.134-1.223,0v0.612L456.14,35.7   c-0.408-0.134-0.682-0.204-0.814-0.204l-0.205,2.04c2.041,0,3.264-0.816,3.672-2.448c3.398-1.632,5.508-2.244,6.324-1.836   c0,0.274-0.203,0.682-0.611,1.224c0.133,0.137,0.408,0.204,0.816,0.204c0.27-0.679,0.406-1.562,0.406-2.652l1.836,1.224   c0.271,1.361,0.408,2.244,0.408,2.652c0,0.137-0.238,0.51-0.713,1.122c-0.479,0.612-0.715,1.122-0.715,1.53   c0,0.274,0.205,0.886,0.613,1.836c0.133-0.271,0.203-0.746,0.203-1.428c0.135,0,0.338-0.134,0.611-0.408   c0.271-0.271,0.613-0.408,1.021-0.408c0.27,0,0.338,0.137,0.203,0.408c-0.137,0.274-0.07,0.408,0.203,0.408   c0.408,0,0.781-0.134,1.123-0.408c0.338-0.271,0.576-0.408,0.715-0.408c0,0.274-0.07,0.749-0.205,1.428V40.8   c0.816,0.953,1.225,1.769,1.225,2.448c-0.137,0.408-0.682,2.448-1.633,6.12c0-0.816,0.135-1.291,0.408-1.428v-1.224   c-0.137-0.271-0.342-0.408-0.611-0.408l-1.021,3.06c0.135,0.137,0.477,0.204,1.021,0.204c0.541,0,1.02-0.338,1.428-1.02   C472.257,48.826,472.527,48.96,472.666,48.96z M338.025,134.844h-1.02v-0.612h1.02V134.844z M344.552,145.656l-1.836-0.407v-0.612   l1.836,0.407V145.656z M358.425,146.676v-0.612h-1.225v0.612H358.425z M358.833,143.413v-0.613h-1.021v0.613H358.833z    M359.853,144.84v-0.612h-0.816v0.612H359.853z M361.281,145.249v-0.612h-1.225v0.612H361.281z M361.078,147.493v-0.613h-1.021   v0.613H361.078z M361.281,144.228v-0.612h-0.816v0.612H361.281z M363.117,144.636v-0.612h-1.225v0.612H363.117z M364.953,146.064   v-0.612l-2.447-0.408v0.612L364.953,146.064z M364.544,138.72v-0.612h-0.816v0.612H364.544z M365.361,144.84v-0.612h-1.633v0.612   H365.361z M365.564,148.512V147.9l-1.836-0.407v0.611L365.564,148.512z M367.4,146.676v-0.612l-2.242-0.408v0.612L367.4,146.676z    M368.625,139.536v-0.612h-1.02v0.612H368.625z M369.644,146.676v-0.612h-1.428v0.612H369.644z M371.074,139.944v-0.612h-2.041   v0.612H371.074z M371.48,147.084v-0.612h-1.02v0.612H371.48z M371.48,149.124v-0.611h-1.02v0.611H371.48z M372.91,149.124v-0.611   h-1.021v0.611H372.91z M378.621,146.676v-0.612l-5.916-0.408v0.612L378.621,146.676z M378.212,147.696v-0.611l-5.508-0.205v0.613   L378.212,147.696z M374.949,149.532v-0.611h-2.039v0.611H374.949z M379.64,150.348v-0.612l-3.875-0.815v0.611L379.64,150.348z    M380.662,149.94v-0.612h-0.816v0.612H380.662z M381.884,153l-1.631-0.816l-0.205,0.612l1.633,0.815L381.884,153z M383.72,147.084   v-0.612h-1.836v0.612H383.72z M386.169,143.004v-0.612h-3.061v0.612H386.169z M386.169,150.348v-0.612h-2.449v0.612H386.169z    M425.132,150.96c-0.545,0-1.396-0.07-2.549-0.204c-1.158-0.138-2.008-0.204-2.551-0.204c-0.273,0-0.545,0.169-0.816,0.51   c-0.273,0.338-0.545,0.51-0.816,0.51c-0.273,0-0.545-0.102-0.814-0.306c-0.275-0.204-0.479-0.306-0.613-0.306   c-1.631,0-3.197,0.338-4.691,1.02l-0.816-0.816c-1.09,0.135-2.721,0.542-4.895,1.225c0.27-0.274,0.406-0.545,0.406-0.816h-2.447   c0,0.271-0.07,0.542-0.203,0.816c-0.408-0.408-0.816-0.612-1.225-0.612c0.408,0.408,0.541,0.679,0.408,0.816   c-1.09-0.274-2.041-0.408-2.855-0.408c0.678,0,0.814,0.134,0.406,0.408h-1.02c-0.408-0.408-1.225-0.612-2.447-0.612h-5.1   c-0.408,0.134-1.836,0.204-4.285,0.204h-2.855c0.541,0,1.393,0.306,2.551,0.918c1.152,0.612,1.867,0.918,2.141,0.918   c0.271,0,0.68-0.102,1.225-0.306c0.541-0.204,0.949-0.307,1.225-0.307c0.27,0,0.27,0.134,0,0.408   c-0.139,0.134-0.07,0.204,0.203,0.204c0.541,0,1.291-0.102,2.244-0.306c0.949-0.204,1.633-0.307,2.039-0.307   c0.543,0.408,0.885,0.612,1.021,0.612c3.396,0,5.779-0.137,7.139-0.408c0-0.682,0.068-1.09,0.205-1.224   c0.133,0,0.203,0.169,0.203,0.51c0,0.338,0.205,0.51,0.613,0.51c0.541,0,0.744-0.137,0.611-0.407l0.611,0.815   c2.857,0,5.576-0.408,8.16-1.224c-0.273,0.271-0.07,0.408,0.613,0.408c1.223,0,2.58-0.408,4.08-1.225   c0,0.271,0.475-0.07,1.428-1.02l0.203,0.611c0.135,0.408,0.408,0.612,0.816,0.612c0.271,0,0.713-0.172,1.326-0.51   C424.623,151.129,424.996,150.96,425.132,150.96z M387.597,147.084v-0.612h-2.041v0.612H387.597z M388.414,150.144l-1.43-0.408   v0.408l1.225,0.408L388.414,150.144z M390.861,126.888h-1.02v-0.612h1.02V126.888z M391.064,80.172l-0.611,1.428l-0.408-0.204   l0.408-1.224H391.064z M392.085,77.316l-0.816,2.448l-0.611-0.204l0.814-2.244H392.085z M392.085,98.124v-1.02h-0.613v1.02H392.085   z M394.125,150.348v-0.612h-2.039v0.612H394.125z M394.125,99.96l-0.203-0.612l-0.816,0.408v0.612L394.125,99.96z M400.041,147.493   v-0.613h-5.1v0.613H400.041z M396.166,150.348v-0.612h-1.021v0.612H396.166z M397.593,150.348v-0.612h-1.02v0.612H397.593z    M399.429,128.316v-0.612h-2.449v0.612H399.429z M399.429,150.348v-0.612h-1.02v0.612H399.429z M403.304,128.316v-0.612   l-3.467-0.204v0.612L403.304,128.316z M401.876,150.348v-0.612h-2.039v0.612H401.876z M400.857,151.368v-0.611h-1.02v0.611H400.857   z M401.673,157.284l-0.205,0.612l-1.02-0.612l0.205-0.407L401.673,157.284z M404.121,156.468h-2.039v-0.816h2.039V156.468z    M403.304,150.348v-0.612h-0.814v0.612H403.304z M404.937,59.568l-1.225,1.224l-0.408-0.408l1.225-1.224L404.937,59.568z    M405.957,151.368v-0.611h-2.447v0.611H405.957z M405.548,150.348v-0.612h-1.631v0.612H405.548z M409.017,147.084v-0.612h-1.225   v0.612H409.017z M410.242,156.468c-0.816,0-1.361,0.134-1.633,0.408l0.816-1.021C409.558,155.99,409.833,156.194,410.242,156.468z    M409.628,145.86l-0.611-0.408l-0.205,0.408l0.408,0.408L409.628,145.86z M418.4,155.04c-1.904,0.408-3.672,0.612-5.303,0.612   c2.582-0.815,3.672-1.224,3.264-1.224C417.041,154.428,417.718,154.632,418.4,155.04z M415.953,150.552v-0.612h-1.428v0.612   H415.953z M416.361,149.532v-0.611h-1.428v0.611H416.361z M417.38,145.656v-0.612h-1.428v0.612H417.38z M422.48,154.224h-1.836   v-0.612h1.836V154.224z M423.91,153.612h-1.43V153h1.43V153.612z M426.765,150.348h-2.652c0.949,0,1.699,0.271,2.244,0.815   C426.357,151.027,426.492,150.756,426.765,150.348z M430.232,151.368v-0.611h-0.814v0.611H430.232z M432.476,148.92v-0.612h-1.02   v0.612H432.476z M433.089,147.696v-0.611h-1.225v0.611H433.089z M433.292,149.532l-0.203-0.611l-1.225,0.407v0.612L433.292,149.532   z M434.517,147.493v-0.613h-1.225v0.613H434.517z M435.333,111.588h-1.021v-0.612h1.021V111.588z M438.597,117.096l-1.02,0.408   v-0.408l0.814-0.408L438.597,117.096z M440.025,149.736l-1.225,0.816l-0.203-0.408l1.225-0.816L440.025,149.736z M442.064,146.064   v-0.612h-1.223v0.612H442.064z M444.921,147.493h-0.816v-0.613h0.816V147.493z M448.593,138.108v-0.612h-1.02v0.612H448.593z    M448.593,144.024l-0.205-0.408l-0.814,0.408v0.408L448.593,144.024z M451.246,136.884l-0.205-0.408l-2.244,0.612v0.612   L451.246,136.884z M450.224,150.144l-1.223,0.408v-0.408l1.02-0.408L450.224,150.144z M457.57,96.696   c-0.547-1.087-3.197-2.311-7.957-3.672c-0.137,0.137-0.203,0.749-0.203,1.836C452.398,95.134,455.121,95.746,457.57,96.696z    M450.429,139.128v-0.612h-1.02v0.612H450.429z M458.384,139.536c-1.631,0.137-2.926,1.157-3.875,3.06   c-0.137-0.271-0.408-0.408-0.816-0.408c0,0.273,0.135,0.682,0.408,1.225C456.14,142.461,457.57,141.168,458.384,139.536z    M460.22,65.484l-4.283,1.836v-0.408l4.08-2.04L460.22,65.484z M458.384,97.716l-2.039-0.816v0.612l1.836,0.612L458.384,97.716z    M459.201,100.572l-1.225-1.836l-0.406,0.408l1.223,1.632L459.201,100.572z M458.589,147.084h-0.816v-0.612h0.816V147.084z    M461.853,100.572c-1.225,0.682-1.77,1.224-1.633,1.632c0.543,0.545,0.951,0.816,1.225,0.816c0-0.271,0.066-0.679,0.203-1.224   C461.783,101.254,461.853,100.846,461.853,100.572z M461.242,65.28h-1.021v-0.612h1.021V65.28z M462.669,137.496l-1.633,1.632   l-0.203-0.408l1.631-1.632L462.669,137.496z M462.669,42.432l-0.205-0.408l-1.223,0.816l0.203,0.408L462.669,42.432z    M462.669,62.628l-1.021,0.816l-0.406-0.612l1.223-0.816L462.669,62.628z M464.097,56.916h-1.428l-0.613,0.816   C462.873,57.732,463.552,57.461,464.097,56.916z M464.505,103.02c-0.545-0.408-1.225-1.087-2.041-2.04   c0.135,0.274,0.205,0.545,0.205,0.816c0,0.408-0.137,0.749-0.408,1.02c1.086,1.09,1.631,1.565,1.631,1.428   C463.892,103.702,464.097,103.294,464.505,103.02z M466.544,39.372c-0.682-0.134-1.428-0.542-2.244-1.224   c-0.273-0.271-0.479-0.408-0.611-0.408v1.224c-0.137,0.545-0.205,0.886-0.205,1.02c0.135-0.134,0.271-0.338,0.408-0.612   c0.135-0.271,0.271-0.475,0.408-0.612c0.271,0.816,0.135,1.565-0.408,2.244l-0.814,1.02   C464.98,41.753,466.136,40.87,466.544,39.372z M464.708,59.364h-1.225v-0.612h1.225V59.364z M466.341,58.548l-1.02,0.612v-0.612   l0.814-0.408L466.341,58.548z M466.75,134.64h-0.613l-0.408-0.816l0.613-0.204L466.75,134.64z M467.769,42.432l-0.408-0.408   l-0.816,0.816l0.408,0.408L467.769,42.432z M468.177,49.572v-1.224h-0.613v1.224H468.177z M470.216,44.064v-4.08   c-0.273-0.271-0.748-0.408-1.428-0.408c0,0.274-0.137,0.612-0.408,1.02c-0.273,0.408-0.408,0.816-0.408,1.224l0.613,0.612v2.856   C468.994,45.017,469.535,44.609,470.216,44.064z M469.605,46.104l-0.205-0.612l-1.223,0.408v0.612L469.605,46.104z    M470.013,118.524H469.4v-1.02h0.613V118.524z M472.257,22.236l-0.816,0.816h-1.836v-2.448l1.428-1.428   C471.304,19.313,471.712,20.333,472.257,22.236z M471.033,119.544h-0.611l-0.408-0.816l0.611-0.204L471.033,119.544z    M487.761,33.456c0,0.953-0.682,2.177-2.041,3.672l-2.447,2.04c-0.273-0.271-0.887-1.087-1.836-2.448   c-0.408,0.274-1.428,0.07-3.061-0.612c0.816-0.542,1.291-1.087,1.428-1.632c-2.447-0.679-4.15-2.786-5.1-6.324l-1.428,1.428   l-2.447-2.448c1.086-1.766,1.902-2.652,2.447-2.652l0.611,0.816c0.135-0.816,0.477-1.903,1.021-3.264   c1.631-2.448,3.672-3.672,6.119-3.672c0.271,0,0.949,0.204,2.041,0.612c1.086,0.408,1.902,0.612,2.447,0.612   c0.133,0.545,0.066,1.157-0.205,1.836c1.633,1.632,2.449,2.926,2.449,3.876c0,0.545-0.816,2.244-2.449,5.1   C486.945,31.349,487.761,32.369,487.761,33.456z M473.48,124.44l-0.406,1.428l-0.408-0.204l0.408-1.224H473.48z M503.673,43.248   c-1.906,1.361-4.83,3.264-8.773,5.712c-1.09,0.953-2.584,2.244-4.486,3.876c-0.139,0-0.408-0.134-0.816-0.408   C491.636,49.301,496.33,46.241,503.673,43.248z M505.101,37.944c0,0.274-0.07,0.612-0.205,1.02   c-0.137,0.408-0.203,0.749-0.203,1.02c-0.682-0.134-1.361,0-2.039,0.408c-0.547-0.679-0.816-1.087-0.816-1.224   c0-0.271,0.133-0.781,0.408-1.53c0.27-0.746,0.408-1.256,0.408-1.53c0.541-0.134,1.357-0.134,2.447,0V37.944z"
       id="path1006" /></g><path
     style="opacity:1;fill:#dedbe3;fill-opacity:1;stroke-width:0.57980579"
     d="m 81.082539,153.19803 c -3.990009,-1.71496 -10.921825,-3.65144 -13.141895,-3.67132 -1.469437,-0.0132 -2.397056,-0.74361 -3.672142,-2.89162 -1.583177,-2.667 -4.052836,-6.23865 -5.1332,-7.42371 -0.66422,-0.72857 -1.213874,-2.14549 -1.232924,-3.17826 -0.06135,-3.32602 -3.293767,-2.3999 -4.186971,1.19961 -0.390104,1.57208 -9.484182,11.9353 -11.349798,12.93375 -0.688943,0.36871 -1.54865,0.26366 -2.695387,-0.32934 -0.926085,-0.47889 -2.695154,-1.03244 -3.931264,-1.2301 -2.151571,-0.34405 -2.29133,-0.26743 -3.275196,1.79577 -0.982187,2.05966 -1.130332,2.14139 -3.343635,1.84452 -3.076846,-0.41269 -5.085617,-1.80907 -6.102076,-4.2418 -0.458952,-1.09843 -1.697399,-2.96975 -2.752104,-4.1585 -2.324348,-2.61974 -7.533457,-11.62442 -8.775691,-15.17001 -1.9972141,-5.70046 -4.3589845,-17.82354 -5.8053182,-29.798967 -0.5326914,-4.4106 -0.8248957,-8.162911 -0.6493429,-8.338465 0.4716626,-0.47166 -0.735028,-2.48594 -1.4892489,-2.48594 -0.8650319,0 -0.1974332,13.979082 0.9137625,19.133592 0.44685,2.0728 0.7096774,3.87745 0.5840608,4.01032 C 4.084502,112.21266 2.7227824,105.85628 1.801199,96.059675 0.87284168,86.191068 1.6949827,75.180267 3.6839115,70.844813 c 0.7572959,-1.650749 1.5666449,-2.884095 1.7985534,-2.740767 0.2319085,0.143327 0.690666,-0.20149 1.0194616,-0.76626 0.5439634,-0.934363 0.599398,-0.938544 0.6154407,-0.04641 0.023343,1.297987 1.1134364,1.924413 1.9292184,1.108631 0.4813774,-0.481378 0.383981,-1.102855 -0.3739057,-2.385855 -1.466512,-2.482607 -0.5563283,-3.523498 1.2189489,-1.393997 l 1.4095322,1.69078 -0.27961,-2.609126 c -0.153785,-1.43502 -0.466805,-3.065723 -0.695599,-3.623786 -0.5337727,-1.30195 0.697084,-1.34878 2.099214,-0.07987 0.964046,0.872449 1.059954,0.827133 1.438094,-0.679497 l 0.405161,-1.61429 1.019722,1.259304 c 0.560847,0.692617 1.438252,1.259303 1.94979,1.259303 0.765897,0 0.631988,-0.590494 -0.758625,-3.345281 -2.600992,-5.152536 -2.577428,-6.603128 0.155733,-9.587045 2.329764,-2.54351 3.405187,-2.666674 5.31269,-0.608444 1.615654,1.743319 1.774295,3.292472 0.618629,6.040993 -0.581955,1.384064 -0.646468,2.359853 -0.234206,3.54247 0.485989,1.39411 0.793471,1.578655 2.107763,1.265043 3.093308,-0.738116 3.659397,-1.318884 3.492318,-3.582875 -0.152361,-2.064562 0.644775,-2.614157 1.951522,-1.3455 0.974089,0.945695 1.603462,7.188227 1.609291,15.962009 0.008,12.050329 1.890285,30.283052 3.583249,34.709207 0.652885,1.70693 1.628796,2.14918 1.628796,0.73812 0,-0.47099 0.652281,-1.28373 1.449514,-1.8061 0.797233,-0.52236 1.449514,-1.35525 1.449514,-1.85085 0,-0.495604 0.791254,-2.30312 1.758341,-4.016707 0.967088,-1.713581 1.620868,-3.33804 1.452845,-3.609911 -0.168023,-0.271865 0.02117,-0.619656 0.420419,-0.772864 0.399253,-0.153208 1.183541,-1.550337 1.742862,-3.104732 0.559321,-1.554396 1.927093,-3.819117 3.039493,-5.032715 1.112399,-1.213596 2.022544,-2.681378 2.022544,-3.261737 0,-1.342166 2.638514,-7.34791 3.447949,-7.848168 0.33588,-0.207586 0.610692,-0.101118 0.610692,0.236595 0,0.337714 0.260912,0.614025 0.579805,0.614025 0.318893,0 0.579806,-0.493911 0.579806,-1.097579 0,-0.603668 0.391369,-1.247761 0.869709,-1.431317 0.502577,-0.192858 0.869708,-1.059683 0.869708,-2.053448 0,-2.596006 1.620615,-9.766903 2.820176,-12.478709 1.272018,-2.875599 4.267724,-5.551372 6.215135,-5.551372 0.780157,0 1.971287,0.646843 2.669199,1.449514 1.673349,1.924523 3.090174,1.827935 5.075782,-0.34603 1.390804,-1.522734 1.820521,-1.698922 2.828229,-1.159611 0.65354,0.349763 1.717176,0.635933 2.363631,0.635933 1.842002,0 2.439005,3.536152 2.350839,13.924357 -0.04325,5.096829 0.141224,9.332395 0.409958,9.412368 0.268728,0.07997 0.570361,-0.702558 0.67029,-1.738961 0.09993,-1.036402 0.42607,-1.884368 0.724757,-1.884368 0.298687,0 0.54307,-0.782738 0.54307,-1.739418 0,-1.099387 0.296889,-1.739417 0.806852,-1.739417 0.443771,0 0.970565,-0.652281 1.170656,-1.449514 0.200097,-0.797233 0.637334,-1.449515 0.971639,-1.449515 0.334304,0 0.477464,0.456597 0.318122,1.01466 -0.159342,0.558063 -0.613232,4.341296 -1.008648,8.407184 -0.524909,5.397393 -0.926709,7.392523 -1.488778,7.392523 -0.439366,0 -0.769843,0.636943 -0.769843,1.483733 0,0.841509 0.250963,1.328627 0.579805,1.125393 0.318894,-0.197087 0.579806,0.178882 0.579806,0.835489 0,0.656607 -0.326141,1.128603 -0.724757,1.04888 -0.497311,-0.09946 -0.779329,0.901291 -0.898641,3.188932 -0.107032,2.052106 0.06015,3.333883 0.434854,3.333883 0.352111,0 0.608738,1.358786 0.608738,3.223152 0,2.001118 -0.219827,3.087286 -0.579805,2.864808 -0.318894,-0.197087 -0.579806,0.06383 -0.579806,0.579806 0,0.515981 0.260912,0.776888 0.579806,0.579806 0.937505,-0.579411 0.667136,2.394662 -0.289903,3.188932 -1.054476,0.87513 -1.148862,3.26893 -0.144952,3.67628 0.516184,0.20944 0.541052,0.43192 0.08641,0.77307 -0.35109,0.26345 -0.7744,1.21165 -0.940689,2.10711 -0.226727,1.22091 -0.103321,1.55174 0.493398,1.32276 0.437654,-0.16794 0.795737,-0.0526 0.795737,0.25625 0,0.30889 -0.260913,0.56161 -0.579806,0.56161 -0.318893,0 -0.579806,0.39137 -0.579806,0.86971 0,0.47834 0.260913,0.86971 0.579806,0.86971 0.318893,0 0.579806,0.68423 0.579806,1.52051 0,1.27604 0.137837,1.40611 0.857295,0.80902 1.18056,-0.97978 5.42795,-7.5151 8.338604,-12.83033 2.707188,-4.94368 19.21458,-41.577629 19.21458,-42.641867 0,-0.375447 0.19569,-0.769602 0.43486,-0.8759 0.23917,-0.106298 1.31961,-1.8892 2.40097,-3.962006 3.45032,-6.613694 4.17406,-7.636129 4.94964,-6.99245 0.48333,0.401126 0.92323,0.371052 1.38926,-0.09498 1.12462,-1.124627 0.76104,0.256913 -0.77453,2.943017 -0.79339,1.387846 -1.44253,2.860179 -1.44253,3.271851 0,0.41167 -0.3651,0.888596 -0.81134,1.059835 -0.44625,0.171239 -1.13151,1.308032 -1.52282,2.526208 -0.39131,1.218175 -1.09082,2.649945 -1.55447,3.18171 -0.46365,0.531766 -0.7568,1.546225 -0.65146,2.254353 0.18936,1.272828 0.21303,1.268595 2.07592,-0.371203 1.0364,-0.91229 1.88437,-1.933497 1.88437,-2.269349 0,-0.335852 1.1741,-2.497306 2.60912,-4.803233 1.43502,-2.305926 2.60913,-4.427384 2.60913,-4.714353 0,-1.160225 3.47358,-8.167331 4.04874,-8.167331 0.34012,0 0.84374,-0.587054 1.11915,-1.304563 0.5518,-1.437576 8.47818,-11.530358 9.00808,-11.47013 0.78841,0.08961 3.20309,-1.91905 3.52456,-2.931932 0.19338,-0.609258 0.6041,-1.107742 0.91272,-1.107742 0.33479,0 0.30101,0.486038 -0.0837,1.204918 -0.35466,0.662704 -0.51567,1.541557 -0.35778,1.953006 0.15789,0.411449 -0.63557,2.021764 -1.76323,3.578479 -1.12767,1.556716 -4.1068,5.918183 -6.62029,9.692151 -4.18824,6.288575 -5.29069,8.54828 -4.13513,8.475829 0.23917,-0.01499 3.04398,-3.602543 6.23292,-7.972329 5.27248,-7.224874 5.81533,-7.7939 5.98858,-6.277429 l 0.19052,1.667635 2.34613,-2.247441 c 1.29037,-1.236093 2.24148,-1.986529 2.11358,-1.667636 -0.31425,0.783476 -1.94589,4.343751 -4.32231,9.431436 -2.21016,4.731706 -2.33774,5.353611 -1.09825,5.353611 1.14581,0 1.12492,0.114754 -0.66315,3.643061 -1.61982,3.196315 -4.17424,9.673981 -4.67956,11.866743 -0.16535,0.71751 -0.53112,1.304563 -0.81285,1.304563 -0.28171,0 -0.51221,0.391369 -0.51221,0.869709 0,0.47834 0.25273,0.869709 0.56161,0.869709 0.30888,0 0.39404,0.436665 0.18925,0.970368 -0.2821,0.735137 -0.13714,0.880102 0.598,0.598003 1.69913,-0.652018 1.13457,1.937783 -1.34886,6.187552 -1.27557,2.182831 -2.31922,4.441656 -2.31922,5.019613 0,0.577957 -0.67548,1.853587 -1.50106,2.834734 -0.82558,0.981144 -1.22514,1.783903 -0.8879,1.783903 0.33723,0 0.46297,0.391369 0.27941,0.869708 -0.18356,0.47834 -0.72511,0.869709 -1.20345,0.869709 -0.51747,0 -0.74036,0.33707 -0.55035,0.832247 0.17566,0.45774 0.0849,0.914337 -0.20161,1.014661 -0.28653,0.100329 -0.13154,0.983472 0.34442,1.962549 0.85152,1.751611 0.74363,2.053162 -6.73326,18.819623 -9.47998,21.25828 -12.55391,26.93369 -18.42025,34.00936 -1.53738,1.8543 -3.258665,4.16237 -3.825077,5.12905 -1.207097,2.06009 -4.191155,3.99141 -4.755706,3.07794 -0.205251,-0.33209 -1.121669,-0.45411 -2.036492,-0.27115 -1.368614,0.27372 -1.886132,0.0313 -2.920917,-1.36834 -1.322108,-1.78824 -2.232803,-1.80998 -2.232803,-0.0533 0,0.80201 -0.337041,0.98055 -1.449514,0.76789 -1.57615,-0.3013 -1.834946,0.37376 -0.849311,2.21544 0.764775,1.42899 0.431027,1.3925 -3.76683,-0.41179 z m -1.226017,-46.01079 c 0.210609,-4.62395 0.518202,-9.189923 0.683545,-10.146603 0.224495,-1.29895 0.151028,-1.520448 -0.290129,-0.874701 -0.778372,1.139348 -1.118243,4.829824 -1.415469,15.369844 -0.136799,4.85124 -0.04969,7.67153 0.196937,6.37786 0.243206,-1.27557 0.614507,-6.10245 0.825116,-10.7264 z M 102.86726,93.725656 c 0.62653,-1.228122 1.00861,-2.444166 0.84906,-2.702324 -0.15955,-0.258165 -0.0199,-1.447787 0.31025,-2.643613 0.33018,-1.195826 0.47385,-2.300698 0.31928,-2.45528 -0.51976,-0.51975 -3.28232,4.824326 -3.28232,6.349522 0,0.83012 -0.26091,1.67056 -0.5798,1.867647 -0.3189,0.197088 -0.579809,1.027173 -0.579809,1.844629 0,1.286102 0.122849,1.384333 0.912089,0.729326 0.50165,-0.416329 1.42471,-1.761786 2.05125,-2.989907 z M 81.14844,92.806432 c 0.272531,-1.785796 -0.760393,-1.600067 -1.104217,0.198543 -0.164897,0.862606 -0.03479,1.390264 0.314156,1.273949 0.327607,-0.109201 0.683133,-0.77182 0.790061,-1.472492 z m 0.29272,-6.6331 c -0.507904,-0.507904 -0.656456,-0.04418 -0.611637,1.909306 l 0.05919,2.580136 0.611637,-1.909306 c 0.446543,-1.393923 0.430563,-2.09038 -0.05919,-2.580136 z m 27.95046,-5.937912 c 1.05903,-2.027156 1.50928,-3.549214 1.24325,-4.20277 -0.37583,-0.923266 -0.47715,-0.895573 -1.02418,0.279931 -0.33389,0.71751 -0.82812,1.304563 -1.09828,1.304563 -0.27017,0 -0.49121,0.382517 -0.49121,0.850038 0,1.496445 -1.92893,4.999716 -2.36468,4.294661 -0.25615,-0.414461 -0.56188,-0.173291 -0.82291,0.649137 -0.27118,0.854408 -0.14224,1.47945 0.37147,1.800831 0.93951,0.587761 1.83711,-0.479192 4.18654,-4.976391 z M 14.024068,79.86241 c 0.07626,-2.338149 -1.273423,-4.11716 -1.89489,-2.497644 -0.197722,0.515256 -0.197771,1.198506 -1.07e-4,1.518332 0.197663,0.319826 0.344626,1.651098 0.326585,2.958381 -0.0703,5.094083 1.398152,3.241145 1.568412,-1.979069 z m 68.48568,0.247899 c 0,-1.313922 -0.205912,-1.931824 -0.531351,-1.594466 -0.961521,0.996752 -0.997063,3.739747 -0.04846,3.739747 0.318893,0 0.579806,-0.965376 0.579806,-2.145281 z m -64.068537,0.98567 c 0.197087,-0.318894 0.08203,-0.579806 -0.255685,-0.579806 -0.337713,0 -0.614024,0.260912 -0.614024,0.579806 0,0.318893 0.115058,0.579805 0.255685,0.579805 0.140626,0 0.416937,-0.260912 0.614024,-0.579805 z m 88.420379,-0.579806 c 0,-0.318893 -0.11506,-0.579806 -0.25568,-0.579806 -0.14063,0 -0.41694,0.260913 -0.61403,0.579806 -0.19709,0.318893 -0.082,0.579806 0.25568,0.579806 0.33772,0 0.61403,-0.260913 0.61403,-0.579806 z M 82.799651,77.037338 c 0.197088,-0.318893 0.08203,-0.579806 -0.255683,-0.579806 -0.337713,0 -0.614026,0.260913 -0.614026,0.579806 0,0.318893 0.115057,0.579806 0.255683,0.579806 0.140626,0 0.416938,-0.260913 0.614026,-0.579806 z m -54.791645,-4.70944 c 0,-0.917633 -0.260913,-1.668423 -0.579806,-1.668423 -0.318893,0 -0.583368,0.456597 -0.587723,1.01466 -0.0043,0.558063 -0.180056,1.666941 -0.39045,2.464174 -0.343464,1.301475 -0.283439,1.368245 0.587723,0.653763 0.533641,-0.437663 0.970256,-1.546541 0.970256,-2.464174 z m 84.062964,-2.39318 c -0.007,-1.054921 -0.11644,-1.138135 -0.57093,-0.434855 -0.72645,1.124104 -0.72645,1.739418 0,1.739418 0.31889,0 0.57581,-0.587054 0.57093,-1.304563 z m 21.62953,0.145529 c 0.1667,-0.637469 0.0667,-1.305149 -0.22228,-1.483733 -0.28895,-0.178584 -0.52537,-0.06973 -0.52537,0.241905 0,0.311631 -0.15837,0.979311 -0.35194,1.483732 -0.19356,0.504422 -0.0935,0.91713 0.22228,0.91713 0.31582,0 0.71061,-0.521566 0.87731,-1.159034 z m -19.30143,-0.338798 c 0,-0.504914 -0.30984,-0.814748 -0.68852,-0.688519 -1.07509,0.358363 -1.25341,1.606545 -0.22951,1.606545 0.50491,0 0.91803,-0.413112 0.91803,-0.918026 z M 13.230008,67.284324 c -0.460719,-0.460719 -1.457605,0.58517 -1.103643,1.157893 0.240758,0.389554 0.539566,0.330253 0.847641,-0.168224 0.261693,-0.423427 0.376894,-0.868778 0.256002,-0.989669 z M 114.77879,66.865731 c 0.53938,-1.405599 -0.21324,-1.659353 -0.93295,-0.314555 -0.44876,0.838509 -0.45758,1.20927 -0.0288,1.20927 0.34012,0 0.7729,-0.402622 0.96173,-0.894715 z M 13.746884,62.629086 c -0.513025,-0.663914 -1.227828,0.707627 -0.937089,1.798054 0.346032,1.297802 0.34945,1.297112 0.720821,-0.145529 0.205226,-0.797233 0.302547,-1.540869 0.216268,-1.652525 z m 15.420734,-4.145532 c 0,-0.318893 -0.260913,-0.579806 -0.579806,-0.579806 -0.318893,0 -0.579806,0.260913 -0.579806,0.579806 0,0.318893 0.260913,0.579806 0.579806,0.579806 0.318893,0 0.579806,-0.260913 0.579806,-0.579806 z m 97.407372,-0.869709 c 0,-0.47834 -0.10255,-0.869709 -0.22787,-0.869709 -0.12533,0 -0.37805,0.391369 -0.56161,0.869709 -0.18356,0.47834 -0.081,0.869709 0.22786,0.869709 0.30889,0 0.56162,-0.391369 0.56162,-0.869709 z M 66.04672,56.503211 c 0.173217,-0.451401 0.230258,-1.56028 0.126751,-2.464174 l -0.188187,-1.643444 -1.07841,1.58999 c -1.073887,1.583316 -0.964165,3.338359 0.208701,3.338359 0.338908,0 0.757922,-0.369329 0.931145,-0.820731 z"
     id="path5249"
     inkscape:connector-curvature="0" /><path
     style="opacity:1;fill:#dedbe3;fill-opacity:1;stroke-width:0.57980579"
     d="M 1.9203834,38.683165 C -0.73772,35.01376 -0.24707131,29.241513 2.8425968,27.833766 c 2.055398,-0.936502 2.4302366,-0.851916 4.0711884,0.9187 0.8045588,0.868134 2.2923479,1.846556 3.3061978,2.174272 2.564732,0.829022 2.398318,2.404372 -0.7040162,6.664542 -3.2622487,4.479768 -4.9641841,4.724426 -7.5955834,1.091885 z"
     id="path5251"
     inkscape:connector-curvature="0" /><path
     style="opacity:1;fill:#dedbe3;fill-opacity:1;stroke-width:0.57980579"
     d="m 6.5265149,56.687923 c -1.2756533,-2.500487 -1.1705873,-4.002427 0.2799838,-4.002427 1.2349074,0 2.1276815,1.971188 1.9678251,4.344831 -0.1788636,2.655874 -0.7636465,2.566795 -2.2478089,-0.342404 z"
     id="path5253"
     inkscape:connector-curvature="0" /><path
     style="opacity:1;fill:#dedbe3;fill-opacity:1;stroke-width:0.57980579"
     d="m 26.848395,38.172155 c 0,-2.759643 1.147703,-3.508874 3.420707,-2.233069 2.150361,1.206966 2.1969,2.594778 0.122976,3.667246 -2.87012,1.484196 -3.543683,1.211596 -3.543683,-1.434177 z"
     id="path5255"
     inkscape:connector-curvature="0" /><path
     style="opacity:1;fill:#dedbe3;fill-opacity:1;stroke-width:0.57980579"
     d="m 13.049017,40.393614 c -1.409554,-1.409554 -0.793787,-2.281375 1.478505,-2.093311 1.7465,0.144548 2.210724,0.436615 2.359549,1.484515 0.155208,1.092843 -0.08474,1.304563 -1.478505,1.304563 -0.91508,0 -1.976877,-0.313095 -2.359549,-0.695767 z"
     id="path5257"
     inkscape:connector-curvature="0" /><path
     style="opacity:1;fill:#dedbe3;fill-opacity:1;stroke-width:0.57980579"
     d="m 18.811832,24.815392 c -0.752838,-0.616102 -2.10129,-1.120184 -2.996559,-1.120184 -2.417315,0 -3.411102,-0.538923 -4.353176,-2.360692 -0.996779,-1.927559 -1.11489,-7.137926 -0.219997,-9.705018 0.687741,-1.972857 2.01328,-2.6616733 4.109569,-2.1355384 1.075566,0.2699501 1.568604,-0.016431 2.373172,-1.3784558 1.245425,-2.1083376 4.261289,-4.7134978 5.456581,-4.7134978 1.524906,0 3.957601,3.2058901 4.735312,6.2403613 0.411033,1.6037647 0.832362,4.4847627 0.936287,6.4022177 0.177143,3.268342 0.07508,3.593599 -1.632593,5.202977 -1.001852,0.944183 -2.995655,2.385242 -4.430674,3.202355 -2.59502,1.477626 -2.616526,1.479602 -3.977922,0.365475 z"
     id="path5259"
     inkscape:connector-curvature="0" /><path
     style="opacity:1;fill:#dedbe3;fill-opacity:1;stroke-width:0.57980579"
     d="m 48.733816,21.593392 c -1.49413,-0.782853 -2.280487,-3.116436 -1.050159,-3.116436 1.588201,0 3.51658,1.245153 3.51658,2.270654 0,1.596825 -0.624366,1.810932 -2.466421,0.845782 z"
     id="path5261"
     inkscape:connector-curvature="0" /><path
     style="opacity:1;fill:#dedbe3;fill-opacity:1;stroke-width:0.57980579"
     d=""
     id="path5263"
     inkscape:connector-curvature="0" /><path
     style="opacity:1;fill:#dedbe3;fill-opacity:1;stroke-width:0.57980579"
     d=""
     id="path5265"
     inkscape:connector-curvature="0" /><path
     style="opacity:1;fill:#dedbe3;fill-opacity:1;stroke-width:0.57980579"
     d="m 146.11525,29.783168 c 1.13303,-2.375986 1.67744,-2.552065 2.03921,-0.659544 0.17265,0.903144 -0.0979,1.594458 -0.79424,2.02932 -1.84627,1.153012 -2.24094,0.71878 -1.24497,-1.369776 z"
     id="path5267"
     inkscape:connector-curvature="0" /><path
     style="opacity:1;fill:#dedbe3;fill-opacity:1;stroke-width:0.57980579"
     d="m 166.07328,149.53259 c -1.3957,-0.65352 -3.81947,-2.12918 -5.38617,-3.27924 -1.5667,-1.15006 -3.73716,-2.29144 -4.82325,-2.53639 -1.89183,-0.42668 -1.98212,-0.37081 -2.1513,1.33111 l -0.17661,1.77648 -2.39696,-3.14924 c -1.31833,-1.73208 -2.58852,-3.80152 -2.82266,-4.59875 -0.23413,-0.79724 -0.74976,-1.84089 -1.14586,-2.31923 -1.02611,-1.23919 -2.05513,-8.22672 -1.3418,-9.11154 0.38212,-0.47399 0.17322,-1.89619 -0.63875,-4.34854 -1.73332,-5.23503 -1.76663,-16.46592 -0.0736,-24.807098 1.66894,-8.222352 6.01749,-21.129486 8.61597,-25.573442 3.39408,-5.80459 15.44764,-17.82612 16.65901,-16.614746 0.14845,0.14845 -0.78004,0.997522 -2.06331,1.886828 -3.39943,2.355807 -10.35076,9.869912 -10.805,11.679774 -0.21468,0.855345 -1.00076,2.622549 -1.74685,3.927118 -2.82906,4.94673 -1.32679,4.3768 4.52218,-1.715617 2.61754,-2.726498 7.18414,-6.80405 10.14799,-9.061226 2.96385,-2.257176 5.27305,-4.291281 5.13155,-4.520234 -0.42746,-0.691645 5.20409,-3.03965 7.60477,-3.170716 1.23344,-0.06734 3.64829,-0.842459 5.36633,-1.722487 2.25064,-1.152839 3.24193,-1.408767 3.54668,-0.91567 0.29754,0.481434 1.53188,0.565626 4.16246,0.283916 3.2133,-0.344116 4.01961,-0.229699 5.73021,0.813134 1.0949,0.66748 2.56123,1.214576 3.25851,1.215768 0.8442,0.0014 2.49084,1.391362 4.92835,4.159976 7.66353,8.704525 7.29939,8.363117 8.08797,7.583258 0.54917,-0.543091 0.55847,-0.724757 0.0371,-0.724757 -0.38267,0 -0.69577,-0.521825 -0.69577,-1.159612 0,-1.293461 1.17911,-1.500277 2.9994,-0.526092 0.79881,0.427509 1.37462,0.442642 1.77072,0.04654 1.46471,-1.464729 7.9856,10.928279 7.9856,15.176733 0,0.730543 0.65228,1.895412 1.44951,2.588597 2.30762,2.006446 1.96018,5.151599 -1.79396,16.239636 -2.49229,7.361089 -3.72767,10.159019 -5.33411,12.080829 -1.14984,1.37559 -2.2469,2.24821 -2.4379,1.93916 -0.191,-0.30904 -1.24683,0.93402 -2.34629,2.76237 -1.09945,1.82834 -2.94516,4.36791 -4.10158,5.64348 -1.15641,1.27558 -2.81961,3.75425 -3.69598,5.50816 -3.29626,6.59692 -9.37587,12.80698 -18.55736,18.95554 -6.13265,4.10685 -7.11068,4.46476 -12.46582,4.56189 -2.71059,0.0492 -6.62428,0.26785 -8.69709,0.48598 -3.13965,0.33038 -4.19232,0.19823 -6.30636,-0.79165 z m 13.19998,-23.64662 c 7.67499,-4.53674 17.34511,-17.78516 17.4572,-23.91698 0.0146,-0.79724 0.54035,-2.581903 1.16841,-3.96593 l 1.14192,-2.516411 -1.70722,-0.644403 c -1.18139,-0.445923 -1.76026,-1.099523 -1.87941,-2.122034 -0.11898,-1.021038 -0.79926,-1.790888 -2.20151,-2.491392 -2.02177,-1.009984 -2.02331,-1.013762 -0.41446,-1.01466 0.88818,-4.95e-4 2.26474,0.424911 3.05903,0.945348 l 1.44415,0.946247 -0.13723,-1.960908 c -0.0755,-1.078499 -0.48698,-2.228097 -0.91446,-2.554661 -0.61522,-0.469987 -0.40115,-0.8718 1.02697,-1.927655 1.54742,-1.144057 1.69606,-1.465831 1.04437,-2.260871 -0.66346,-0.809406 -0.59438,-0.884335 0.54474,-0.590801 0.71751,0.184893 1.30456,0.219744 1.30456,0.07745 0,-0.620054 -2.37978,-4.85097 -2.72855,-4.85097 -0.21216,0 -1.65273,1.068329 -3.20125,2.374065 -1.54853,1.305736 -3.26125,2.437241 -3.80606,2.514456 -2.08253,0.295158 -9.56295,12.91588 -12.2234,20.62293 -0.62393,1.80746 -1.40705,3.11733 -1.80773,3.02364 -1.3598,-0.31796 -2.21997,1.11919 -3.49654,5.84195 -0.98639,3.6492 -1.20744,5.63923 -0.94734,8.52858 0.47797,5.30942 1.37557,8.11729 2.59491,8.11729 0.55033,0 2.65583,-0.97843 4.6789,-2.17428 z"
     id="path5269"
     inkscape:connector-curvature="0" /><path
     style="opacity:1;fill:#dedbe3;fill-opacity:1;stroke-width:0.57980579"
     d="m 237.75274,92.038697 c -1.86428,-1.52477 -2.17427,-2.114338 -2.17427,-4.135298 0,-2.98197 2.44654,-7.387226 4.10264,-7.387226 0.70508,0 1.62095,0.790198 2.35205,2.02932 0.81517,1.381613 1.6219,2.02932 2.52754,2.02932 1.49613,0 2.03408,0.975139 2.03408,3.687148 0,2.419499 -1.31201,4.225972 -3.31915,4.570065 -0.88506,0.151729 -2.00057,0.435419 -2.47891,0.630423 -0.51152,0.208532 -1.76516,-0.377829 -3.04398,-1.423752 z"
     id="path5271"
     inkscape:connector-curvature="0" /><path
     style="opacity:1;fill:#dedbe3;fill-opacity:1;stroke-width:0.57980579"
     d="m 246.73973,60.339145 c -2.35332,-1.131925 -2.55038,-3.105419 -0.40757,-4.081747 2.76064,-1.25783 3.74145,-0.604427 3.74145,2.492485 0,2.082896 -1.15896,2.635376 -3.33388,1.589262 z"
     id="path5273"
     inkscape:connector-curvature="0" /><path
     style="opacity:1;fill:#dedbe3;fill-opacity:1;stroke-width:0.57980579"
     d="m 230.72363,41.259525 c -0.83196,-0.83196 -0.26472,-2.348198 1.11338,-2.976106 2.06404,-0.940436 2.58185,-0.845803 2.58185,0.471849 0,1.162644 -3.00223,3.197256 -3.69523,2.504257 z"
     id="path5275"
     inkscape:connector-curvature="0" /><path
     style="opacity:1;fill:#dedbe3;fill-opacity:1;stroke-width:0.57980579"
     d="m 248.17119,152.65424 c 1.93763,-4.00785 2.49153,-5.67612 1.98795,-5.98735 -0.51465,-0.31807 -0.17737,-1.7911 1.28345,-5.60536 1.08985,-2.84565 2.57921,-7.05189 3.30968,-9.34721 0.73048,-2.29532 1.54209,-4.04108 1.80358,-3.87947 0.45809,0.28311 0.71628,-0.85867 0.60459,-2.67363 -0.0294,-0.47834 1.7768,-7.73683 4.01385,-16.12997 2.23705,-8.39314 3.92415,-15.633465 3.74912,-16.089609 -0.58817,-1.532734 -1.46488,-0.847889 -2.09283,1.634822 -2.79493,11.050177 -6.29511,21.840867 -11.98236,36.940357 -3.6588,9.71399 -6.88741,18.06319 -7.17469,18.55378 -0.88589,1.51284 -0.60116,-0.0714 0.85574,-4.76113 0.76776,-2.47142 1.15631,-4.4935 0.86344,-4.4935 -0.29286,0 -0.96692,1.56259 -1.4979,3.47242 -0.74127,2.66621 -1.13482,3.33182 -1.69505,2.86688 -0.52961,-0.43954 -0.89657,-0.31857 -1.3386,0.44127 -0.87167,1.49836 -0.78116,0.23293 0.21919,-3.06463 0.47489,-1.56543 0.86626,-3.43328 0.86971,-4.15079 0.003,-0.71751 0.21477,-1.30456 0.4696,-1.30456 0.53933,0 1.97239,-3.72749 2.19341,-5.70518 0.26343,-2.35717 1.53406,-7.31541 2.03924,-7.9575 0.74089,-0.94168 2.22415,-7.79014 1.68721,-7.79014 -0.2594,0 -0.10205,-1.22806 0.34968,-2.72902 0.45172,-1.50096 0.73689,-2.98229 0.63371,-3.29184 -0.10319,-0.30955 -1.2141,2.67009 -2.46869,6.62142 -2.72366,8.57814 -3.41236,7.78547 -0.91584,-1.05411 2.54068,-8.99598 6.29632,-29.258255 6.364,-34.334794 0.0319,-2.391699 -0.31972,-6.365871 -0.78134,-8.831493 -0.46163,-2.465622 -0.68732,-4.879063 -0.50153,-5.363203 0.18578,-0.48414 0.0312,-0.880254 -0.34354,-0.880254 -0.39805,0 -0.16637,-0.723178 0.55726,-1.739417 0.68121,-0.95668 1.61217,-1.739418 2.0688,-1.739418 0.45662,0 0.83022,-0.521825 0.83022,-1.159611 0,-0.637786 0.26972,-1.159612 0.59936,-1.159612 0.32965,0 1.12829,-0.896458 1.77475,-1.992131 0.93142,-1.578633 2.02149,-2.315443 5.25171,-3.549779 l 4.07632,-1.557648 2.79053,2.748578 c 1.5348,1.511718 3.07252,2.574307 3.41716,2.361308 0.34464,-0.212999 1.40591,0.409928 2.35837,1.384281 l 1.73174,1.771552 0.16129,7.969055 0.1613,7.969054 2.77154,-4.187165 c 4.15638,-6.279333 9.70449,-15.999194 9.34027,-16.363417 -0.17634,-0.176331 -0.69064,0.185453 -1.14291,0.803965 -0.81107,1.109205 -0.8223,1.108796 -0.8223,-0.0299 0,-1.466552 1.06134,-2.547318 2.10735,-2.145924 0.44355,0.170203 1.15327,0.02162 1.57716,-0.330182 0.4239,-0.351803 0.94719,-0.463174 1.16288,-0.247492 0.21568,0.215683 1.36578,-0.526037 2.55577,-1.648265 4.58152,-4.320614 5.21413,-4.625406 7.56314,-3.643926 1.15254,0.481561 2.51115,1.251705 3.01915,1.71143 0.80657,0.729937 1.09628,0.714926 2.28608,-0.118446 1.29778,-0.908993 1.41588,-0.88836 2.48707,0.434501 1.07216,1.324065 1.1607,1.339421 1.89925,0.329396 0.74983,-1.025451 0.82078,-1.025064 2.21319,0.01208 2.60811,1.942671 5.15508,14.528364 3.56311,17.606887 -0.47523,0.919 -0.89007,2.662288 -0.92185,3.873973 -0.0869,3.312215 -0.84678,0.19118 -0.82718,-3.397414 0.009,-1.649187 -0.26949,-2.902953 -0.67981,-3.060485 -1.12036,-0.430125 -1.47344,1.821567 -0.515,3.284331 0.95105,1.451479 0.62536,4.12046 -0.45821,3.754987 -0.35802,-0.120754 -0.94548,0.180258 -1.30546,0.668915 -0.55362,0.751498 -1.01091,0.78169 -2.9663,0.195842 -3.2305,-0.967883 -3.4381,-0.911139 -3.82968,1.046792 -0.19708,0.98538 -0.7171,1.739417 -1.19959,1.739417 -0.46843,0 -1.71002,1.43502 -2.75908,3.188932 -1.04906,1.753912 -2.26571,3.188932 -2.70366,3.188932 -0.45387,0 -0.65888,0.358074 -0.47675,0.832703 0.33576,0.87497 -1.63319,3.805743 -2.55677,3.805743 -0.29575,0 -0.53773,-0.391369 -0.53773,-0.869709 0,-1.591636 -0.97057,-0.89837 -2.02932,1.449515 -0.5752,1.275572 -1.35296,2.319223 -1.72836,2.319223 -0.3754,0 -1.30341,1.325577 -2.06225,2.945727 -1.08286,2.311959 -1.45996,2.717378 -1.75273,1.884369 -0.33702,-0.958896 -0.41306,-0.935459 -0.78766,0.242768 -0.35431,1.114398 -0.59004,1.21025 -1.62033,0.658854 -0.98922,-0.529416 -1.31516,-0.451262 -1.81534,0.435291 -0.56507,1.001584 -0.63618,0.974624 -0.97283,-0.368952 l -0.3632,-1.449514 -1.2592,2.02932 c -1.13609,1.83093 -1.25941,1.89572 -1.26136,0.66273 -0.002,-0.9496 -0.25647,-1.269018 -0.83556,-1.046802 -1.06344,0.408082 -1.42759,-1.155276 -0.74851,-3.213464 0.28458,-0.862519 0.39969,-2.036626 0.25579,-2.609126 -0.18592,-0.739704 -0.38658,-0.504935 -0.69342,0.81132 -0.3338,1.431879 -0.77824,1.89242 -1.95838,2.02932 -1.24709,0.144668 -1.75293,0.746389 -2.76284,3.286541 -0.67994,1.710201 -1.36255,2.753851 -1.51692,2.319221 -0.41101,-1.15722 -0.95913,-0.40262 -1.3519,1.86118 -0.26052,1.5015 -0.19332,1.77453 0.27498,1.11734 0.53355,-0.74875 0.62098,-0.72605 0.62862,0.16314 0.005,0.56807 -0.36654,1.17692 -0.8254,1.353 -0.45885,0.17608 -1.0108,1.14632 -1.22656,2.15608 -0.21576,1.00976 -0.6522,2.15868 -0.96988,2.55316 -0.31768,0.39447 -0.41304,1.37289 -0.21191,2.17427 0.21139,0.84222 0.11638,1.45704 -0.22516,1.45704 -0.32497,0 -0.59085,0.76576 -0.59085,1.70167 0,0.93593 -0.30304,2.43617 -0.67343,3.33389 -0.37039,0.89772 -0.61517,1.8763 -0.54395,2.17464 0.32031,1.3418 -0.60962,3.31676 -1.41602,3.00732 -0.79289,-0.30426 -1.09013,0.57841 -1.00119,2.97306 0.0148,0.39862 -0.23405,0.72476 -0.553,0.72476 -0.33181,0 -0.44624,0.80617 -0.26746,1.88437 0.17185,1.0364 0.0888,2.40619 -0.18462,3.04398 -0.3481,0.81208 -0.5234,0.89896 -0.58492,0.2899 -0.0483,-0.47834 -0.43279,-0.087 -0.85439,0.86971 -0.42159,0.95668 -0.64592,1.9351 -0.49849,2.17427 0.14742,0.23917 -0.0362,0.43486 -0.40801,0.43486 -0.37691,0 -0.52107,0.4039 -0.32579,0.91279 0.19265,0.50203 -0.0403,1.30341 -0.51777,1.78083 -0.47743,0.47742 -0.86804,1.50168 -0.86804,2.27614 0,0.77445 -0.21154,1.4081 -0.47008,1.4081 -0.25854,0 -0.96569,1.63071 -1.57143,3.62379 -0.62296,2.04973 -1.19635,3.16455 -1.32006,2.56655 -0.13053,-0.63105 -0.54884,-0.93054 -1.03769,-0.74295 -1.04379,0.40053 -1.07439,0.58744 0.65696,-4.01232 0.81177,-2.15668 1.37364,-4.34028 1.2486,-4.85243 -0.21812,-0.89334 -1.19975,0.98882 -6.69622,12.83921 -1.29421,2.79031 -2.61472,5.0733 -2.93448,5.0733 -0.31975,0 0.62736,-2.50016 2.10469,-5.55591 z m -1.57641,-12.99788 c 0,-0.31889 -0.26091,-0.5798 -0.57981,-0.5798 -0.31889,0 -0.5798,0.26091 -0.5798,0.5798 0,0.31889 0.26091,0.57981 0.5798,0.57981 0.3189,0 0.57981,-0.26092 0.57981,-0.57981 z m 18.55378,-16.23456 c 0,-0.31889 -0.26091,-0.57981 -0.5798,-0.57981 -0.31889,0 -0.57981,0.26092 -0.57981,0.57981 0,0.31889 0.26092,0.57981 0.57981,0.57981 0.31889,0 0.5798,-0.26092 0.5798,-0.57981 z m -11.59611,-6.37786 c 0,-0.3189 -0.26091,-0.57981 -0.57981,-0.57981 -0.31889,0 -0.5798,0.26091 -0.5798,0.57981 0,0.31889 0.26091,0.5798 0.5798,0.5798 0.3189,0 0.57981,-0.26091 0.57981,-0.5798 z m 12.17592,-28.410486 c 0,-1.159612 -0.2899,-1.739418 -0.86971,-1.739418 -0.5798,0 -0.86971,0.579806 -0.86971,1.739418 0,1.159611 0.28991,1.739417 0.86971,1.739417 0.57981,0 0.86971,-0.579806 0.86971,-1.739417 z m 6.91692,-14.350193 c 0.0259,-0.828583 -0.2992,-1.304563 -0.89099,-1.304563 -0.61142,0 -0.81075,0.315301 -0.57981,0.917129 0.19357,0.504422 0.37028,1.6133 0.39269,2.464175 0.0365,1.385553 0.0928,1.425997 0.53905,0.387433 0.27407,-0.637786 0.51664,-1.746664 0.53906,-2.464174 z m 40.62715,-5.618888 c 0,-0.45952 -0.26091,-0.996743 -0.5798,-1.19383 -0.3189,-0.197087 -0.57981,0.178884 -0.57981,0.83549 0,0.656607 0.26091,1.19383 0.57981,1.19383 0.31889,0 0.5798,-0.37597 0.5798,-0.83549 z m -60.2998,-0.903927 c 0,-0.318893 -0.11505,-0.579806 -0.25568,-0.579806 -0.14063,0 -0.41694,0.260913 -0.61403,0.579806 -0.19708,0.318893 -0.082,0.579806 0.25569,0.579806 0.33771,0 0.61402,-0.260913 0.61402,-0.579806 z m -0.2899,-1.739417 c 0.19709,-0.318893 0.082,-0.579806 -0.25568,-0.579806 -0.33772,0 -0.61403,0.260913 -0.61403,0.579806 0,0.318893 0.11506,0.579805 0.25569,0.579805 0.14062,0 0.41693,-0.260912 0.61402,-0.579805 z m 11.80637,-5.562754 c 0.63233,-0.199311 0.6471,-0.421281 0.074,-1.111873 -1.30242,-1.569326 -5.79236,-0.692091 -5.79236,1.131699 0,0.59205 0.62707,0.722256 2.46418,0.511668 1.35529,-0.155357 2.8197,-0.39453 3.25423,-0.531494 z"
     id="path5277"
     inkscape:connector-curvature="0" /><path
     style="opacity:1;fill:#dedbe3;fill-opacity:1;stroke-width:0.57980579"
     d="m 274.17729,56.20789 c -1.73521,-1.811163 -4.76212,-3.343821 -5.3812,-2.724737 -0.20567,0.205665 0.12884,0.780385 0.74334,1.277156 1.0587,0.855853 1.02638,0.883534 -0.61632,0.527845 -0.95349,-0.206455 -1.86668,-0.585417 -2.02932,-0.842137 -0.16264,-0.25672 -0.81754,-0.583086 -1.45532,-0.725259 -1.0657,-0.237562 -1.04223,-0.307421 0.2899,-0.862629 2.62354,-1.093447 5.56917,-1.91205 6.88024,-1.91205 2.69659,0 5.05884,4.026839 3.65723,6.234343 -0.33714,0.531 -0.89852,0.269597 -2.08855,-0.972532 z"
     id="path5279"
     inkscape:connector-curvature="0" /><path
     style="opacity:1;fill:#dedbe3;fill-opacity:1;stroke-width:0.57980579"
     d="m 378.43513,155.85987 c -4.02601,-0.70122 -10.6541,-3.14726 -14.99743,-5.53465 -1.97296,-1.08448 -4.34826,-1.98007 -5.27846,-1.99021 -1.61247,-0.0176 -1.63883,-0.0581 -0.56579,-0.86971 0.61901,-0.4682 0.94515,-0.88388 0.72476,-0.92375 -0.2204,-0.0398 -1.11823,-0.14747 -1.99519,-0.23913 -4.21957,-0.44105 -5.94884,-0.82124 -7.58596,-1.66782 -0.97806,-0.50578 -2.14983,-0.9196 -2.60392,-0.9196 -0.45409,0 -1.8226,-0.91319 -3.04113,-2.02932 -1.21852,-1.11612 -2.3602,-2.02833 -2.53705,-2.02713 -0.17685,0.001 -1.06949,2.61032 -1.98363,5.79805 -1.10015,3.83636 -1.94016,5.79588 -2.48457,5.79588 -1.37521,0 -3.63011,-1.77649 -3.31087,-2.60842 0.16494,-0.42982 -0.26707,-1.08491 -0.96003,-1.45577 -1.047,-0.56034 -1.38676,-0.49437 -2.01058,0.39039 -0.41287,0.58557 -1.94721,2.60249 -3.40965,4.48206 -2.06736,2.65702 -2.741,3.20366 -3.0276,2.4568 -0.20274,-0.52833 -0.0708,-1.31945 0.29319,-1.75804 0.49683,-0.59864 0.4898,-1.17496 -0.0282,-2.31184 -0.89015,-1.95366 -1.26393,-1.90885 -3.08674,0.36996 -1.61256,2.01598 -1.69747,1.98977 -3.56215,-1.09965 -0.602,-0.9974 -0.76454,-0.97065 -2.96959,0.48858 l -2.33274,1.54373 -0.65419,-1.4358 c -0.83691,-1.8368 -0.83989,-4.44245 -0.006,-5.2763 0.47768,-0.47768 0.3371,-0.84243 -0.53446,-1.38673 -1.1672,-0.72892 -1.1682,-0.75689 -0.0771,-2.14402 0.60804,-0.773 1.37689,-2.35369 1.70854,-3.51263 1.22507,-4.28088 3.11636,-16.74728 3.24323,-21.37763 0.0858,-3.12971 0.40594,-5.0504 0.92914,-5.5736 0.54496,-0.54496 1.49668,-7.03333 2.99908,-20.446239 6.09189,-54.38643 8.40551,-69.210634 12.74897,-81.6871703 l 2.01848,-5.7980576 0.044,3.623786 c 0.0242,1.9930823 -0.19935,3.6237859 -0.49675,3.6237859 -0.59247,0 -0.9078,0.905245 -1.46423,4.203592 -0.36637,2.171704 0.50384,3.155736 1.02548,1.159611 0.14584,-0.558063 0.29542,0.637787 0.33242,2.657443 0.0448,2.448458 0.2857,3.59929 0.72279,3.453593 0.36054,-0.12018 1.6361,-4.12084 2.83459,-8.890355 1.19848,-4.7695144 2.53582,-9.5421647 2.97186,-10.6058896 l 0.7928,-1.93404524 1.5908,1.25132694 c 1.2419,0.9768777 2.25845,1.2218523 4.63484,1.1169401 1.67422,-0.073913 3.64979,0.061143 4.39015,0.3001235 0.91752,0.2961655 1.67534,0.1365672 2.38013,-0.5012625 0.97078,-0.8785369 1.09419,-0.7782336 2.01768,1.6399009 0.92383,2.4190092 1.09606,5.9009309 0.93513,18.9047489 -0.0138,1.116126 -1.71793,15.415054 -3.78694,31.775396 -2.069,16.36034 -3.76182,30.946525 -3.76182,32.413735 0,2.238526 0.48156,3.399419 2.99358,7.216541 1.64646,2.501885 3.23975,4.548883 3.54063,4.548883 0.96731,0 9.11272,-8.253604 13.16071,-13.335532 4.00739,-5.03094 10.87809,-15.169563 13.7729,-20.323717 0.88574,-1.577037 1.75624,-2.867598 1.93447,-2.867922 0.17822,-3.25e-4 0.8135,0.357311 1.41173,0.794751 1.04106,0.761244 1.04581,0.905013 0.11082,3.353272 -0.53728,1.406852 -0.97688,2.875338 -0.97688,3.263292 0,1.414668 1.73297,0.65333 3.10337,-1.363385 l 1.40575,-2.068753 0.26137,2.503608 c 0.20963,2.007971 -0.11627,3.249712 -1.64623,6.27235 -1.04919,2.072806 -1.92045,3.442597 -1.93614,3.04398 -0.0539,-1.36931 -0.97461,-0.722113 -1.98398,1.394566 -0.71383,1.496914 -0.82044,2.236874 -0.36302,2.519581 1.30217,0.804782 -4.36636,9.412683 -11.01704,16.729849 -2.3917,2.631383 -4.44046,5.046153 -4.55279,5.366163 -0.11234,0.32002 -0.82985,1.20744 -1.59447,1.97206 -0.76462,0.76461 -1.39022,1.66299 -1.39022,1.99638 0,0.33339 -0.34018,0.60616 -0.75597,0.60616 -1.13113,0 -4.65331,3.86028 -4.19653,4.59937 0.77127,1.24793 5.90536,3.40849 12.3355,5.19109 5.44056,1.50826 7.54619,1.80565 12.78472,1.80565 3.44928,0 6.51929,0.24784 6.82224,0.55077 0.9089,0.90882 5.30452,-0.39017 11.80282,-3.48798 5.56491,-2.65284 6.11268,-2.8049 7.0497,-1.95691 0.93903,0.84981 1.48644,0.65285 7.22997,-2.60138 3.41771,-1.93644 6.41007,-3.52081 6.64969,-3.52081 0.23962,0 0.76048,-0.39137 1.15747,-0.86971 0.58989,-0.71078 0.55407,-0.86971 -0.19605,-0.86971 -0.50482,0 -1.25364,0.35947 -1.66404,0.79881 -0.6289,0.67324 -1.11101,0.54849 -3.06685,-0.79354 -3.00014,-2.05861 -5.77788,-1.80836 -7.17472,0.64637 -0.58942,1.03581 -1.37952,1.62664 -2.10358,1.57306 -2.52966,-0.18721 -3.76874,0.12981 -3.76874,0.96424 0,0.54402 -0.54962,0.8697 -1.46771,0.8697 -0.80725,0 -1.6179,-0.39136 -1.80145,-0.8697 -0.18356,-0.47834 -0.70539,-0.86971 -1.15961,-0.86971 -0.45423,0 -0.97606,0.39137 -1.15961,0.86971 -0.18356,0.47834 -0.82765,0.8697 -1.43132,0.8697 -0.71104,0 -1.09758,0.40839 -1.09758,1.15962 0,0.63778 -0.32768,1.15961 -0.72817,1.15961 -1.1368,0 -2.22386,-3.0689 -1.81363,-5.12008 0.35656,-1.78275 -0.53694,-2.68729 -1.09924,-1.11283 -0.48064,1.34578 -0.91372,0.14811 -1.20818,-3.34111 -0.16113,-1.90938 -0.31008,-3.55224 -0.331,-3.65078 -0.0209,-0.0985 -0.36417,0.0254 -0.76279,0.27543 -0.39862,0.25003 -1.15824,0.3834 -1.68805,0.29638 -0.52982,-0.087 -1.13227,0.11517 -1.33879,0.44932 -0.20651,0.33416 -0.61716,0.60755 -0.91255,0.60755 -0.29538,0 -0.0201,-0.84796 0.61186,-1.88437 0.63191,-1.0364 1.1499,-2.340963 1.15109,-2.899026 0.003,-1.305276 -2.1447,-1.350367 -3.55437,-0.07463 -0.5713,0.517018 -1.42283,0.792629 -1.89231,0.612478 -0.68822,-0.264096 -0.74143,-0.733739 -0.27468,-2.424186 1.75974,-6.373259 9.81544,-22.295538 13.27249,-26.233416 1.18942,-1.354844 3.0432,-3.761559 4.11952,-5.34825 1.07633,-1.586697 2.18893,-2.891631 2.47246,-2.899852 0.28352,-0.0082 2.10991,-1.389992 4.05864,-3.070599 1.94872,-1.680607 4.68358,-3.825271 6.07746,-4.765921 1.39389,-0.94065 2.90368,-2.273953 3.35509,-2.962897 0.45141,-0.688943 1.98884,-1.57967 3.41651,-1.979392 1.42766,-0.399722 5.39704,-2.291326 8.82084,-4.203564 3.42379,-1.912238 7.79055,-4.185403 9.70391,-5.051478 1.91336,-0.866075 3.83692,-2.006204 4.27458,-2.533619 0.43767,-0.527416 1.18488,-0.958937 1.66048,-0.958937 0.4756,0 1.89107,-0.576841 3.1455,-1.281869 1.80166,-1.012588 2.49904,-1.145565 3.31976,-0.633017 0.63815,0.398533 1.35448,0.449123 1.8568,0.131135 1.08698,-0.688094 1.68754,-0.66721 1.68754,0.05868 0,0.326786 -0.65228,0.842154 -1.44952,1.145261 -1.90517,0.724347 -1.91436,2.319223 -0.0134,2.319223 0.86663,0 1.78931,-0.538994 2.32672,-1.359185 1.07566,-1.64167 5.58901,-3.344211 5.95496,-2.246353 0.38834,1.164946 1.29851,0.797582 1.29851,-0.524097 0,-1.028131 0.1431,-1.111847 0.86971,-0.508811 1.0426,0.865284 1.10885,2.31961 0.19683,4.321262 -0.71113,1.560765 -1.34463,1.854243 -1.93625,0.89699 -0.71376,-1.154896 -1.57982,-0.554314 -1.30135,0.90244 0.27756,1.451935 -0.53528,2.784421 -2.02218,3.314957 -0.40431,0.144261 -0.58471,0.42667 -0.40089,0.627576 0.46427,0.507412 5.17394,-1.835164 5.17394,-2.5735 0,-0.330271 0.26091,-0.43924 0.5798,-0.242153 0.31889,0.197087 0.57981,-0.04843 0.57981,-0.545587 0,-0.49716 0.39357,-0.903927 0.87462,-0.903927 0.73667,0 0.75954,0.205755 0.14495,1.304563 -0.40132,0.717509 -1.05581,1.513212 -1.45443,1.768228 -1.02255,0.654178 -0.90448,1.758687 0.14495,1.355982 0.82646,-0.317142 1.18635,0.844779 0.91512,2.954491 -0.0564,0.438845 0.2785,0.573327 0.8662,0.347806 0.81171,-0.311482 0.89686,-0.08848 0.55702,1.458775 -0.28968,1.318924 -0.19138,1.826464 0.35373,1.826464 1.14012,0 -1.28986,1.507415 -3.16513,1.963452 -1.15755,0.281502 -1.89209,1.017921 -2.52413,2.530601 -0.4903,1.173456 -1.32107,2.460436 -1.84616,2.859953 -0.74538,0.567125 -0.7746,0.730439 -0.13331,0.744835 0.87929,0.01974 0.31237,0.888149 -0.57981,0.888149 -1.16439,0 -0.73631,1.171689 0.49177,1.346013 1.57638,0.22377 1.142,1.263113 -0.52789,1.263113 -0.65632,0 -2.50647,1.36314 -4.18846,3.085935 -1.65706,1.697265 -3.33227,2.979459 -3.72268,2.849322 -0.39041,-0.130138 -1.83399,0.307581 -3.20796,0.972705 -1.37396,0.665124 -2.8071,1.209318 -3.18476,1.209318 -0.37766,0 -0.68665,0.366942 -0.68665,0.815428 0,0.492568 -0.4036,0.709885 -1.01933,0.548867 -0.56064,-0.14661 -3.10453,0.692039 -5.65311,1.863658 -2.54858,1.171625 -6.85153,3.025073 -9.56212,4.118778 -6.59826,2.662352 -7.20926,3.600315 -4.57984,7.03069 0.56145,0.732486 1.18939,2.099285 1.39543,3.03733 0.46206,2.103767 0.95296,2.417813 4.61923,2.955072 1.60255,0.234839 5.6533,0.858501 9.00168,1.385916 3.34838,0.52742 7.05951,1.016028 8.24695,1.085802 1.18744,0.06977 2.36155,0.333186 2.60913,0.585366 0.24757,0.252187 -0.19572,0.367777 -0.98509,0.256872 -0.96601,-0.135721 -1.49609,0.103681 -1.62143,0.732277 -0.14371,0.720774 0.61391,1.091328 3.31959,1.623642 2.35846,0.463995 3.5058,0.964802 3.5058,1.530252 0,0.462297 0.37322,0.840533 0.82938,0.840533 0.45617,0 0.91276,0.566615 1.01466,1.259147 0.10191,0.692531 0.53676,1.375009 0.96634,1.516599 0.63072,0.2079 0.64958,0.0118 0.098,-1.0189 -0.99965,-1.867862 -0.1836,-2.207204 1.36208,-0.566406 1.15224,1.223146 1.21754,1.506456 0.47375,2.055486 -0.47449,0.35024 -0.67699,0.93729 -0.45001,1.30457 0.61794,0.99984 1.49607,0.80478 1.56167,-0.3469 0.0365,-0.64003 0.20667,-0.47947 0.461,0.43485 0.22176,0.79723 0.7828,1.44952 1.24676,1.44952 0.46397,0 0.97403,0.13906 1.13348,0.30903 0.15944,0.16997 1.65969,1.30107 3.33388,2.51356 3.11182,2.25365 4.00074,4.37938 2.26267,5.41083 -0.42972,0.25501 -1.24881,2.94233 -1.8202,5.97182 -1.20425,6.38495 -3.18451,12.07445 -5.34059,15.34413 -1.45009,2.19905 -5.20825,6.10868 -5.87202,6.10868 -0.17401,0 -0.8897,0.53861 -1.59042,1.1969 -0.70072,0.65829 -2.15256,1.28459 -3.2263,1.39178 -2.31353,0.23095 -6.11656,2.04046 -4.30048,2.0462 0.83158,0.003 0.95961,0.17458 0.48405,0.65014 -0.37654,0.37654 -2.74841,0.64585 -5.67927,0.64484 -4.92481,-0.002 -5.0273,0.0266 -4.78029,1.31872 0.21325,1.11556 -0.10415,1.4273 -2.04547,2.00894 -1.64146,0.49179 -2.47629,0.51007 -2.92236,0.064 -1.0391,-1.0391 -2.04959,-0.72471 -1.72013,0.53517 0.23271,0.88988 0.0178,1.15961 -0.92399,1.15961 -0.67498,0 -1.22723,0.26091 -1.22723,0.57981 0,0.31889 -1.05905,0.5798 -2.35345,0.5798 -1.34966,0 -2.20728,-0.23649 -2.01075,-0.55448 0.18848,-0.30497 0.72571,-0.40751 1.19384,-0.22787 0.46812,0.17964 0.85113,0.0668 0.85113,-0.25084 0,-0.97216 -9.32731,-0.18103 -11.48593,0.97423 -0.65646,0.35132 -2.25436,0.63877 -3.5509,0.63877 -1.51059,0 -2.73816,0.38082 -3.41754,1.0602 -0.85624,0.85624 -2.78035,1.20446 -10.00165,1.81006 -12.55478,1.05289 -16.62067,1.17016 -20.02322,0.57752 z m 22.54397,-2.08868 c -0.39255,-0.15882 -1.17528,-0.16849 -1.73942,-0.0215 -0.56413,0.147 -0.24295,0.27695 0.71372,0.28876 0.95668,0.0118 1.41824,-0.10846 1.0257,-0.26728 z m 33.47275,-6.57735 c 0,-0.3189 -0.65228,-0.57981 -1.44952,-0.57981 -0.79723,0 -1.44951,0.26091 -1.44951,0.57981 0,0.31889 0.65228,0.5798 1.44951,0.5798 0.79724,0 1.44952,-0.26091 1.44952,-0.5798 z m -70.1565,-1.38749 c 0,-0.12533 -0.39137,-0.37805 -0.86971,-0.56161 -0.47834,-0.18355 -0.86971,-0.081 -0.86971,0.22787 0,0.30889 0.39137,0.56161 0.86971,0.56161 0.47834,0 0.86971,-0.10254 0.86971,-0.22787 z m 85.52135,-7.31656 c -1.12667,-0.49091 -1.12255,-0.51638 0.14495,-0.89659 0.71751,-0.21522 1.30457,-0.62179 1.30457,-0.90349 0,-0.64487 -0.0311,-0.64313 -2.23271,0.12434 -2.02813,0.70701 -2.35572,1.45922 -0.81127,1.86283 1.79627,0.46941 2.82433,0.34878 1.59446,-0.18709 z m -16.38757,-18.0645 c 1.66883,-1.18831 1.80623,-1.2013 2.5111,-0.23732 1.36965,1.87312 5.19866,-0.0938 4.6258,-2.37626 -0.18602,-0.74117 -0.13756,-1.34855 0.10768,-1.34975 0.24525,-0.001 1.33763,-0.54579 2.42753,-1.21023 1.54928,-0.94449 1.80229,-1.32159 1.15961,-1.72837 -0.60184,-0.38095 -0.39494,-0.52269 0.77245,-0.52919 2.36391,-0.0132 2.04295,-1.61161 -0.41623,-2.07295 -1.88825,-0.35424 -2.38258,-0.0648 -8.11728,4.75331 -3.35862,2.82178 -6.10658,5.32792 -6.10658,5.56918 0,0.79388 1.24179,0.45912 3.03592,-0.81842 z m -73.19457,-10.62664 c 0.74778,-0.79598 1.22446,-1.58237 1.05929,-1.74754 -0.39178,-0.39178 -3.37636,1.95695 -3.37636,2.65704 0,0.94163 0.9157,0.58219 2.31707,-0.9095 z m 5.61758,-6.46614 c -0.56222,-0.56222 -4.49926,3.31537 -4.07053,4.00907 0.18709,0.30271 1.27277,-0.38221 2.41262,-1.52206 1.13985,-1.13985 1.88591,-2.25901 1.65791,-2.48701 z m 28.59311,-3.682747 c 0,-0.318893 -0.24551,-0.579806 -0.54559,-0.579806 -0.30007,0 -0.70684,0.260913 -0.90392,0.579806 -0.19709,0.318893 0.0484,0.579807 0.54558,0.579807 0.49716,0 0.90393,-0.260914 0.90393,-0.579807 z m -16.36744,-9.747984 c 0.34786,-1.04357 -0.85057,-0.824281 -1.255,0.229638 -0.21669,0.564678 -0.0871,0.829748 0.33659,0.688519 0.3789,-0.126299 0.79219,-0.539475 0.91841,-0.918157 z m 90.58258,-40.98502 c 0,-0.47834 -0.26091,-0.869709 -0.57981,-0.869709 -0.31889,0 -0.5798,0.391369 -0.5798,0.869709 0,0.478339 0.26091,0.869708 0.5798,0.869708 0.3189,0 0.57981,-0.391369 0.57981,-0.869708 z"
     id="path5281"
     inkscape:connector-curvature="0" /><path
     style="opacity:1;fill:#dedbe3;fill-opacity:1;stroke-width:0.57980579"
     d="m 482.48356,37.678432 c -0.42162,-0.675124 -1.33167,-1.227497 -2.02234,-1.227497 -0.93306,0 -1.18421,-0.273645 -0.9773,-1.064856 0.18367,-0.702333 -0.2374,-1.402861 -1.23681,-2.0577 -0.8334,-0.546064 -1.94558,-1.895217 -2.47152,-2.998118 -0.67606,-1.417721 -1.23996,-1.915225 -1.92454,-1.697946 -1.39588,0.443033 -2.69022,-1.28271 -1.8912,-2.521534 0.3427,-0.531332 1.04508,-0.889393 1.56084,-0.79569 0.60373,0.109683 0.93776,-0.235889 0.93776,-0.970175 0,-1.491544 2.68768,-4.656697 4.55807,-5.367819 1.82979,-0.695683 6.62212,0.555715 6.21282,1.622324 -0.14828,0.386404 0.23765,1.347412 0.85762,2.135574 1.42053,1.805917 1.41482,2.761877 -0.0335,5.600779 l -1.16069,2.275146 1.16069,0.621184 c 1.84832,0.989188 1.48774,3.514752 -0.82132,5.752783 -1.96746,1.906943 -1.98764,1.912033 -2.74859,0.693545 z"
     id="path5283"
     inkscape:connector-curvature="0" /><path
     style="opacity:1;fill:#dedbe3;fill-opacity:1;stroke-width:0.57980579"
     d="m 469.92463,21.231033 c 0.22556,-1.588225 1.12673,-1.535191 1.73235,0.101949 0.35845,0.968997 0.21541,1.202614 -0.73638,1.202614 -0.89336,0 -1.1361,-0.317942 -0.99597,-1.304563 z"
     id="path5285"
     inkscape:connector-curvature="0" /><path
     style="opacity:1;fill:#dedbe3;fill-opacity:1;stroke-width:0.57980579"
     d="m 504.65412,37.272326 c 0.0278,-0.675441 0.16521,-0.812829 0.3503,-0.350299 0.16749,0.418547 0.14689,0.91863 -0.0458,1.111294 -0.19267,0.192665 -0.32971,-0.149783 -0.30453,-0.760995 z"
     id="path5287"
     inkscape:connector-curvature="0" /><path
     style="opacity:1;fill:#dedbe3;fill-opacity:1;stroke-width:0.57980579"
     d="m 502.28912,39.107481 c 0,-1.457195 0.68242,-2.656546 1.51155,-2.656546 0.51088,0 0.80768,0.639181 0.80768,1.739417 0,1.35288 -0.2577,1.739417 -1.15962,1.739417 -0.63778,0 -1.15961,-0.370029 -1.15961,-0.822288 z"
     id="path5289"
     inkscape:connector-curvature="0" /><path
     style="opacity:1;fill:#dedbe3;fill-opacity:1;stroke-width:0.57980579"
     d=""
     id="path5291"
     inkscape:connector-curvature="0" /><path
     style="opacity:1;fill:#dedbe3;fill-opacity:1;stroke-width:0.57980579"
     d=""
     id="path5293"
     inkscape:connector-curvature="0" /><path
     style="opacity:1;fill:#dedbe3;fill-opacity:1;stroke-width:0.20499229"
     d="m 368.53912,67.563645 c -0.1581,-0.255799 2.80107,-4.733694 3.06948,-4.644822 0.11274,0.03733 0.19599,0.196317 0.185,0.353301 -0.0187,0.267509 -2.89428,4.487767 -3.05782,4.487767 -0.0415,0 -0.12996,-0.08831 -0.19666,-0.196246 z"
     id="path5295"
     inkscape:connector-curvature="0" /><path
     style="opacity:1;fill:#dedbe3;fill-opacity:1;stroke-width:0.20499229"
     d="m 381.58489,90.342965 c 0.19533,-0.489026 11.93229,-18.064672 12.01098,-17.985982 0.051,0.05097 -1.17665,2.335287 -2.72804,5.076264 -2.16634,3.827478 -3.32762,5.625586 -5.00585,7.750989 -1.20183,1.522068 -2.631,3.343937 -3.17595,4.048598 -0.9109,1.177887 -1.27471,1.544665 -1.10114,1.110131 z"
     id="path5297"
     inkscape:connector-curvature="0" /><path
     style="opacity:1;fill:#dedbe3;fill-opacity:1;stroke-width:0.20499229"
     d="m 384.22601,82.929321 c -0.0126,-0.818915 1.78441,-4.770005 2.08496,-4.584251 0.10277,0.06351 0.31614,-0.05519 0.47417,-0.263788 0.60428,-0.797615 0.22775,0.130977 -1.13457,2.798116 -1.24224,2.432039 -1.41487,2.680452 -1.42456,2.049923 z"
     id="path5299"
     inkscape:connector-curvature="0" /><path
     style="opacity:1;fill:#dedbe3;fill-opacity:1;stroke-width:0.20499229"
     d="m 490.00697,52.599931 c -0.22519,-0.139176 -0.19487,-0.289412 0.15865,-0.785873 0.72195,-1.013897 2.68516,-2.703566 4.64334,-3.996381 1.83336,-1.210404 7.22356,-3.958892 7.40607,-3.776387 0.0525,0.05249 -1.49067,1.098124 -3.42925,2.323629 -1.93857,1.225506 -4.50498,3.058412 -5.70314,4.073123 -2.9179,2.471168 -2.75758,2.358479 -3.07567,2.161889 z"
     id="path5301"
     inkscape:connector-curvature="0" /><path
     style="opacity:1;fill:#dedbe3;fill-opacity:1;stroke-width:0.20499229"
     d="m 469.73423,47.363158 c 0.0666,-1.639283 -0.14987,-2.050173 -0.92505,-1.755453 -0.54255,0.206278 -0.54672,0.200765 -0.54672,-0.723005 0,-1.078172 -0.28334,-1.723884 -0.75645,-1.723884 -0.30496,0 -0.30471,-0.03021 0.003,-0.370248 0.30073,-0.332309 0.30293,-0.40238 0.0215,-0.683834 -0.28145,-0.281454 -0.28102,-0.340611 0.004,-0.577318 0.26302,-0.218288 0.31778,-0.210748 0.31778,0.04376 0,0.169119 0.13463,0.419228 0.29919,0.555797 0.20159,0.167307 0.31862,0.746798 0.35874,1.776413 l 0.0595,1.528104 0.87792,-0.64652 0.87793,-0.64652 -0.058,-2.163119 -0.058,-2.16312 -0.71747,-0.250879 c -0.61597,-0.215387 -0.65947,-0.269931 -0.30749,-0.385536 0.22549,-0.07406 0.75356,-0.306186 1.17348,-0.515833 l 0.7635,-0.381177 -0.12093,1.158814 c -0.11073,1.061101 -0.0636,1.250932 0.55844,2.251257 l 0.67936,1.092442 -0.48484,1.931194 c -0.46265,1.842844 -0.64621,2.183886 -0.92907,1.726203 -0.24431,-0.395298 -0.48112,-0.197343 -0.79698,0.666225 -0.2874,0.785749 -0.31621,0.810887 -0.29366,0.25624 z"
     id="path5303"
     inkscape:connector-curvature="0" /><path
     style="opacity:1;fill:#dedbe3;fill-opacity:1;stroke-width:0.20499229"
     d="m 462.58728,58.037912 c -0.19509,-0.222295 -0.1346,-0.298914 0.30749,-0.389458 0.30271,-0.062 0.73487,-0.253884 0.96036,-0.426418 0.39405,-0.301509 0.3841,-0.313951 -0.25624,-0.320217 -0.7754,-0.0076 -0.8098,-0.128972 -0.23423,-0.826489 0.41337,-0.500966 0.42061,-0.502117 0.32212,-0.05125 -0.0554,0.253678 -0.026,0.461233 0.0654,0.461233 0.25827,0 2.65929,-1.392376 3.74161,-2.169799 0.80684,-0.579545 0.97371,-0.637023 0.97371,-0.33538 0,0.200218 0.14778,0.575016 0.3284,0.832885 0.18062,0.257869 0.29593,0.485949 0.25624,0.506845 -0.5765,0.303535 -6.13663,3.008238 -6.17248,3.002582 -0.0272,-0.0043 -0.15874,-0.132329 -0.29233,-0.284536 z"
     id="path5305"
     inkscape:connector-curvature="0" /></svg>